<?xml version="1.0" encoding="iso-8859-1"?>
<!-- Generator: Adobe Illustrator 19.0.0, SVG Export Plug-In . SVG Version: 6.00 Build 0)  -->
<svg version="1.1" id="Capa_1" xmlns="http://www.w3.org/2000/svg" xmlns:xlink="http://www.w3.org/1999/xlink" x="0px" y="0px"
	 viewBox="0 0 512 512" style="enable-background:new 0 0 512 512;" xml:space="preserve">
<path style="fill:#0789DE;" d="M256,7.5v497c137.243,0,248.5-111.257,248.5-248.5S393.243,7.5,256,7.5z"/>
<path style="fill:#2EA2EF;" d="M464.5,256C464.5,118.757,371.151,7.5,256,7.5C118.757,7.5,7.5,118.757,7.5,256
	S118.757,504.5,256,504.5C371.151,504.5,464.5,393.243,464.5,256z"/>
<polygon style="fill:#C6E8FF;" points="256,97.5 288,401.5 318,401.5 318,204.5 363,204.5 "/>
<polygon style="fill:#FFFFFF;" points="256,97.5 149,204.5 194,204.5 194,401.5 288,401.5 288,174.5 "/>
<path d="M437.02,74.98C388.667,26.629,324.38,0,256,0S123.333,26.629,74.98,74.98C26.629,123.332,0,187.62,0,256
	s26.629,132.668,74.98,181.02C123.333,485.371,187.62,512,256,512s132.667-26.629,181.02-74.98C485.371,388.668,512,324.38,512,256
	S485.371,123.332,437.02,74.98z M256,497C123.112,497,15,388.888,15,256S123.112,15,256,15s241,108.112,241,241S388.888,497,256,497
	z"/>
<path d="M261.303,92.196c-2.929-2.928-7.678-2.928-10.606,0l-107,107c-2.145,2.146-2.787,5.371-1.626,8.174S145.967,212,149,212
	h37.5v22.5c0,4.143,3.358,7.5,7.5,7.5s7.5-3.357,7.5-7.5v-30c0-4.143-3.358-7.5-7.5-7.5h-26.894L256,108.106L344.894,197H318
	c-4.142,0-7.5,3.357-7.5,7.5V394h-109V264.5c0-4.143-3.358-7.5-7.5-7.5s-7.5,3.357-7.5,7.5v137c0,4.143,3.358,7.5,7.5,7.5h124
	c4.142,0,7.5-3.357,7.5-7.5V212H363c3.033,0,5.768-1.827,6.929-4.63c1.161-2.803,0.519-6.028-1.626-8.174L261.303,92.196z"/>
<g>
</g>
<g>
</g>
<g>
</g>
<g>
</g>
<g>
</g>
<g>
</g>
<g>
</g>
<g>
</g>
<g>
</g>
<g>
</g>
<g>
</g>
<g>
</g>
<g>
</g>
<g>
</g>
<g>
</g>
</svg>
