<svg id="Capa_1" enable-background="new 0 0 512 512" height="512" viewBox="0 0 512 512" width="512" xmlns="http://www.w3.org/2000/svg"><g><g><path d="m53.358 498.642c-7.811-7.811-7.811-20.474 0-28.284l69.65-69.65 28.284 28.284-69.65 69.65c-7.81 7.811-20.474 7.811-28.284 0z" fill="#cdd2e1"/></g><g><path d="m360.708 428.992 28.284-28.284 69.65 69.65c7.81 7.81 7.81 20.474 0 28.284-7.81 7.81-20.474 7.81-28.284 0z" fill="#dce1eb"/></g><g><path d="m367.859 464.5h-223.718c-49.727 0-91.899-36.538-98.981-85.758l-17.66-122.742h457l-17.661 122.742c-7.082 49.22-49.254 85.758-98.98 85.758z" fill="#e9edf5"/></g><g><path d="m125.161 378.742-17.661-122.742h-80l17.661 122.742c7.082 49.22 49.254 85.758 98.981 85.758h80c-49.727 0-91.899-36.538-98.981-85.758z" fill="#dce1eb"/></g><g><path d="m7.5 246c0-16.569 13.431-30 30-30h437c16.569 0 30 13.431 30 30 0 16.569-13.431 30-30 30h-437c-16.569 0-30-13.431-30-30z" fill="#f2f6fc"/></g><g><path d="m77.5 246c0-16.569 13.431-30 30-30h-70c-16.569 0-30 13.431-30 30s13.431 30 30 30h70c-16.569 0-30-13.431-30-30z" fill="#e9edf5"/></g><g><path d="m420.737 101.07c-8.301 0-16.268 1.417-23.693 3.991-2.3-40.043-35.49-71.809-76.11-71.809-18.711 0-35.838 6.751-49.105 17.935-16.575-26.243-45.817-43.687-79.149-43.687-51.678 0-93.57 41.893-93.57 93.57 0 .145.01.287.011.432-2.582-.279-5.201-.432-7.857-.432-39.95 0-72.337 32.386-72.337 72.337s32.387 72.337 72.337 72.337c14.696 0 28.361-4.395 39.774-11.924 2.39 49.549 43.313 88.989 93.455 88.989 46.777 0 85.534-34.326 92.464-79.162 5.383 1.747 11.123 2.703 17.088 2.703 15.895 0 30.215-6.714 40.304-17.45 12.559 10.51 28.732 16.844 46.389 16.844 39.951 0 72.337-32.386 72.337-72.337s-32.387-72.337-72.338-72.337z" fill="#82baff"/></g><g><path d="m91.263 101.07c-40.291 0-72.888 32.94-72.33 73.359.525 38.014 30.971 69.503 68.949 71.237 15.979.73 30.871-3.743 43.155-11.847 2.39 49.549 43.313 88.989 93.455 88.989 46.777 0 85.534-34.326 92.464-79.162.001 0 .002.001.004.001.726-4.697 1.103-9.509 1.103-14.41 0-24.646-9.531-47.063-25.107-63.773-8.77-9.408-23.654-9.166-32.526.146-17.043 17.884-41.094 29.03-67.749 29.03-51.678 0-93.57-41.893-93.57-93.57 0 .145.01.287.011.432-2.584-.279-5.203-.432-7.859-.432z" fill="#69a8ff"/></g><g><g><g><ellipse cx="176.355" cy="389.269" fill="#ffa4d2" rx="29.387" ry="23.403"/></g><g><ellipse cx="335.645" cy="389.269" fill="#ffa4d2" rx="29.387" ry="23.403"/></g><g><path d="m279.694 371.288c0-14.643-10.608-16.019-23.694-16.019-13.085 0-23.693 1.376-23.693 16.019s10.608 26.513 23.693 26.513c13.086-.001 23.694-11.871 23.694-26.513z" fill="#555a66"/></g></g><g><path d="m181.268 368.829c-4.142 0-7.5-3.358-7.5-7.5v-12c0-4.142 3.358-7.5 7.5-7.5s7.5 3.358 7.5 7.5v12c0 4.142-3.358 7.5-7.5 7.5z"/></g><g><path d="m256 405.3c-17.2 0-31.193-15.258-31.193-34.013 0-23.519 21.859-23.519 31.193-23.519s31.193 0 31.193 23.519c0 18.755-13.993 34.013-31.193 34.013zm0-42.531c-15.539 0-16.193 2.611-16.193 8.519 0 10.484 7.264 19.013 16.193 19.013s16.193-8.529 16.193-19.013c0-5.908-.655-8.519-16.193-8.519z"/></g><g><path d="m330.732 368.829c-4.143 0-7.5-3.358-7.5-7.5v-12c0-4.142 3.357-7.5 7.5-7.5s7.5 3.358 7.5 7.5v12c0 4.142-3.357 7.5-7.5 7.5z"/></g></g><path d="m512 246c0-14.817-8.602-27.854-21.452-33.915 6.379-11.467 10.026-24.652 10.026-38.678 0-44.022-35.814-79.837-79.837-79.837-5.821 0-11.591.631-17.239 1.881-6.709-39.753-41.346-69.7-82.564-69.7-16.955 0-33.501 5.178-47.388 14.71-19.06-25.478-48.725-40.461-80.866-40.461-20.844 0-40.858 6.295-57.88 18.205-3.394 2.375-4.22 7.051-1.845 10.445s7.051 4.22 10.445 1.845c14.487-10.137 31.528-15.495 49.28-15.495 29.695 0 56.913 15.025 72.808 40.191 1.157 1.833 3.052 3.075 5.193 3.407 2.143.331 4.322-.28 5.981-1.677 12.37-10.427 28.093-16.17 44.271-16.17 36.395 0 66.537 28.437 68.623 64.74.135 2.347 1.362 4.495 3.315 5.802 1.954 1.308 4.409 1.624 6.628.854 6.848-2.374 13.992-3.577 21.237-3.577 35.751 0 64.837 29.086 64.837 64.837s-29.086 64.837-64.837 64.837c-15.178 0-29.943-5.361-41.576-15.096-3.048-2.55-7.558-2.281-10.278.616-9.144 9.729-21.517 15.086-34.84 15.086-5.024 0-9.995-.786-14.772-2.337-2.089-.677-4.374-.406-6.247.747-1.872 1.152-3.145 3.068-3.48 5.241-6.415 41.507-42.979 72.808-85.051 72.808-45.99 0-83.75-35.953-85.963-81.85-.13-2.691-1.693-5.106-4.096-6.326-2.404-1.22-5.277-1.058-7.525.427-10.596 6.989-22.921 10.684-35.644 10.684-35.751 0-64.837-29.085-64.837-64.837 0-35.751 29.086-64.837 64.837-64.837 2.291 0 4.663.131 7.052.389 2.121.229 4.248-.459 5.834-1.893s2.485-3.477 2.471-5.615c-.001-.146-.005-.291-.011-.381 0-16.985 4.938-33.409 14.281-47.499 2.289-3.452 1.347-8.106-2.105-10.396s-8.107-1.347-10.396 2.105c-9.596 14.47-15.237 31.032-16.505 48.291-.208-.001-.415-.002-.621-.002-44.022 0-79.837 35.814-79.837 79.837 0 14.028 3.649 27.215 10.029 38.683-12.847 6.067-21.456 19.115-21.456 33.911 0 15.725 9.733 29.211 23.488 34.774l14.25 99.036c3.467 24.096 15.013 46.26 32.662 62.9l-22.344 22.344c-10.722 10.722-10.722 28.168 0 38.891 5.193 5.195 12.099 8.055 19.444 8.055 7.346 0 14.251-2.86 19.445-8.055l33.583-33.583c.267-.266.5-.552.718-.846 7.473 1.63 15.143 2.484 22.894 2.484h169.59c4.143 0 7.5-3.358 7.5-7.5s-3.357-7.5-7.5-7.5h-169.59c-45.689 0-85.05-34.103-91.557-79.327l-13.549-94.173h100.125c17.958 28.233 49.517 46.809 85.333 46.809 24.274 0 47.743-8.735 66.081-24.595 7.495-6.482 13.925-13.987 19.167-22.214h163.226l-13.55 94.174c-6.507 45.223-45.867 79.326-91.558 79.326h-20.127c-4.143 0-7.5 3.358-7.5 7.5s3.357 7.5 7.5 7.5h20.127c7.748 0 15.414-.854 22.884-2.482.209.278.432.548.685.801l33.626 33.626c5.361 5.361 12.404 8.042 19.446 8.042s14.085-2.681 19.446-8.042c10.722-10.722 10.722-28.168 0-38.891l-22.345-22.345c17.648-16.641 29.195-38.804 32.661-62.9l14.25-99.036c13.756-5.562 23.489-19.048 23.489-34.773zm-435.661 247.339c-4.874 4.874-12.804 4.874-17.678 0s-4.874-12.804 0-17.678l23.411-23.411c7.16 5.064 14.884 9.204 22.988 12.368zm-38.839-224.839c-12.407 0-22.5-10.093-22.5-22.5 0-9.737 6.216-18.197 15.175-21.266 14.657 17.416 36.597 28.511 61.088 28.511 11.67 0 23.069-2.525 33.521-7.372 1.301 7.902 3.527 15.475 6.534 22.627zm415.839 224.839c-4.873 4.874-12.805 4.873-17.678 0l-28.721-28.721c8.104-3.163 15.828-7.303 22.988-12.367l23.411 23.411c4.874 4.873 4.874 12.803 0 17.677zm21.161-224.839h-156.877c2.136-5.059 3.874-10.294 5.161-15.665 3.707.675 7.471 1.015 11.259 1.015 14.971 0 29.512-5.438 40.829-15.104 13.377 9.389 29.425 14.498 45.865 14.498 24.492 0 46.432-11.095 61.089-28.512 8.963 3.066 15.174 11.517 15.174 21.268 0 12.407-10.094 22.5-22.5 22.5z"/></g></svg>