<svg id="Capa_1" enable-background="new 0 0 512 512"  viewBox="0 0 512 512"  xmlns="http://www.w3.org/2000/svg"><g><g><path d="m441.87 220.644h-14.142c-5.579 0-10.102-4.523-10.102-10.102v-50.508c0-55.79-45.226-101.016-101.016-101.016h-121.22c-55.79 0-101.016 45.227-101.016 101.016v50.508c0 5.579-4.523 10.102-10.102 10.102h-14.142c-22.316 0-40.406 18.091-40.406 40.407v101.016h452.552v-101.017c0-22.316-18.09-40.406-40.406-40.406z" fill="#df75a5"/></g><g><path d="m283.472 362.067h181.433c-9.25-41.562-46.409-72.732-90.717-72.732s-81.466 31.17-90.716 72.732z" fill="#dd5790"/></g><g><path d="m228.528 362.067h-181.434c9.25-41.562 46.409-72.732 90.717-72.732s81.467 31.17 90.717 72.732z" fill="#dd5790"/></g><g><path d="m494.398 402.473h-476.796c-5.579 0-10.102-4.523-10.102-10.102v-20.203c0-5.579 4.523-10.102 10.102-10.102h476.796c5.579 0 10.102 4.523 10.102 10.102v20.203c0 5.579-4.523 10.102-10.102 10.102z" fill="#ffe07d"/></g><g><path d="m219.634 91.343h-24.244c-37.937 0-68.691 30.754-68.691 68.691v40.407c0 11.158 9.045 20.203 20.203 20.203h72.732c11.158 0 20.203-9.045 20.203-20.203v-88.894c0-11.159-9.045-20.204-20.203-20.204z" fill="#e4fbef"/></g><g><path d="m316.61 91.343h-24.244c-11.158 0-20.203 9.045-20.203 20.203v88.894c0 11.158 9.045 20.203 20.203 20.203h72.732c11.158 0 20.203-9.045 20.203-20.203v-40.407c0-37.936-30.754-68.69-68.691-68.69z" fill="#e4fbef"/></g><g><path d="m219.634 91.343h-24.244c-.226 0-.448.015-.673.017 11.001.182 19.866 9.142 19.866 20.186v88.894c0 11.158-9.045 20.203-20.203 20.203h25.254c11.158 0 20.203-9.045 20.203-20.203v-88.894c0-11.158-9.045-20.203-20.203-20.203z" fill="#d3effb"/></g><g><path d="m316.61 91.343h-24.244c-.114 0-.224.015-.337.017 37.626.363 68.018 30.963 68.018 68.674v40.407c0 11.158-9.045 20.203-20.203 20.203h25.254c11.158 0 20.203-9.045 20.203-20.203v-40.407c0-37.937-30.754-68.691-68.691-68.691z" fill="#d3effb"/></g><g><circle cx="374.189" cy="382.27" fill="#30579d" r="70.711"/></g><g><path d="m415.441 324.855c8.358 11.613 13.297 25.852 13.297 41.252 0 39.053-31.659 70.711-70.711 70.711-15.4 0-29.639-4.939-41.252-13.297 12.837 17.835 33.762 29.46 57.414 29.46 39.053 0 70.711-31.659 70.711-70.711 0-23.653-11.624-44.577-29.459-57.415z" fill="#26457d"/></g><g><circle cx="374.189" cy="382.27" fill="#e4fbef" r="30.305"/></g><g><circle cx="137.811" cy="382.27" fill="#30579d" r="70.711"/></g><g><path d="m179.063 324.855c8.358 11.613 13.297 25.852 13.297 41.252 0 39.053-31.659 70.711-70.711 70.711-15.4 0-29.639-4.939-41.252-13.297 12.837 17.835 33.762 29.46 57.414 29.46 39.053 0 70.711-31.659 70.711-70.711 0-23.653-11.624-44.577-29.459-57.415z" fill="#26457d"/></g><g><circle cx="137.811" cy="382.27" fill="#e4fbef" r="30.305"/></g><g><path d="m494.4 354.57h-4.62v-35.12c0-4.143-3.357-7.5-7.5-7.5s-7.5 3.357-7.5 7.5v35.12h-27.464c-11.209-29.491-39.753-50.512-73.128-50.512s-61.919 21.021-73.127 50.512h-90.123c-11.209-29.491-39.752-50.512-73.127-50.512s-61.919 21.021-73.128 50.512h-27.463v-93.521c0-18.146 14.764-32.91 32.91-32.91h14.14c9.705 0 17.601-7.896 17.601-17.6v-50.51c0-51.562 41.953-93.511 93.52-93.511h121.219c51.566 0 93.52 41.949 93.52 93.511v50.51c0 9.704 7.896 17.6 17.601 17.6h14.14c18.146 0 32.91 14.764 32.91 32.91v23.4c0 4.143 3.357 7.5 7.5 7.5s7.5-3.357 7.5-7.5v-23.4c0-26.418-21.492-47.91-47.91-47.91h-14.14c-1.434 0-2.601-1.166-2.601-2.6v-50.51c0-59.833-48.682-108.511-108.52-108.511h-121.22c-59.838 0-108.52 48.678-108.52 108.511v50.51c0 1.434-1.167 2.6-2.601 2.6h-14.139c-26.418 0-47.91 21.492-47.91 47.91v93.521h-4.62c-9.704 0-17.6 7.896-17.6 17.6v20.2c0 9.704 7.896 17.6 17.6 17.6h47.083c11.209 29.491 39.753 50.512 73.128 50.512s61.919-21.021 73.127-50.512h27.562c4.143 0 7.5-3.357 7.5-7.5s-3.357-7.5-7.5-7.5h-23.524c.678-4.136 1.047-8.375 1.047-12.699 0-4.325-.369-8.564-1.047-12.7h82.049c-.678 4.136-1.047 8.375-1.047 12.7s.368 8.563 1.047 12.699h-23.525c-4.143 0-7.5 3.357-7.5 7.5s3.357 7.5 7.5 7.5h27.561c11.208 29.491 39.752 50.512 73.127 50.512s61.92-21.021 73.128-50.512h47.084c9.704 0 17.6-7.896 17.6-17.6v-20.2c0-9.705-7.896-17.6-17.6-17.6zm-476.8 40.399c-1.434 0-2.6-1.166-2.6-2.6v-20.2c0-1.434 1.166-2.6 2.6-2.6h43.047c-.679 4.136-1.047 8.375-1.047 12.7s.368 8.563 1.047 12.699h-43.047zm120.212 50.512c-34.855 0-63.212-28.356-63.212-63.211s28.356-63.212 63.212-63.212c34.854 0 63.211 28.356 63.211 63.212-.001 34.855-28.357 63.211-63.211 63.211zm236.376 0c-34.854 0-63.211-28.356-63.211-63.211s28.356-63.212 63.211-63.212 63.212 28.356 63.212 63.212c0 34.855-28.356 63.211-63.212 63.211zm122.812-53.111c0 1.434-1.166 2.6-2.6 2.6h-43.047c.678-4.136 1.047-8.375 1.047-12.699 0-4.325-.369-8.564-1.047-12.7h43.047c1.434 0 2.6 1.166 2.6 2.6z"/><path d="m239.84 141.519c4.143 0 7.5-3.357 7.5-7.5v-22.47c0-15.279-12.431-27.71-27.71-27.71h-24.24c-42.011 0-76.189 34.179-76.189 76.19v40.41c0 15.273 12.426 27.699 27.7 27.699h72.729c15.279 0 27.71-12.426 27.71-27.699v-31.421c0-4.143-3.357-7.5-7.5-7.5s-7.5 3.357-7.5 7.5v31.421c0 7.002-5.702 12.699-12.71 12.699h-72.73c-7.003 0-12.7-5.697-12.7-12.699v-40.41c0-33.74 27.449-61.19 61.189-61.19h24.24c7.008 0 12.71 5.702 12.71 12.71v22.47c.001 4.143 3.358 7.5 7.501 7.5z"/><path d="m392.801 200.441v-40.407c0-42.012-34.18-76.19-76.191-76.19h-24.243c-15.276 0-27.704 12.428-27.704 27.703v88.895c0 15.275 12.428 27.703 27.704 27.703h72.731c15.275-.001 27.703-12.429 27.703-27.704zm-113.139 0v-88.895c0-7.005 5.699-12.703 12.704-12.703h24.243c33.741 0 61.191 27.45 61.191 61.19v40.407c0 7.005-5.698 12.703-12.703 12.703h-72.731c-7.005.001-12.704-5.697-12.704-12.702z"/><path d="m374.188 344.465c-20.846 0-37.805 16.959-37.805 37.805s16.959 37.805 37.805 37.805 37.806-16.959 37.806-37.805-16.96-37.805-37.806-37.805zm0 60.61c-12.574 0-22.805-10.23-22.805-22.805s10.23-22.805 22.805-22.805 22.806 10.23 22.806 22.805-10.23 22.805-22.806 22.805z"/><path d="m137.812 344.465c-20.846 0-37.806 16.959-37.806 37.805s16.96 37.805 37.806 37.805 37.805-16.959 37.805-37.805-16.96-37.805-37.805-37.805zm0 60.61c-12.575 0-22.806-10.23-22.806-22.805s10.23-22.805 22.806-22.805c12.574 0 22.805 10.23 22.805 22.805s-10.231 22.805-22.805 22.805z"/><path d="m272.162 251.53c-4.143 0-7.5 3.357-7.5 7.5s3.357 7.5 7.5 7.5h26.265c4.143 0 7.5-3.357 7.5-7.5s-3.357-7.5-7.5-7.5z"/><path d="m213.573 251.53c-4.143 0-7.5 3.357-7.5 7.5s3.357 7.5 7.5 7.5h26.265c4.143 0 7.5-3.357 7.5-7.5s-3.357-7.5-7.5-7.5z"/></g></g></svg>