<svg id="Capa_1" enable-background="new 0 0 512 512" height="512" viewBox="0 0 512 512" width="512" xmlns="http://www.w3.org/2000/svg"><g><g><path d="m409.793 9.804c-16.61-6.501-35.406 1.214-42.889 17.405-6.805 14.725-2.183 32.158 10.95 41.68 17.478 12.673 38.123 34.732 38.123 68.223l28.295 21.525c54.639-95.723 2.981-134.171-34.479-148.833z" fill="#ffb3dd"/><path d="m303.465 246.831h-279.614c-8.496 18.027-13.214 38-13.214 59.02 0 32.307 11.152 62.143 30.006 86.245 10.076 12.881 16.538 28.175 18.701 44.385 1.457 10.92 4.22 24.395 9.404 38.618 6.436 17.657 23.243 29.4 42.036 29.4h105.749c18.793 0 35.601-11.743 42.036-29.4 5.184-14.224 7.947-27.698 9.404-38.618 2.163-16.21 8.624-31.504 18.701-44.385 18.854-24.102 30.006-53.938 30.006-86.245-.001-21.019-4.72-40.993-13.215-59.02z" fill="#a19dae"/><path d="m406.227 99.752c5.846 10.406 9.75 22.801 9.75 37.36l28.295 21.525c5.709-10.002 10.243-19.37 13.768-28.16-15.12-13.298-32.683-23.782-51.813-30.725z" fill="#ff9dd3"/><path d="m480.534 226.471c-11.676-59.93-64.492-105.746-127.696-106.321-5.723-.052-11.362.262-16.908.921l10.619 60.114 115.629 55.567z" fill="#ff748f"/><path d="m49.296 209.522c28.019-29.85 68.875-48.662 114.356-48.662 45.491 0 86.348 18.812 114.367 48.662v35.298l-114.362 47.359-114.361-45.348z" fill="#ff748f"/><path d="m66.445 323.864c0-26.638 3.547-52.454 10.167-77.032h-52.761c-8.496 18.027-13.214 38-13.214 59.02 0 32.307 11.152 62.143 30.006 86.245 10.076 12.881 16.538 28.175 18.701 44.385 1.457 10.92 4.22 24.395 9.404 38.618 6.436 17.657 23.243 29.4 42.036 29.4h17.185c-38.599-50.174-61.524-112.756-61.524-180.636z" fill="#938ea3"/><path d="m109.443 170.238c-23.3 8.369-43.888 21.962-60.147 39.284v37.31l24.829 9.845c7.192-30.922 19.249-60.006 35.318-86.439z" fill="#fd5f7e"/><g><path d="m303.465 246.831c-6.121 8.025-13.152 15.579-21.04 22.557-31.848 28.186-74.023 43.713-118.772 43.713-44.738 0-86.923-15.526-118.772-43.713-7.889-6.979-14.909-14.533-21.03-22.547 6.434-13.696 15.056-26.261 25.445-37.32 20.789 36.535 64.24 61.729 114.356 61.729s93.567-25.194 114.367-61.729c10.379 11.049 19.001 23.625 25.446 37.31z" fill="#f8e86a"/></g><ellipse cx="214.627" cy="216.764" fill="#b2b0bc" rx="98.807" ry="82.001" transform="matrix(.265 -.964 .964 .265 -51.296 366.217)"/><ellipse cx="214.627" cy="216.764" fill="#ffb3dd" rx="56.956" ry="40.15" transform="matrix(.265 -.964 .964 .265 -51.297 366.216)"/><path d="m481.873 268.28c-3.107 24.336-12.869 46.6-27.412 64.889 9.793 6.455 21.752 10.599 35.772 12.388 6.55.837 11.362 6.581 11.122 13.183l-.282 8.109c-.753 21.616-21.637 36.86-42.415 30.844-22.013-6.372-38.387-16.751-50.398-27.684-17.159 8.213-36.368 12.817-56.655 12.817-72.924 0-132.3-60.191-131.327-133.116.701-53.433 33.323-99.175 79.662-119.023l26.998 14.952 19.612 35.547 115.629 55.567z" fill="#c7c5cb"/><g><path d="m482.951 251.675c-.01 5.629-.377 11.164-1.078 16.604-.806-.46-1.664-.952-2.574-1.454-11.593-6.424-27.213-13.068-43.755-20.109-33.909-14.428-72.339-30.781-99.751-54.51-16.123-13.968-27.046-29.473-32.434-46.077-1.643-5.043-2.783-10.191-3.421-15.443 11.279-4.823 23.352-8.119 35.991-9.615.314 15.872 8.109 29.829 23.834 43.451 23.07 19.973 58.695 35.123 90.125 48.505 10.724 4.562 21.124 8.987 30.645 13.445 1.602 8.16 2.428 16.593 2.418 25.203z" fill="#f8e86a"/></g><ellipse cx="388.107" cy="328.279" fill="#fff" rx="30.713" ry="24.458"/><path d="m77.831 242.382c-11.722-9.271-21.447-20.404-28.535-32.86-10.389 11.059-19.011 23.625-25.445 37.32 6.121 8.015 13.141 15.568 21.03 22.547 7.422 6.569 15.412 12.44 23.858 17.597 1.9-15.253 4.955-30.152 9.092-44.604z" fill="#f8d070"/></g><g><path d="m406.008 284.677c-4.142 0-7.5 3.358-7.5 7.5v12.555c0 4.142 3.358 7.5 7.5 7.5s7.5-3.358 7.5-7.5v-12.555c0-4.142-3.358-7.5-7.5-7.5z"/><path d="m51.907 437.472c1.862 13.954 5.156 27.478 9.792 40.195 7.484 20.536 27.209 34.333 49.083 34.333h105.75c21.874 0 41.599-13.797 49.083-34.332 4.636-12.718 7.93-26.242 9.792-40.195 1.979-14.829 7.917-28.922 17.174-40.756 3.779-4.831 7.274-9.913 10.442-15.167 33.096 12.425 70.692 11.79 103.948-2.708 14.089 11.843 30.753 20.598 49.603 26.054 25.443 7.365 51.072-11.24 51.998-37.788l.282-8.096c.386-10.577-7.209-19.56-17.666-20.896-1.99-.4-13.559-1.397-25.646-7.267 36.711-52.633 32.946-124.833-12.011-173.425 21.552-39.591 27.306-73.672 17.078-101.357-1.436-3.885-5.749-5.872-9.634-4.436-3.885 1.435-5.872 5.749-4.436 9.634 8.367 22.649 3.584 51.317-14.213 85.316-5.859-5.011-12.07-9.64-18.951-13.826-1.686-34.253-23.064-56.853-41.115-69.942-10.219-7.41-13.812-21.062-8.544-32.463 5.842-12.641 20.489-18.601 33.348-13.568 14.725 5.764 26.682 13.352 35.539 22.552 2.872 2.984 7.621 3.075 10.605.202s3.075-7.62.202-10.605c-10.369-10.772-24.122-19.559-40.878-26.117-20.234-7.92-43.266 1.41-52.431 21.243-8.266 17.888-2.649 39.293 13.355 50.898 13.636 9.887 29.496 26.044 33.858 49.445-16.789-7.414-35.215-11.581-54.403-11.756-18.894-.177-37.906 3.438-55.917 11.14 0 0-.001 0-.002.001-.001 0-.001 0-.002 0-6.978 2.989-13.61 6.527-19.883 10.521-9.722-9.634-21.455-16.52-34.282-20.049-35.39-9.733-72.861 7.319-96.141 39.944-79.741 7.962-143.55 72.003-143.55 151.648 0 33.019 10.926 64.44 31.598 90.867 9.258 11.834 15.196 25.927 17.175 40.756zm398.428-98.043c10.729 7.072 23.834 11.636 38.951 13.566 2.666.341 4.675 2.743 4.575 5.482l-.282 8.108c-.585 16.776-16.782 28.55-32.835 23.901-18.334-5.307-34.293-14.063-47.436-26.027-2.238-2.036-5.511-2.548-8.287-1.219-61.398 29.388-134.611 3.231-164.524-57.272-29.952-60.587-5.14-133.533 53.811-164.321 17.924 74.663 120.211 99.571 179.387 130.664-3.476 20.501-12.099 39.834-25.103 56.187-2.74 3.448-1.933 8.507 1.743 10.931zm-236.993-75.202c-24.871 6.934-38.438-26.164-30.197-56.126 8.026-29.18 35.4-50.386 53.268-34.152-18.7 27.7-25.842 59.919-23.071 90.278zm115.899-134.576c9.408 53.902 101.35 81.3 144.605 101.987 1.321 8.079 1.834 16.359 1.512 24.653-53.68-26.931-153.548-53.574-167.046-120.882 6.799-2.534 13.799-4.46 20.929-5.758zm140.122 83.565c-36.646-15.847-110.336-42.503-123.591-79.55l-1.031-5.838c57.856-3.158 107.864 34.05 124.622 85.388zm-246.848-86.693c5.451 0 10.922.713 16.327 2.2 9.536 2.623 18.353 7.573 25.863 14.473-7.03 5.651-13.47 11.938-19.23 18.775-26.372-22.326-65.476 1.011-76.793 42.152-11.616 42.231 11.566 83.184 46.854 75.02 1.745 8.608 4.34 17.178 7.884 25.642-11.125 2.932-22.429 2.925-33.01.014-54.075-14.884-64.97-90.105-34.241-137.897 16.006-24.89 40.957-40.379 66.346-40.379zm-94.185 66.501c-5.839 21.218-6.315 44.495.296 66.228-28.475-7.584-53.977-24.127-69.898-48.662 21.158-20.828 48.329-34.672 78.071-39.9-3.333 6.756-6.237 14.297-8.469 22.334zm-102.346 68.147c12.279 13.7 26.552 25.089 41.948 34.068 6.401 3.734 13.714-3.13 10.534-9.738-.626-1.302-1.635-2.437-2.977-3.219-17.171-10.015-31.521-22.524-42.822-36.385 4.33-8.444 9.57-16.441 15.653-23.892 20.131 28.866 52.673 47.715 87.11 54.148 6.071 11.904 14.165 21.837 23.812 29.392-20.137-.476-39.775-4.231-58.193-11.141-3.879-1.455-8.202.511-9.656 4.389-1.455 3.878.511 8.202 4.389 9.656 29.047 10.892 60.328 14.352 90.704 10.828 13.936 3.805 28.837 3.646 43.582-.784 13.191 23.715 33.89 44.167 59.099 56.966-2.582 4.148-5.392 8.169-8.4 12.014-10.902 13.937-17.896 30.54-20.228 48.015-1.718 12.879-4.752 25.342-9.016 37.042-5.336 14.637-19.397 24.47-34.991 24.47h-45.375v-47.202c17.339-.964 32.823-5.261 43.269-12.119 3.462-2.273 4.427-6.923 2.153-10.386-2.273-3.462-6.924-4.427-10.386-2.153-20.038 13.156-65.057 13.141-85.072.001-3.46-2.272-8.112-1.309-10.385 2.153-2.273 3.463-1.309 8.113 2.154 10.386 10.445 6.858 25.929 11.154 43.267 12.118v47.202h-45.374c-15.594 0-29.656-9.833-34.99-24.469-4.265-11.7-7.298-24.162-9.017-37.042-2.332-17.475-9.326-34.078-20.228-48.015-29.81-38.108-35.313-85.836-20.564-126.303z"/></g></g></svg>