<svg id="Capa_1" enable-background="new 0 0 512 512" height="512" viewBox="0 0 512 512" width="512" xmlns="http://www.w3.org/2000/svg"><g id="XMLID_1181_"><g id="XMLID_1669_"><g fill="#ffcd69"><path id="XMLID_1692_" d="m226.55 86.854-40.01 57.126-40.01-57.126c-13.6-19.418-11.293-45.798 5.47-62.561 19.076-19.076 50.004-19.076 69.079 0 16.764 16.763 19.071 43.143 5.471 62.561z"/><path id="XMLID_1691_" d="m226.55 286.199-40.01-57.126-40.01 57.126c-13.6 19.418-11.293 45.798 5.47 62.561 19.076 19.076 50.004 19.076 69.079 0 16.764-16.763 19.071-43.143 5.471-62.561z"/><path id="XMLID_1690_" d="m286.213 226.536-57.126-40.01 57.126-40.01c19.418-13.6 45.798-11.293 62.561 5.47 19.076 19.076 19.076 50.004 0 69.079-16.763 16.765-43.143 19.071-62.561 5.471z"/><path id="XMLID_1689_" d="m86.868 226.536 57.126-40.01-57.126-40.01c-19.418-13.6-45.798-11.293-62.561 5.47-19.076 19.076-19.076 50.004 0 69.079 16.763 16.765 43.143 19.071 62.561 5.471z"/><path id="XMLID_1688_" d="m285.31 144.339-68.685 12.103 12.103-68.685c4.114-23.347 24.398-40.37 48.105-40.37 26.977 0 48.846 21.869 48.846 48.847.001 23.706-17.021 43.991-40.369 48.105z"/><path id="XMLID_1687_" d="m144.353 285.296 12.103-68.686-68.686 12.104c-23.347 4.114-40.37 24.398-40.37 48.105 0 26.977 21.869 48.846 48.847 48.846 23.707.001 43.991-17.021 48.106-40.369z"/><path id="XMLID_1686_" d="m228.728 285.296-12.103-68.686 68.685 12.103c23.347 4.114 40.37 24.398 40.37 48.105 0 26.977-21.869 48.846-48.846 48.846-23.707.002-43.992-17.02-48.106-40.368z"/><path id="XMLID_1685_" d="m87.77 144.339 68.686 12.103-12.103-68.685c-4.114-23.347-24.398-40.37-48.105-40.37-26.977 0-48.847 21.869-48.847 48.847 0 23.706 17.022 43.991 40.369 48.105z"/></g><circle id="XMLID_1667_" cx="186.54" cy="186.526" fill="#ff7d97" r="79.826"/><circle id="XMLID_1798_" cx="186.54" cy="186.526" fill="#fff" r="30.084"/></g><path id="XMLID_1891_" d="m183 461.986c46.795 46.795 122.664 46.795 169.458 0-46.794-46.795-122.663-46.795-169.458 0z" fill="#e0ef9b"/><path id="XMLID_962_" d="m448 327.083c-46.795 46.795-46.795 122.664 0 169.458 46.795-46.795 46.795-122.664 0-169.458z" fill="#e0ef9b"/><g id="XMLID_638_"><path id="XMLID_641_" d="m502 491.986c-11.765 0-23.403-.777-34.862-2.267 6.92-9.196 12.563-19.235 16.835-30.015 2.034-5.134-.478-10.945-5.613-12.98-5.134-2.032-10.946.478-12.981 5.613-4.237 10.692-10.063 20.533-17.377 29.367-16.253-19.631-25.097-44.083-25.097-69.893s8.844-50.262 25.097-69.894c7.314 8.835 13.142 18.677 17.379 29.372 2.035 5.134 7.847 7.646 12.98 5.613 5.135-2.034 7.647-7.846 5.613-12.98-6.536-16.496-16.261-31.271-28.903-43.912-3.905-3.904-10.237-3.904-14.142 0-24.521 24.522-38.024 57.123-38.024 91.801 0 24.433 6.712 47.831 19.25 68.103-73.84-22.83-135.761-76.603-167.844-148.711 6.966 2.88 14.58 4.462 22.524 4.462 32.448 0 58.847-26.398 58.847-58.846 0-11.978-3.595-23.206-9.829-32.585 11.042-2.223 21.523-7.626 29.994-16.097 11.114-11.115 17.235-25.893 17.235-41.611 0-15.719-6.121-30.496-17.235-41.61-8.472-8.472-18.955-13.87-29.998-16.092 6.237-9.38 9.833-20.61 9.833-32.59 0-32.448-26.398-58.847-58.847-58.847-11.98 0-23.21 3.596-32.59 9.833-2.223-11.043-7.621-21.526-16.092-29.998-22.943-22.943-60.276-22.943-83.222 0-8.471 8.472-13.869 18.955-16.092 29.998-9.38-6.237-20.61-9.833-32.59-9.833-32.448 0-58.846 26.398-58.846 58.847 0 11.98 3.596 23.21 9.833 32.59-11.043 2.223-21.526 7.621-29.998 16.092-11.117 11.114-17.238 25.891-17.238 41.61s6.121 30.496 17.235 41.611c8.472 8.472 18.952 13.875 29.994 16.098-6.234 9.379-9.828 20.606-9.828 32.585 0 32.447 26.398 58.846 58.846 58.846 11.981 0 23.21-3.596 32.59-9.832 2.223 11.043 7.621 21.527 16.092 29.999 11.472 11.472 26.541 17.208 41.61 17.207 15.069 0 30.139-5.736 41.611-17.208 3.844-3.843 7.053-8.102 9.625-12.637 12.773 27.687 29.734 53.021 50.342 75.288-6.683-1.048-13.494-1.591-20.389-1.591-34.678 0-67.279 13.504-91.8 38.024-3.905 3.905-3.905 10.237 0 14.143 24.521 24.521 57.123 38.024 91.8 38.024 32.925 0 63.973-12.181 88.016-34.399 44.248 25.785 94.286 39.303 146.255 39.303 5.523 0 10-4.478 10-10 .001-5.523-4.476-10.001-9.999-10.001zm-385.286-305.46c0-38.502 31.324-69.826 69.827-69.826s69.826 31.324 69.826 69.826-31.324 69.826-69.826 69.826c-38.503 0-69.827-31.324-69.827-69.826zm160.119 129.14c-18.89 0-34.979-13.502-38.257-32.104l-3.756-21.317c11.012-7.046 20.392-16.426 27.438-27.438l21.318 3.756c18.602 3.277 32.104 19.366 32.104 38.257 0 21.42-17.427 38.846-38.847 38.846zm76.248-129.14c0 10.376-4.041 20.132-11.378 27.469-13.357 13.358-34.281 15.188-49.753 4.351l-17.703-12.399c1.384-6.256 2.121-12.754 2.121-19.42 0-6.667-.736-13.163-2.12-19.419l17.702-12.399c15.474-10.837 36.398-9.007 49.754 4.351 7.336 7.335 11.377 17.09 11.377 27.466zm-76.248-129.14c21.42 0 38.847 17.427 38.847 38.847 0 18.89-13.502 34.978-32.105 38.257l-21.316 3.757c-7.046-11.012-16.427-20.393-27.439-27.439l3.756-21.316c3.278-18.604 19.368-32.106 38.257-32.106zm-117.762-26.022c15.148-15.146 39.793-15.146 54.938 0 13.357 13.357 15.187 34.281 4.35 49.754l-12.398 17.703c-6.256-1.384-12.754-2.121-19.42-2.121-6.667 0-13.164.736-19.421 2.121l-12.398-17.703c-10.837-15.473-9.007-36.397 4.349-49.754zm-62.824 26.022c18.89 0 34.979 13.502 38.257 32.105l3.756 21.316c-11.012 7.046-20.393 16.427-27.439 27.439l-21.316-3.757c-18.603-3.278-32.105-19.367-32.105-38.257.001-21.419 17.427-38.846 38.847-38.846zm-76.247 129.14c0-10.376 4.04-20.131 11.378-27.468 13.357-13.357 34.282-15.188 49.753-4.352l17.703 12.399c-1.384 6.257-2.121 12.754-2.121 19.421s.736 13.164 2.121 19.42l-17.703 12.399c-15.472 10.838-36.396 9.008-49.753-4.351-7.338-7.336-11.378-17.092-11.378-27.468zm76.247 129.14c-21.42 0-38.846-17.426-38.846-38.846 0-18.891 13.502-34.979 32.105-38.257l21.317-3.756c7.046 11.012 16.427 20.392 27.438 27.438l-3.757 21.317c-3.278 18.602-19.367 32.104-38.257 32.104zm117.762 26.023c-15.146 15.146-39.792 15.146-54.938-.001-13.357-13.356-15.186-34.28-4.35-49.753l12.399-17.704c6.256 1.384 12.753 2.121 19.42 2.121s13.163-.736 19.42-2.121l12.399 17.704c10.836 15.473 9.007 36.397-4.35 49.754zm53.72 145.393c-25.81 0-50.261-8.843-69.892-25.096 19.631-16.253 44.082-25.096 69.892-25.096s50.261 8.843 69.892 25.096c-19.631 16.253-44.082 25.096-69.892 25.096z"/><path id="XMLID_985_" d="m226.625 186.526c0-22.103-17.982-40.084-40.085-40.084-22.102 0-40.084 17.981-40.084 40.084s17.982 40.085 40.084 40.085c22.103 0 40.085-17.982 40.085-40.085zm-60.169 0c0-11.074 9.01-20.084 20.084-20.084 11.075 0 20.085 9.01 20.085 20.084 0 11.075-9.01 20.085-20.085 20.085-11.074 0-20.084-9.01-20.084-20.085z"/><path id="XMLID_986_" d="m476.03 404.736c-1.87 1.87-2.93 4.45-2.93 7.08s1.06 5.2 2.93 7.069c1.86 1.86 4.44 2.931 7.07 2.931s5.21-1.07 7.07-2.931c1.86-1.869 2.93-4.439 2.93-7.069s-1.07-5.21-2.93-7.08c-1.86-1.86-4.44-2.931-7.07-2.931-2.64 0-5.21 1.071-7.07 2.931z"/></g></g></svg>