<svg height="512pt" viewBox="-98 0 512 512" width="512pt" xmlns="http://www.w3.org/2000/svg"><path d="m125.058594 291.324219h168.527344v-147.800781c0-57.046876-46.242188-103.292969-103.289063-103.292969h-65.238281zm0 0" fill="#ffeb99"/><path d="m293.585938 170.71875c-67.460938-22-58.851563-87.554688-51.34375-116.492188-15.257813-8.898437-33.007813-13.996093-51.945313-13.996093h-65.234375v251.09375h168.523438zm0 0" fill="#ffde55"/><path d="m158.464844 504.5c-21.53125 0-38.984375-17.453125-38.984375-38.984375v-128.65625h77.96875v128.65625c0 21.53125-17.453125 38.984375-38.984375 38.984375zm0 0" fill="#ffdaaa"/><path d="m119.480469 448.136719c25.621093-8.421875 54.320312-12.3125 77.96875-14.042969v-97.234375h-77.96875zm0 0" fill="#ffc477"/><path d="m204.484375 153.070312c-20.402344-34.035156-19.078125-75.035156-.078125-106.882812 8.484375-14.214844.1875-32.464844-16.042969-35.726562-9.664062-1.941407-19.660156-2.960938-29.898437-2.960938-83.375 0-150.964844 67.589844-150.964844 150.964844v180.625c0 33.503906 27.160156 60.664062 60.664062 60.664062h180.601563c33.503906 0 60.664063-27.160156 60.664063-60.664062v-115.75c0-10.625-8.386719-19.425782-19.007813-19.773438-34.15625-1.113281-67.058594-19.003906-85.9375-50.496094zm0 0" fill="#dd9f80"/><path d="m101.097656 203.628906c-4.957031-108.082031 19.75-168.203125 36.144532-194.648437-73.320313 10.320312-129.742188 73.316406-129.742188 149.484375v180.625c0 33.503906 27.160156 60.664062 60.664062 60.664062h77.117188c-12.714844-45.757812-39.292969-89.398437-44.183594-196.125zm0 0" fill="#c68d6d"/><path d="m158.464844 319.746094c-15.519532 0-28.101563-12.582032-28.101563-28.097656v-20.429688c0-4.238281 3.4375-7.671875 7.671875-7.671875h40.859375c4.238281 0 7.671875 3.433594 7.671875 7.671875v20.429688c-.003906 15.515624-12.582031 28.097656-28.101562 28.097656zm0 0" fill="#57565c"/><path d="m94.441406 291.644531c0-13.179687-13.417968-23.867187-29.972656-23.867187s-29.972656 10.6875-29.972656 23.867187c0 13.183594 13.417968 23.871094 29.972656 23.871094s29.972656-10.6875 29.972656-23.871094zm0 0" fill="#ffa6bb"/><path d="m282.433594 291.644531c0-13.179687-13.417969-23.867187-29.972656-23.867187-16.554688 0-29.972657 10.6875-29.972657 23.867187 0 13.183594 13.417969 23.871094 29.972657 23.871094 16.554687 0 29.972656-10.6875 29.972656-23.871094zm0 0" fill="#ffa6bb"/><path d="m239.121094 251.09375c-4.140625 0-7.5 3.355469-7.5 7.5v12.449219c0 4.144531 3.359375 7.5 7.5 7.5 4.144531 0 7.5-3.355469 7.5-7.5v-12.449219c0-4.144531-3.355469-7.5-7.5-7.5zm0 0"/><path d="m77.808594 251.09375c-4.144532 0-7.5 3.355469-7.5 7.5v12.449219c0 4.144531 3.355468 7.5 7.5 7.5 4.140625 0 7.5-3.355469 7.5-7.5v-12.449219c0-4.144531-3.359375-7.5-7.5-7.5zm0 0"/><path d="m301.085938 198.5v-54.976562c0-10.300782-1.414063-20.503907-4.203126-30.324219-1.132812-3.984375-5.277343-6.300781-9.265624-5.164063-3.980469 1.128906-6.296876 5.277344-5.164063 9.261719 2.410156 8.488281 3.632813 17.3125 3.632813 26.226563v52.28125c-31.15625-2.476563-59.015626-19.640626-75.171876-46.589844-18.3125-30.550782-18.339843-68.558594-.066406-99.183594.015625-.023438.027344-.050781.039063-.070312 23.980469 5.265624 45.269531 19.730468 59.074219 40.347656 1.445312 2.164062 5.804687 5.273437 10.402343 2.0625 3.398438-2.371094 4.367188-6.960938 2.0625-10.402344-15.734375-23.507812-39.894531-40.101562-67.164062-46.402344.234375-4.792968-.648438-9.644531-2.691407-14.25-4.15625-9.375-12.652343-16.183594-22.726562-18.207031-10.265625-2.0625-20.820312-3.109375-31.378906-3.109375-87.378906 0-158.464844 71.085938-158.464844 158.464844v180.625c0 37.585937 30.578125 68.164062 68.164062 68.164062h121.785157v58.261719c0 17.359375-14.125 31.484375-31.484375 31.484375s-31.484375-14.125-31.484375-31.484375v-34.539063c0-4.140624-3.359375-7.5-7.5-7.5s-7.5 3.359376-7.5 7.5v34.539063c0 25.632813 20.855469 46.484375 46.484375 46.484375 25.632812 0 46.484375-20.851562 46.484375-46.484375v-58.261719h43.816406c37.585937 0 68.164063-30.578125 68.164063-68.164062v-115.75c0-11.066406-6.441407-20.550782-15.84375-24.839844zm.84375 140.589844c0 29.316406-23.851563 53.164062-53.164063 53.164062h-180.601563c-29.3125 0-53.164062-23.847656-53.164062-53.164062v-180.625c0-79.105469 64.359375-143.464844 143.464844-143.464844 9.566406 0 19.128906.945312 28.421875 2.8125 5.390625 1.085938 9.753906 4.578125 11.972656 9.582031 2.175781 4.90625 1.851563 10.355469-.890625 14.949219-21.109375 35.378906-21.078125 79.285156.082031 114.585938 19.574219 32.652343 54.015625 52.890624 92.128907 54.132812 6.589843.214844 11.75 5.609375 11.75 12.277344zm0 0"/><path d="m178.894531 256.046875h-40.859375c-8.363281 0-15.171875 6.804687-15.171875 15.171875v20.429688c0 19.628906 15.972657 35.597656 35.601563 35.597656s35.601562-15.96875 35.601562-35.597656v-20.429688c0-8.367188-6.804687-15.171875-15.171875-15.171875zm.171875 35.597656c0 11.359375-9.242187 20.601563-20.601562 20.601563s-20.601563-9.238282-20.601563-20.597656c0 0 .078125-20.601563.171875-20.601563 0 0 41.03125.074219 41.03125.171875zm0 0"/></svg>