<?xml version="1.0" encoding="iso-8859-1"?>
<!-- Generator: Adobe Illustrator 19.0.0, SVG Export Plug-In . SVG Version: 6.00 Build 0)  -->
<svg xmlns="http://www.w3.org/2000/svg" xmlns:xlink="http://www.w3.org/1999/xlink" version="1.1" id="Layer_1" x="0px" y="0px" viewBox="0 0 512 512" style="enable-background: new 0 0 512 512;" xml:space="preserve"  >
<g>
	<g>
		<path style="fill: #e0b629;" d="M48.047,49.412c-3.585,17.871,2.865,37.052,18.266,48.951    c15.401,11.899,35.589,13.298,51.977,5.319c3.585-17.871-2.865-37.052-18.266-48.951C84.623,42.832,64.435,41.433,48.047,49.412z"/>
		<path style="fill: #fadc60;" d="M31.238,121.037c11.127,14.437,29.829,22.165,48.916,18.36    c19.087-3.805,33.396-18.114,38.136-35.715c-11.127-14.437-29.829-22.165-48.916-18.36    C50.287,89.128,35.978,103.437,31.238,121.037z"/>
		<g>
			<path style="fill: #c86d5c;" d="M81.617,468.429c-8.493,0-16.497-1.499-23.611-4.455c-11.153-4.636-19.491-12.587-24.111-22.992     c-4.682-10.546-5.197-23.202-1.488-36.601c2.243-8.105,10.626-12.859,18.736-10.612c8.104,2.243,12.856,10.631,10.612,18.735     c-4.978,17.983,4.744,22.024,7.938,23.351c17.787,7.398,54.707-3.933,77.77-44.422c4.162-7.306,13.461-9.855,20.766-5.694     c7.307,4.162,9.856,13.459,5.694,20.767C150.018,448.472,112.595,468.429,81.617,468.429z"/>
		</g>
		<path style="fill: #3a484a;" d="M164.915,488.476c0.123-0.073,0.248-0.144,0.373-0.215c7.733-4.35,13.256-11.75,14.673-20.508    c0.267-1.648,0.535-3.172,0.794-4.437l22.97-14.779l18.657,14.779c-1.73,6.74-3.162,13.95-3.981,21.343    c-1.251,11.291-10.784,19.838-22.144,19.838h-19.034l0,0.004h-7.876C160.598,504.5,157.375,492.915,164.915,488.476z"/>
		<g>
			<path style="fill: #c86d5c;" d="M180.765,463.316h41.617c6.04-23.427,15.713-41.231,15.855-41.505     c5.4-9.805,1.847-22.148-7.958-27.569c-9.795-5.41-22.128-1.888-27.558,7.897C201.888,403.662,187.657,429.637,180.765,463.316z"/>
		</g>
		<path style="fill: #b35948;" d="M230.279,394.242c-9.795-5.41-22.128-1.888-27.558,7.897c-0.669,1.224-10.001,18.267-17.215,42.406    c11.428,7.131,24.095,12.583,37.621,15.986c6.057-22.037,14.974-38.457,15.11-38.72    C243.637,412.005,240.084,399.662,230.279,394.242z"/>
		<path style="fill: #3a484a;" d="M347.086,488.476c-0.123-0.073-0.248-0.144-0.373-0.215c-7.733-4.35-13.256-11.75-14.673-20.508    c-0.267-1.648-0.535-3.172-0.794-4.437l-22.97-14.779l-18.657,14.779c1.73,6.74,3.162,13.95,3.981,21.343    c1.251,11.291,10.784,19.838,22.144,19.838h19.034l0,0.004h7.876C351.402,504.5,354.625,492.915,347.086,488.476z"/>
		<g>
			<path style="fill: #c86d5c;" d="M331.235,463.316h-41.617c-6.04-23.427-15.713-41.231-15.855-41.505     c-5.4-9.805-1.847-22.148,7.958-27.569c9.795-5.41,22.128-1.888,27.558,7.897C310.112,403.662,324.343,429.637,331.235,463.316z"/>
		</g>
		<path style="fill: #b35948;" d="M281.721,394.242c9.795-5.41,22.128-1.888,27.558,7.897c0.669,1.224,10.001,18.267,17.215,42.406    c-11.428,7.131-24.095,12.583-37.621,15.986c-6.057-22.037-14.974-38.457-15.11-38.72    C268.363,412.005,271.916,399.662,281.721,394.242z"/>
		<ellipse style="fill: #c86d5c;" cx="256" cy="340.435" rx="104.55" ry="99.15"/>
		<path style="fill: #fbc4ac;" d="M435.673,321.605c-8.537-1.634-17.185-2.416-25.65-2.568l-14.962,21.408l17.408,19.275    c5.227,0.223,10.465,0.782,15.591,1.766c11.013,2.111,21.651-5.116,23.752-16.129    C453.913,334.344,446.686,323.707,435.673,321.605z"/>
		<path style="fill: #fbc4ac;" d="M76.327,321.605c8.537-1.634,17.185-2.416,25.65-2.568l14.962,21.408L99.531,359.72    c-5.227,0.223-10.465,0.782-15.591,1.766c-11.013,2.111-21.651-5.116-23.752-16.129C58.087,334.344,65.314,323.707,76.327,321.605    z"/>
		<g>
			<path style="fill: #c86d5c;" d="M412.469,359.72c-34.583-1.583-68.698,11.094-69.094,11.237c-2.355,0.893-4.781,1.32-7.166,1.32     c-8.191,0-15.916-4.994-18.992-13.104c-3.969-10.475,1.269-22.179,11.734-26.168c1.888-0.721,39.414-14.779,81.072-13.967     C411.901,328.782,413.403,342.505,412.469,359.72z"/>
		</g>
		<g>
			<path style="fill: #c86d5c;" d="M99.531,359.72c34.583-1.583,68.698,11.094,69.094,11.237c2.355,0.893,4.781,1.32,7.166,1.32     c8.191,0,15.916-4.994,18.992-13.104c3.969-10.475-1.269-22.179-11.734-26.168c-1.888-0.721-39.414-14.779-81.072-13.967     C100.099,328.782,98.597,342.505,99.531,359.72z"/>
		</g>
		<path style="fill: #f2c42c;" d="M101.084,111.238C126.156,50.355,186.074,7.5,256,7.5s129.844,42.855,154.916,103.738H101.084z"/>
		<circle style="fill: #b35948;" cx="423.482" cy="195.283" r="64.963"/>
		<circle style="fill: #fbc4ac;" cx="423.482" cy="195.283" r="32.481"/>
		<circle style="fill: #b35948;" cx="88.518" cy="195.283" r="64.963"/>
		<circle style="fill: #fbc4ac;" cx="88.518" cy="195.283" r="32.481"/>
		<path style="fill: #fbc4ac;" d="M256,409.458c-40.018,0-72.576-30.053-72.576-66.993s32.557-66.993,72.576-66.993    c40.018,0,72.576,30.053,72.576,66.993S296.018,409.458,256,409.458z"/>
		<path style="fill: #b35948;" d="M194.783,359.172c3.969-10.475-1.269-22.179-11.734-26.168    c-1.589-0.606-28.414-10.655-61.699-13.343c-4.586,13.085-7.692,27.036-9.793,40.05c30.053,1.218,56.718,11.119,57.068,11.245    c2.355,0.893,4.781,1.32,7.166,1.32C183.983,372.276,191.707,367.282,194.783,359.172z"/>
		<path style="fill: #b35948;" d="M317.217,359.172c-3.969-10.475,1.269-22.179,11.734-26.168    c1.589-0.606,28.414-10.655,61.699-13.343c4.586,13.085,7.692,27.036,9.793,40.05c-30.053,1.218-56.718,11.119-57.068,11.245    c-2.355,0.893-4.781,1.32-7.166,1.32C328.017,372.276,320.293,367.282,317.217,359.172z"/>
		<path style="fill: #e3b098;" d="M256,275.472c-40.018,0-72.576,30.053-72.576,66.993c0,5.911,0.843,11.643,2.407,17.107    c21.816,8.321,45.467,12.893,70.169,12.893c24.702,0,48.353-4.572,70.168-12.893c1.565-5.464,2.407-11.196,2.407-17.107    C328.576,305.525,296.018,275.472,256,275.472z"/>
		<path style="fill: #f2c42c;" d="M224.612,339.517c0,0-5.153,50.147-4.138,72.478h-88.309c0,0-0.017-68.264,21.976-104.054    L224.612,339.517z"/>
		<path style="fill: #f2c42c;" d="M287.388,339.517c0,0,5.153,50.147,4.138,72.478h88.309c0,0,0.017-68.264-21.976-104.054    L287.388,339.517z"/>
		<path style="fill: #e0b629;" d="M357.86,307.941l-70.471,31.576c0,0,1.41,13.724,2.61,30.01    c29.287-5.103,56.378-16.677,79.741-33.195C366.751,325.975,362.88,316.111,357.86,307.941z"/>
		<path style="fill: #e0b629;" d="M142.261,336.332c23.363,16.518,50.454,28.091,79.741,33.195c1.2-16.285,2.61-30.009,2.61-30.009    l-70.471-31.576C149.12,316.111,145.249,325.975,142.261,336.332z"/>
		<path style="fill: #c86d5c;" d="M423.482,174.982c0,92.501-74.981,167.482-167.482,167.482S88.518,267.483,88.518,174.982    c0-22.564,4.466-44.094,12.566-63.745c0,0,49.351-30.654,154.916-30.654s154.916,30.654,154.916,30.654    C419.016,130.889,423.482,152.418,423.482,174.982z"/>
		<path style="fill: #fbc4ac;" d="M271.156,132.801c-9.48,4.891-20.831,4.891-30.311,0c-55.082-28.42-131.311-5.498-107.714,84.07    C158.991,315.027,256,310.385,256,310.385s97.01,4.642,122.869-93.515C402.466,127.303,326.237,104.381,271.156,132.801z"/>
	</g>
	<g>
		<path d="M184.566,195.671c-4.142,0-7.5,3.358-7.5,7.5v13.89c0,4.142,3.358,7.5,7.5,7.5s7.5-3.358,7.5-7.5v-13.89    C192.066,199.029,188.708,195.671,184.566,195.671z"/>
		<path d="M327.434,195.671c-4.142,0-7.5,3.358-7.5,7.5v13.89c0,4.142,3.358,7.5,7.5,7.5s7.5-3.358,7.5-7.5v-13.89    C334.934,199.029,331.576,195.671,327.434,195.671z"/>
		<path d="M376.659,140.144c-13.088-16.982-34.147-26.335-59.3-26.335c-16.846,0-34.012,4.263-49.643,12.328    c-3.593,1.854-7.645,2.834-11.716,2.834s-8.123-0.98-11.716-2.834c-15.631-8.065-32.797-12.328-49.643-12.328    c-25.155,0-46.215,9.352-59.302,26.334c-10.26,13.313-20.229,37.763-9.46,78.639c10.405,39.496,33.907,68.978,67.965,85.258    c26.944,12.879,52.807,13.88,60.092,13.88c1.377,0,2.752,0,4.131,0c7.288,0,33.146-1.001,60.086-13.878    c34.06-16.279,57.563-45.762,67.969-85.26C396.89,177.908,386.919,153.458,376.659,140.144z M371.617,214.96    c-22.057,83.721-98.46,87.96-113.552,87.959c-1.376,0-2.753,0-4.129,0c-15.092,0-91.497-4.241-113.552-87.959    c-7.294-27.688-4.93-50.393,6.836-65.662c10.183-13.213,27.024-20.49,47.421-20.49c14.463,0,29.251,3.686,42.765,10.658    c5.71,2.946,12.14,4.504,18.594,4.504s12.884-1.558,18.594-4.504c13.514-6.972,28.301-10.658,42.765-10.658    c20.395,0,37.235,7.277,47.419,20.492C376.545,164.57,378.911,187.274,371.617,214.96z"/>
		<path d="M280.648,225.973c-3.119-2.726-7.857-2.408-10.583,0.711c-0.998,1.142-2.532,1.796-4.209,1.796s-3.211-0.655-4.209-1.796    c-1.412-1.616-3.502-2.561-5.647-2.557c-2.139,0.004-4.236,0.944-5.647,2.557c-0.998,1.142-2.532,1.796-4.209,1.796    s-3.211-0.655-4.209-1.796c-2.726-3.119-7.464-3.437-10.583-0.711s-3.437,7.464-0.711,10.583c3.847,4.4,9.497,6.924,15.503,6.924    c3.503,0,6.882-0.864,9.856-2.453c2.974,1.589,6.353,2.453,9.856,2.453c6.006,0,11.656-2.524,15.503-6.924    C284.085,233.437,283.767,228.699,280.648,225.973z"/>
		<path d="M423.482,122.82c-0.139,0-0.281,0.004-0.42,0.005c-1.523-4.873-3.253-9.692-5.213-14.447    c-12.147-29.493-32.177-55.146-57.928-74.185c-3.331-2.462-8.027-1.759-10.49,1.572c-2.462,3.331-1.759,8.027,1.572,10.49    c17.931,13.257,32.827,30.016,43.817,49.16c-0.106-0.042-2.357-0.909-2.554-0.983c-24.699-9.347-50.833-14.727-76.994-17.921    c-19.653-2.4-39.479-3.427-59.273-3.427c-13.144,0-26.503,0.477-39.604,1.485c-25.999,2.001-51.852,6.155-76.943,13.323    c-7.424,2.121-14.751,4.585-21.943,7.395c-0.103,0.04-0.213,0.082-0.316,0.122c2.02-3.512,4.191-6.989,6.493-10.368    c0.061-0.089,0.11-0.184,0.166-0.275c11.205-16.405,25.422-30.656,42.095-42.033C192.538,24.59,223.677,15,256,15    c24.458,0,47.929,5.374,69.762,15.971c3.726,1.808,8.213,0.254,10.022-3.472c1.809-3.726,0.254-8.213-3.472-10.022    C308.42,5.88,282.746,0,256,0c-35.352,0-69.415,10.492-98.506,30.343c-14.539,9.921-27.362,21.848-38.18,35.367    c-3.687-6.503-8.643-12.23-14.705-16.914c-10.07-7.78-22.105-11.892-34.804-11.892c-8.636,0-17.295,1.994-25.041,5.765    c-2.104,1.025-3.61,2.973-4.07,5.269c-2.686,13.391-0.471,27.17,6.051,38.918c-10.975,7.515-19.128,18.785-22.75,32.23    c-0.608,2.26-0.127,4.675,1.302,6.529c4.479,5.812,10.098,10.706,16.418,14.41c-15.682,13.302-25.661,33.132-25.661,55.258    c0,39.956,32.507,72.462,72.463,72.462c6.025,0,11.987-0.747,17.796-2.22c10.255,16.89,23.285,31.917,38.456,44.44    c-0.845,1.556-1.656,3.152-2.432,4.784c-22.183-3.742-45.224-4.759-67.415-0.511c-14.862,2.845-24.938,17.657-22.102,32.524    c2.823,14.796,17.757,24.926,32.534,22.089c4.53-0.87,9.407-1.421,14.519-1.639c8.582-0.394,17.963,0.134,27.844,1.528    c-2.562,18.496-2.988,34.323-3.047,40.568c-10.68,10.635-26.936,21.16-43.171,21.161c-3.416,0-6.502-0.532-8.928-1.541    c-2.542-1.057-6.798-2.825-3.588-14.424c3.343-12.076-3.763-24.621-15.838-27.964c-11.768-3.258-24.643,3.829-27.966,15.84    c-4.178,15.091-3.534,29.492,1.862,41.646c5.415,12.194,15.127,21.487,28.087,26.874c8.03,3.337,16.942,5.029,26.489,5.029    c34.495,0,69.833-21.522,93.087-56.434h6.097c1.378,1.188,2.782,2.34,4.211,3.456c-5.042,12.905-8.914,25.86-11.536,38.595    c-0.022,0.089-0.05,0.176-0.068,0.266c-0.262,1.28-0.548,2.876-0.85,4.743c-1.02,6.301-5.009,11.83-10.943,15.167    c-6.496,3.655-9.815,11.107-7.838,18.363c1.942,7.126,8.2,11.914,15.571,11.914l26.911-0.004    c15.199,0,27.923-11.397,29.598-26.512c0.715-6.454,1.989-13.282,3.789-20.296c1.68-6.518,3.804-13.159,6.322-19.81    c6.554,1.125,13.252,1.707,20.034,1.707s13.48-0.582,20.034-1.707c2.518,6.651,4.642,13.292,6.322,19.81    c1.799,7.014,3.074,13.842,3.788,20.296c1.675,15.115,14.399,26.512,29.599,26.512l26.91,0.004    c7.372,0,13.629-4.788,15.571-11.914c1.932-7.09-1.015-14.353-7.341-18.077c-5.839-3.434-10.328-8.592-11.44-15.454    c-0.268-1.67-0.518-3.36-0.917-5.005c-2.623-12.738-6.495-25.695-11.537-38.599c1.429-1.116,2.834-2.268,4.211-3.456h48.636    c4.112,0,7.458-3.312,7.5-7.423c0.015-1.467,0.132-20.344-3.052-43.332c9.88-1.393,19.262-1.922,27.867-1.527    c5.089,0.217,9.966,0.769,14.499,1.639c14.883,2.853,29.69-7.206,32.531-22.089c2.841-14.891-7.232-29.688-22.096-32.524    c-10.063-1.92-20.312-2.736-30.55-2.736c-11.733,0-24.111,1.094-36.87,3.246c-0.776-1.632-1.587-3.228-2.432-4.784    c15.171-12.523,28.201-27.55,38.456-44.44c5.809,1.473,11.771,2.22,17.796,2.22c39.956,0,72.463-32.506,72.463-72.462    S463.438,122.82,423.482,122.82z M425.34,219.117c3.742-14.39,5.642-29.267,5.642-44.135c0-1.175-0.012-2.356-0.036-3.542    c10.14,3.181,17.518,12.667,17.518,23.843c0,13.243-10.358,24.112-23.397,24.932C425.164,219.85,425.245,219.482,425.34,219.117z     M86.934,220.215c-13.04-0.82-23.397-11.689-23.397-24.932c0-11.178,7.377-20.664,17.518-23.843    c-0.024,1.186-0.036,2.367-0.036,3.542C81.018,190.226,82.997,205.486,86.934,220.215z M54.821,54.65    c4.768-1.804,9.881-2.746,14.984-2.746c9.35,0,18.214,3.03,25.633,8.762c6.393,4.938,11.122,11.445,13.815,18.958    c-0.874,1.344-1.716,2.709-2.553,4.078c-0.052,0.086-0.109,0.17-0.161,0.256c-11.665-6.408-25.574-8.594-38.632-5.991    c-2.667,0.532-5.263,1.242-7.775,2.119C55.73,72.41,53.861,63.506,54.821,54.65z M56.291,130.38    c-6.33-2.287-12.084-6.099-16.659-11.024c3.754-10.237,11.207-18.44,20.782-23.147c11.062-5.438,24.208-5.724,35.499-0.782    c1.147,0.502,2.268,1.059,3.365,1.664c-2.419,4.871-4.615,9.849-6.575,14.922c-1.379,3.569-2.628,7.174-3.765,10.809    c-0.22-0.002-0.439,0.004-0.659,0.005c-10.735,0.013-21.435,2.484-31.109,7.132C57.147,129.97,56.558,130.247,56.291,130.38z     M98.768,251.826c-3.373,0.612-6.798,0.92-10.25,0.92c-31.685,0-57.463-25.777-57.463-57.462    c0-23.741,14.475-44.162,35.061-52.911c5.244-2.23,10.831-3.661,16.5-4.242c0.749-0.077,2.31-0.196,2.337-0.198    c-0.976,4.524-1.769,9.089-2.382,13.69c-0.006,0.041-0.011,0.083-0.017,0.124c-0.18,1.358-0.344,2.72-0.492,4.084    c-18.986,3.096-33.526,19.605-33.526,39.453c0,22.046,17.936,39.981,39.981,39.981c1.053,0,2.104-0.056,3.151-0.138    c0.105,0.286,0.218,0.567,0.324,0.852C93.992,241.364,96.241,246.658,98.768,251.826z M283.99,396.144    c-8.716,3.813-18.301,5.813-27.99,5.813s-19.273-2-27.99-5.813c0.373-11.301,1.303-24.424,2.18-35.111    c0.339-4.138,1.082-8.258,1.082-12.419c0.012-0.132,0.024-0.257,0.036-0.386c0.266,0.038,0.534,0.062,0.801,0.099    c7.908,1.084,15.909,1.638,23.891,1.638c7.981,0,15.965-0.55,23.872-1.635c0.273-0.037,0.548-0.063,0.82-0.101    c0.01,0.108,0.02,0.214,0.03,0.324c0.379,4.106,1.088,8.358,1.088,12.481C282.686,371.72,283.617,384.843,283.99,396.144z     M212.853,402.477c-0.003,0.673-0.007,1.345-0.01,2.018h-73.05c0.284-8.849,1.182-24.567,3.995-41.427    c2.459-14.74,6.117-30.116,12.982-43.706l0.917,0.382c17.991,12.243,37.741,20.882,58.807,25.73    c-0.779,8.265-2.067,22.91-2.888,37.324C213.235,389.348,212.9,395.914,212.853,402.477z M82.528,354.121    c-6.855,1.311-13.664-3.311-14.973-10.169c-1.309-6.863,3.335-13.674,10.182-14.98c4.916-0.941,10.064-1.616,15.383-2.018    c-0.722,5.658-1.115,11.339-1.299,17.038c-0.082,2.924-0.1,5.851-0.047,8.776C88.594,353.097,85.502,353.549,82.528,354.121z     M106.782,352.088c-0.097-6.11,0.101-12.221,0.676-18.306c0.049-0.518,0.627-7.256,0.877-7.256    c9.059,0.146,18.533,0.98,28.294,2.49c-2.723,8.098-4.826,16.581-6.453,24.907C122.052,352.763,114.213,352.147,106.782,352.088z     M81.617,460.929c-7.561,0-14.536-1.306-20.732-3.881c-9.346-3.885-16.308-10.493-20.134-19.109    c-3.969-8.94-4.355-19.852-1.115-31.556c1.12-4.046,5.472-6.503,9.507-5.386c4.105,1.137,6.521,5.401,5.385,9.506    c-4.35,15.715,0.015,27.178,12.286,32.276c4.292,1.785,9.232,2.69,14.687,2.69c18.064-0.001,38.119-9.657,54.207-25.974h20.548    C132.719,449.797,103.022,460.929,81.617,460.929z M210.947,483.833c-0.831,7.504-7.146,13.164-14.689,13.164L169.347,497    c-0.302,0-0.865,0-1.099-0.858c-0.217-0.797,0.197-1.041,0.464-1.198l0.253-0.146c9.365-5.268,15.86-13.936,18.046-23.982h25.969    C212.095,475.257,211.415,479.61,210.947,483.833z M216.662,455.815h-26.486c2.023-7.994,4.587-16.171,7.598-24.232    c7.399,4.294,15.278,7.737,23.488,10.279C219.542,446.528,218.005,451.19,216.662,455.815z M233.02,429.482    c-9.106-2.091-17.921-5.433-26.11-9.987c0,0,13.543,0,13.563,0c3.986,0,7.371-3.306,7.489-7.278    c8.938,3.115,18.451,4.74,28.037,4.74s19.099-1.625,28.037-4.74c0.032,1.083,0.291,2.141,0.765,3.101    c1.252,2.532,3.898,4.177,6.724,4.177h13.563c-1.212,0.674-2.433,1.33-3.672,1.952c-0.046,0.023-0.092,0.045-0.138,0.068    c-14.014,6.988-29.629,10.569-45.279,10.569C248.265,432.084,240.543,431.21,233.02,429.482z M343.038,494.8l0.243,0.139    c0.274,0.162,0.689,0.406,0.472,1.203C343.518,497,342.955,497,342.653,497l-26.91-0.004c-7.543,0-13.858-5.659-14.689-13.164    c-0.468-4.223-1.148-8.576-2.033-13.017h25.969C327.174,480.862,333.669,489.53,343.038,494.8z M321.824,455.815h-26.486    c-1.343-4.626-2.88-9.288-4.6-13.954c8.21-2.542,16.088-5.984,23.488-10.279C317.237,439.642,319.801,447.821,321.824,455.815z     M299.156,404.495c-0.005-1.238-0.23-8.251-0.23-10.46c-0.637-17.452-2.436-38.105-3.42-48.56    c21.066-4.849,40.816-13.487,58.807-25.73l0.918-0.382c1.076,2.129,2.076,4.353,3.021,6.637c0.005,0.011,0.007,0.023,0.012,0.035    c4.906,11.827,7.847,24.434,9.949,37.034c2.813,16.86,3.711,32.578,3.995,41.427H299.156z M434.268,328.973    c6.849,1.312,11.486,8.122,10.177,14.979c-1.301,6.817-8.163,11.472-14.97,10.169c-2.976-0.572-6.068-1.024-9.249-1.354    c0.152-8.47-0.241-16.957-1.292-25.364c-0.019-0.149-0.034-0.301-0.053-0.45C424.199,327.356,429.349,328.031,434.268,328.973z     M403.665,326.527c0.148,1.016,0.301,2.027,0.428,3.058c0.003,0.023,0.005,0.046,0.008,0.069    c0.812,6.571,1.159,13.199,1.151,19.818c-0.001,0.866-0.021,1.743-0.034,2.617c-7.431,0.059-15.27,0.675-23.394,1.836    c-1.626-8.326-3.73-16.809-6.453-24.907C385.132,327.507,394.607,326.673,403.665,326.527z M292.432,330.776    c-23.844,5.574-49.023,5.574-72.864,0c-53.219-12.442-96.298-51.527-114.364-102.364c-12.806-36.034-12.103-76.36,1.876-111.937    c0.115-0.062,0.231-0.123,0.357-0.189c0.017-0.009,0.033-0.017,0.05-0.026c12.447-6.57,25.998-11.051,39.525-14.793    c14.417-3.987,29.124-6.909,43.931-9.008c21.536-3.053,43.311-4.376,65.057-4.376c16.256,0,32.522,0.75,48.697,2.391    c26.405,2.69,52.861,7.63,77.927,16.509c7.454,2.64,14.845,5.586,21.857,9.259c0.058,0.031,0.369,0.195,0.465,0.246    c2.078,5.281,3.855,10.65,5.352,16.099c8.604,31.331,7.324,65.2-3.502,95.825C388.729,279.249,345.651,318.334,292.432,330.776z     M423.482,252.746c-3.452,0-6.877-0.308-10.25-0.92c2.526-5.167,4.775-10.462,6.775-15.848c0.106-0.285,0.219-0.566,0.324-0.852    c1.047,0.082,2.098,0.138,3.151,0.138c22.046,0,39.981-17.936,39.981-39.981c0-19.848-14.54-36.356-33.526-39.453    c-0.148-1.365-0.312-2.726-0.492-4.084c-0.005-0.041-0.011-0.083-0.017-0.124c-0.613-4.602-1.406-9.168-2.382-13.693    c30.032,1.847,53.898,26.865,53.898,57.354C480.945,226.968,455.167,252.746,423.482,252.746z"/>
	</g>
</g>















</svg>
