<?xml version="1.0" encoding="iso-8859-1"?>
<!-- Generator: Adobe Illustrator 19.0.0, SVG Export Plug-In . SVG Version: 6.00 Build 0)  -->
<svg version="1.1" id="Capa_1" xmlns="http://www.w3.org/2000/svg" xmlns:xlink="http://www.w3.org/1999/xlink" x="0px" y="0px"
	 viewBox="0 0 512.001 512.001" style="enable-background:new 0 0 512.001 512.001;" xml:space="preserve">
<path style="fill:#F9AF6E;" d="M344.658,20.931c-31.608,18.243-56.911,39.035-76.905,59.326
	c48.377,49.095,65.638,95.255,65.638,95.255c10.251,24.878,12.242,51.133,7.289,75.685h108.3
	c9.776-34.723,21.859-103.084-0.301-186.441C436.759,19.915,384.754-2.21,344.658,20.931z"/>
<path style="fill:#F59249;" d="M355.391,175.512c0,0-19.849-53.081-76.635-105.94c-3.831,3.566-7.503,7.133-11.004,10.686
	c48.377,49.095,65.638,95.255,65.638,95.255c10.251,24.878,12.242,51.133,7.29,75.685h22.035
	C367.659,226.642,365.64,200.384,355.391,175.512z"/>
<path style="fill:#FCCC92;" d="M192.848,20.931c-40.006-23.089-92.08-1.1-104.022,43.824
	c-22.16,83.357-10.077,151.719-0.301,186.441h254.19c4.943-24.553,2.924-50.812-7.324-75.685
	C335.391,175.512,300.933,83.313,192.848,20.931z"/>
<path style="fill:#F9AF6E;" d="M108.827,64.755c7.731-29.082,32.018-48.395,59.462-52.405C135.16,7.477,98.705,27.596,88.826,64.755
	c-22.16,83.358-10.077,151.719-0.302,186.441h20.001C98.75,216.474,86.667,148.112,108.827,64.755z"/>
<path style="fill:#F27524;" d="M474.641,248.55c-10.913,0-397.07,0-407.716,0c-18.944,0-33.116,17.933-27.929,37.724
	c5.768,22.004,14.589,42.769,25.966,61.83c0.134,0.047,0.272,0.097,0.406,0.145c37.328,62.432,102.197,106.495,177.835,115.403
	c20.712-1.539,7.991-2.457,28.215-1.819c0,0,12.636,2.023,11.464,1.819c-5.857-1.018,11.125-0.418,16.752,0
	c75.638-8.907,140.507-52.971,177.835-115.403c0.135-0.047,0.272-0.098,0.406-0.145c15.537-26.029,27.103-58.992,26.946-69.915
	C505.187,263.435,494.037,248.55,474.641,248.55z"/>
<path style="fill:#EC5123;" d="M85.671,347.249c-0.134-0.047-0.272-0.098-0.406-0.145C69.748,321.11,58.16,288.12,58.319,277.189
	c-0.329-13.303,8.573-25.197,21.321-28.638c-4.691,0-8.092,0-12.715,0c-18.944,0-33.116,17.933-27.929,37.724
	c5.768,22.004,14.589,42.769,25.966,61.83c0.134,0.047,0.272,0.097,0.406,0.145c37.328,62.432,102.197,106.495,177.835,115.403
	c4.81-0.357,9.704-0.936,14.678-1.747C184.66,451.521,122.07,408.126,85.671,347.249z"/>
<path style="fill:#ADADAD;" d="M303.186,462.651c1.172,0.204-11.464-1.819-11.464-1.819c-16.054-0.506-7.191-0.558-20.153,1.024
	c1.413,0.226,12.411,1.986,11.314,1.795c-5.856-1.018,11.125-0.418,16.752,0c3.472-0.409,6.912-0.917,10.338-1.472
	C304.408,462.012,299.661,462.039,303.186,462.651z"/>
<path style="fill:#8DCE55;" d="M100.717,485.654v5.752c0,4.979,4.036,9.016,9.016,9.016h28.425c19.508,0,35.47-15.962,35.47-35.47
	v-14.769h-37.442C116.677,450.185,100.717,466.146,100.717,485.654z"/>
<path style="fill:#6DC82A;" d="M121.372,491.406v-5.752c0-19.508,15.962-35.47,35.47-35.47h-20.656
	c-19.508,0-35.47,15.962-35.47,35.47v5.752c0,4.979,4.036,9.016,9.016,9.016h20.656
	C125.409,500.423,121.372,496.386,121.372,491.406z"/>
<path style="fill:#BA7958;" d="M374.262,446.035c-52.571,35.469-125.206,13.753-179.542-20.462
	c-8.821-19.905-4.412-41.129-4.277-41.759c2.033-8.903-3.512-17.784-12.416-19.859c-8.93-2.089-17.851,3.471-19.933,12.399
	c-0.166,0.711-2.088,9.288-2.048,21.614c-78.458-57.108-128.98-59.035-131.188-59.089c-9.318-0.213-16.783,7.146-17.008,16.18
	c-0.229,9.165,7.015,16.78,16.18,17.008c0.292,0.008,19.687,1.132,53.186,16.952c-1.581,0.407-3.215,0.868-4.896,1.389
	l16.456,11.537c5.917-0.972,10.016-1.001,11.198-0.983c14.113,8.122,29.916,18.515,47.188,31.826
	c71.706,55.263,171.492,90.815,245.669,40.77c7.599-5.127,9.602-15.445,4.476-23.044
	C392.179,442.912,381.861,440.91,374.262,446.035z"/>
<path style="fill:#996459;" d="M394.289,472.441c0.373-0.317,0.732-0.645,1.071-0.988c0.033-0.033,0.132-0.142,0.256-0.278
	c0.281-0.298,0.556-0.6,0.812-0.915c0.052-0.064,0.177-0.23,0.32-0.423c0.212-0.279,0.422-0.56,0.615-0.85
	c0.069-0.105,0.207-0.329,0.349-0.567c0.154-0.253,0.308-0.507,0.448-0.767c0.001-0.001,0.002-0.003,0.002-0.004
	c0.082-0.153,0.21-0.415,0.333-0.674c0.114-0.238,0.229-0.476,0.331-0.719c0.086-0.204,0.198-0.503,0.299-0.78
	c0.078-0.215,0.157-0.431,0.226-0.649c0.001-0.002,0.002-0.006,0.003-0.008c0.083-0.263,0.177-0.606,0.255-0.912
	c0.047-0.183,0.094-0.366,0.134-0.55c0-0.002,0.001-0.005,0.002-0.007c0.07-0.32,0.135-0.693,0.187-1.021
	c0.024-0.157,0.049-0.314,0.068-0.472c0.063-0.503,0.104-1.064,0.119-1.505l0,0c0.017-0.509,0.01-1.025-0.018-1.51
	c-0.026-0.447-0.069-0.895-0.131-1.341c0-0.001,0-0.003-0.001-0.004c-0.008-0.055-0.016-0.109-0.024-0.164
	c-0.07-0.463-0.158-0.925-0.268-1.384c-0.003-0.013-0.006-0.025-0.009-0.038c-0.006-0.024-0.012-0.048-0.018-0.072
	c-0.117-0.474-0.253-0.944-0.413-1.41c-0.007-0.019-0.014-0.038-0.02-0.057c-0.001-0.003-0.002-0.005-0.003-0.007
	c-0.167-0.479-0.355-0.954-0.568-1.422c0-0.001-0.001-0.002-0.001-0.003c-0.004-0.008-0.008-0.016-0.011-0.024
	c-0.218-0.476-0.459-0.946-0.726-1.407c0,0-0.001-0.001-0.001-0.002c-1.221,2.118-2.913,4.006-5.075,5.465
	c-73.441,49.548-172.642,15.511-245.669-40.77c-15.512-11.955-29.84-21.555-42.822-29.271c-5.327-3.166-10.257-2.946-27.219,2.043
	c0.033,0.015,0.064,0.029,0.096,0.045c-1.4,0.361-2.848,0.771-4.327,1.221c-0.187,0.057-0.37,0.12-0.556,0.178l16.444,11.528h0.001
	c0.145-0.024,0.282-0.044,0.425-0.067c0.32-0.051,0.635-0.099,0.943-0.145c0.18-0.027,0.358-0.052,0.535-0.077
	c0.306-0.043,0.605-0.083,0.899-0.121c0.193-0.025,0.384-0.049,0.572-0.072c0.3-0.036,0.593-0.071,0.878-0.102
	c0.165-0.018,0.325-0.035,0.485-0.052c0.233-0.024,0.46-0.047,0.683-0.068c0.134-0.013,0.271-0.026,0.401-0.038
	c0.315-0.028,0.616-0.052,0.907-0.074c0.131-0.01,0.255-0.019,0.381-0.027c0.198-0.014,0.39-0.027,0.576-0.038
	c0.109-0.007,0.219-0.014,0.324-0.02c0.256-0.014,0.5-0.026,0.73-0.037c0.092-0.004,0.176-0.007,0.265-0.01
	c0.167-0.006,0.326-0.012,0.477-0.017c0.073-0.002,0.145-0.004,0.214-0.006c0.199-0.005,0.386-0.009,0.555-0.011
	c0.042-0.001,0.075-0.001,0.115-0.001c0.136-0.001,0.26-0.002,0.373-0.002c0.044,0,0.086,0,0.127,0c0.126,0,0.241,0.001,0.332,0.003
	c14.113,8.122,29.916,18.515,47.188,31.826c71.706,55.263,171.492,90.815,245.669,40.77c0.465-0.314,0.907-0.648,1.33-0.999
	C394.175,472.543,394.226,472.498,394.289,472.441z"/>
<path d="M24.092,331.372c-13.177,0-23.755,10.322-24.084,23.498c-0.161,6.436,2.194,12.549,6.631,17.212
	c4.408,4.633,10.347,7.285,16.721,7.477c1.06,0.079,17.747,1.552,46.164,14.373c-10.821,2.929-23.852,8.334-36.507,18.29
	c-3.255,2.561-3.818,7.276-1.257,10.533c1.48,1.881,3.679,2.863,5.899,2.863c1.623,0,3.258-0.525,4.632-1.606
	c21.149-16.637,43.92-18.337,50.149-18.477c27.581,15.425,47.365,31.477,56.107,37.948h-13.271
	c-23.382,0-42.405,19.023-42.405,42.405v5.66c0,9.028,7.344,16.373,16.373,16.373h27.973c22.128,0,42.405-17.32,42.405-43.665
	c30.269,18.121,61.148,30.569,90.948,36.513c4.058,0.814,8.012-1.825,8.822-5.888c0.811-4.062-1.826-8.012-5.888-8.822
	c-39.962-7.97-82.187-28.447-122.11-59.216c-78.233-60.29-127.026-62.264-127.523-62.277c-2.429-0.061-4.689-1.063-6.364-2.824
	c-1.675-1.761-2.564-4.068-2.503-6.499c0.122-4.891,4.198-8.871,9.087-8.871l0.236,0.003c1.032,0.026,14.183,0.517,37.039,8.458
	c0.252,0.122,0.499,0.253,0.765,0.346c31.442,11.044,61.991,29.076,89.157,48.851c2.285,1.663,5.311,1.901,7.827,0.614
	c6.612-3.379,2.421-9.075,5.755-25.724c2.588-12.901,20.607-8.567,17.894,3.315c-4.131,19.248,1.589,45.889,7.613,49.682
	c23.887,15.042,47.669,25.898,70.947,32.448c6.518,1.834,12.999,3.349,19.428,4.5c1.458,0.261,2.907,0.497,4.353,0.72
	c0.068,0.01,0.137,0.02,0.205,0.031c35.764,5.49,67.767-0.478,92.798-17.365c4.162-2.806,9.827-1.706,12.633,2.452
	c2.806,4.159,1.705,9.826-2.454,12.632c-22.153,14.947-48.328,22.525-77.8,22.525c-1.03,0-2.066-0.021-3.103-0.041l-0.201-0.004
	c-4.141-0.116-7.564,3.21-7.645,7.353c-0.081,4.141,3.211,7.564,7.353,7.645l0.2,0.004c1.135,0.022,2.269,0.044,3.396,0.044
	c32.516,0,61.513-8.441,86.19-25.09c11.016-7.432,13.931-22.44,6.499-33.457c-2.025-3.001-4.614-5.395-7.53-7.148
	c13.738-8.035,26.765-17.435,38.911-28.139c37.595-33.133,63.974-76.166,76.285-124.444c5.898-23.131-11.507-45.533-35.275-45.533
	h-15.177c3.835-15.447,7.866-36.83,9.344-62.348c0.24-4.135-2.918-7.682-7.053-7.921c-4.128-0.254-7.682,2.917-7.921,7.053
	c-1.536,26.497-5.935,48.292-9.849,63.216h-93.687c3.487-25.88-0.55-47.636-9.225-70.163c-1.303-3.385-17.946-45.179-62.003-91.275
	c20.888-20.083,44.416-37.646,70.034-52.269c17.174-9.801,37.511-10.918,55.795-3.063c0.05,0.021,0.102,0.043,0.152,0.063
	c18.454,7.451,31.982,22.676,37.115,41.772c6.85,25.482,10.871,51.545,11.951,77.463c0.172,4.139,3.652,7.339,7.806,7.182
	c4.139-0.172,7.354-3.667,7.182-7.806c-1.126-27.022-5.315-54.185-12.453-80.733c-6.358-23.656-23.087-42.516-45.907-51.757
	c-22.63-9.695-47.801-8.292-69.076,3.85c-26.786,15.29-51.383,33.678-73.219,54.711c-19.248-18.527-43.41-37.733-73.155-54.711
	c-21.274-12.143-46.446-13.545-69.075-3.85C104.33,19.703,87.6,38.564,81.241,62.22C60.42,139.673,69.352,204.518,78.43,241.049
	H67.853c-11.774,0-22.653,5.349-29.849,14.675c-7.169,9.291-9.577,21.119-6.607,32.452c4.294,16.382,10.284,32.272,17.856,47.442
	c-15.037-3.899-23.689-4.216-24.557-4.237C24.493,331.375,24.292,331.372,24.092,331.372z M164.623,465.517
	c0,15.111-12.294,27.404-27.404,27.404h-27.973c-0.756,0-1.372-0.616-1.372-1.372v-5.66c0-15.111,12.294-27.404,27.404-27.404
	h29.345L164.623,465.517L164.623,465.517z M95.725,66.115c5.132-19.096,18.661-34.321,37.114-41.772
	c0.051-0.021,0.102-0.042,0.152-0.063c18.285-7.855,38.621-6.74,55.795,3.063c43.795,24.997,74.962,55.003,95.748,79.889
	c22.149,26.62,38.349,55.396,43.496,69.121c0.029,0.078,0.061,0.156,0.092,0.233c8.343,20.026,11.315,42.128,7.913,64.464H93.904
	C84.941,206.902,75.042,143.055,95.725,66.115z M69.7,341.955c-10.513-18.081-18.514-37.441-23.793-57.584
	c-1.782-6.799-0.334-13.901,3.973-19.483c4.334-5.616,10.886-8.837,17.974-8.837l0,0c19.872,0,387.882,0,407.716,0
	c14.006,0,24.211,13.212,20.739,26.826c-1.231,4.826-2.622,9.586-4.152,14.284H240.869c-4.142,0-7.5,3.358-7.5,7.5
	s3.358,7.5,7.5,7.5h245.826c-5.351,13.224-11.896,25.827-19.478,37.695c-0.839-0.324-1.747-0.509-2.7-0.509H278.502
	c-4.142,0-7.5,3.358-7.5,7.5c0,4.142,3.358,7.5,7.5,7.5h178.666c-10.499,13.981-22.523,26.734-35.803,38.017
	c-1.026-0.528-2.187-0.831-3.421-0.831h-108.33c-4.142,0-7.5,3.358-7.5,7.5c0,4.142,3.358,7.5,7.5,7.5h93.292
	c-30.387,21.034-65.847,34.996-103.775,39.583c-3.96-0.312-7.909-0.768-11.794-1.362c-0.032-0.005-0.063-0.009-0.095-0.014
	c-1.289-0.198-2.57-0.41-3.842-0.638c-26.85-4.809-54.77-16.118-83.022-33.625c-7.745-19.836-1.528-36.198-2.609-43.737
	c-3.79-26.375-42.033-28.291-47.57-0.931c-0.307,1.514-0.82,4.345-1.249,8.193C124.602,367.285,97.573,352.079,69.7,341.955z"/>
<g>
</g>
<g>
</g>
<g>
</g>
<g>
</g>
<g>
</g>
<g>
</g>
<g>
</g>
<g>
</g>
<g>
</g>
<g>
</g>
<g>
</g>
<g>
</g>
<g>
</g>
<g>
</g>
<g>
</g>
</svg>
