<svg id="Layer_1" enable-background="new 0 0 512 512" height="512" viewBox="0 0 512 512" width="512" xmlns="http://www.w3.org/2000/svg"><g><g><path clip-rule="evenodd" d="m296.52 245.735c43.952-7.946 91.406 3.308 125.472 33.791 27.032 24.148 40.562 55.819 40.562 87.489l-138.423 27.598-138.423-27.598c0-9.953 1.328-19.879 3.983-29.606 4.661-16.938 13.361-33.169 26.128-47.477 3.22-3.591 6.694-7.069 10.423-10.406 19.971-17.871 44.545-29.125 70.278-33.791z" fill="#ffe07d" fill-rule="evenodd"/></g><g><path clip-rule="evenodd" d="m421.992 279.526c27.032 24.148 40.562 55.819 40.562 87.489h-17.824c-17.993-135.842-218.629-139.009-240.266 0 0 0-17.4 0-18.756 0 0-9.953 1.328-19.879 3.983-29.606 4.661-16.938 13.361-33.169 26.128-47.477 3.22-3.591 6.694-7.069 10.423-10.406 1.554-1.414 3.164-2.771 4.774-4.072 6.949-5.655 14.378-10.576 22.174-14.732 6.977-3.733 14.208-6.843 21.665-9.388 7.09-2.404 14.321-4.27 21.665-5.599 43.952-7.945 91.406 3.309 125.472 33.791z" fill="#ffc77d" fill-rule="evenodd"/></g><g><path clip-rule="evenodd" d="m256.41 309.415c37.399-31.84 98.044-31.84 135.443 0 18.699 15.892 28.049 36.76 28.049 57.6h-19.688c-18.784-90.232-142.589-74.086-153.521 0h-18.332c0-20.84 9.349-41.708 28.049-57.6z" fill="#ffc77d" fill-rule="evenodd"/></g><g><path clip-rule="evenodd" d="m288.272 338.54c19.801-15.722 51.917-15.722 71.718 0 9.886 7.861 14.829 18.182 14.829 28.475h-20.253c-9.802-31.472-57.058-23.442-60.476 0h-20.677c.001-10.293 4.944-20.614 14.859-28.475z" fill="#ffc77d" fill-rule="evenodd"/></g><g><path clip-rule="evenodd" d="m177.799 90.552h-42.229v76.065h42.229c14.575 0 27.286-8.342 33.67-20.473h202.642c9.66 0 17.541-7.918 17.541-17.56s-7.881-17.56-17.541-17.56h-202.642c-6.384-12.131-19.095-20.472-33.67-20.472z" fill="#a9aac9" fill-rule="evenodd"/></g><g><path clip-rule="evenodd" d="m113.566 69.91-12.259 69.561 12.259 53.33c0 9.303 7.598 16.91 16.892 16.91 9.293 0 16.891-7.606 16.891-16.91v-52.369-65.885-4.637c0-9.303-7.598-16.91-16.891-16.91s-16.892 7.607-16.892 16.91z" fill="#ffc77d" fill-rule="evenodd"/></g><g><path clip-rule="evenodd" d="m177.771 166.617c14.604 0 27.315-8.342 33.698-20.473h202.642c9.66 0 17.541-7.918 17.541-17.56 0-3.817-1.215-7.352-3.305-10.236-3.192 4.411-8.389 10.208-14.236 10.208h-197.388c-7.683 0-12.118-.17-16.157 6.475-5.141 8.54-10.988 11.113-22.795 11.113h-30.422v20.473z" fill="#8080a4" fill-rule="evenodd"/></g><g><path clip-rule="evenodd" d="m79.783 69.91v225.14c0 25.393 33.783 28.192 33.783-.961v-100.949c0-.113 0-.226 0-.339l-.028-122.637c-.65-8.851-7.994-17.164-16.863-17.164-9.265 0-16.892 7.607-16.892 16.91z" fill="#ffe07d" fill-rule="evenodd"/></g><g><path clip-rule="evenodd" d="m77.495 311.225c-31.467 2.743-45.336 33.225-38.161 55.79l79.175 19.85 83.977-19.85c7.937-24.092-6.694-53.047-38.161-55.79-4.435-23.979-22.541-36.477-41.155-37.354-19.97-.933-40.59 11.48-45.675 37.354z" fill="#b3e59f" fill-rule="evenodd"/></g><g><path clip-rule="evenodd" d="m147.038 334.327c-.028 11.452-1.582 22.452-4.435 32.688h59.883c7.937-24.092-6.694-53.047-38.161-55.79-.706-3.874-1.78-7.437-3.164-10.717-.395-.933-.819-1.838-1.243-2.715-6.073-12.216-16.524-19.766-28.021-22.65 9.519 16.542 15.14 36.845 15.14 58.844.001.114.001.227.001.34z" fill="#95d6a4" fill-rule="evenodd"/></g><g><path clip-rule="evenodd" d="m255.986 394.613 208.912 27.598v18.38c0 10.123-8.276 18.408-18.36 18.408h-381.076c-10.112 0-18.389-8.285-18.389-18.408v-18.38z" fill="#a9aac9" fill-rule="evenodd"/></g><g><path clip-rule="evenodd" d="m383.689 422.212v18.38c0 1.81-.254 3.535-.734 5.175-2.26 7.635-9.321 13.234-17.626 13.234h81.209c10.084 0 18.36-8.285 18.36-18.408v-18.38h-22.936-31.467-26.806z" fill="#8080a4" fill-rule="evenodd"/></g><g><path clip-rule="evenodd" d="m504.5 373.491v21.123c0 15.185-12.4 27.598-27.569 27.598h-12.033-22.936-281.506-113.382-12.034c-15.14 0-27.54-12.414-27.54-27.598v-21.123c0-3.563 2.909-6.475 6.44-6.475h93.27 3.531 109.71 252.158 25.422c3.56-.001 6.469 2.912 6.469 6.475z" fill="#ff9a9f" fill-rule="evenodd"/></g><g><path clip-rule="evenodd" d="m410.495 422.212h31.467 22.936 12.033c15.168 0 27.569-12.414 27.569-27.598v-21.123c0-3.563-2.909-6.475-6.469-6.475h-25.422-34.32v23.809c.001 16.881-2.683 31.387-27.794 31.387z" fill="#ff8086" fill-rule="evenodd"/></g><path d="m498.032 359.516h-28.219c-2.013-32.389-17.034-62.543-42.819-85.578-27.512-24.618-64.043-38.177-102.866-38.177-38.822 0-75.36 13.558-102.882 38.173-12.775 11.413-22.875 24.508-30.136 39.024-5.987-4.189-12.959-7.075-20.643-8.471-7.236-26.157-29.343-38.048-49.102-38.16-.096-.001-.189-.001-.285-.001-.004 0-.008 0-.012 0v-50.999c2.892 1.212 6.064 1.884 9.391 1.884 13.45 0 24.392-10.95 24.392-24.41v-18.685h22.95c15.365 0 29.516-7.738 37.936-20.472h67c4.142 0 7.5-3.357 7.5-7.5s-3.358-7.5-7.5-7.5h-71.266c-2.785 0-5.34 1.543-6.637 4.007-5.344 10.156-15.703 16.465-27.033 16.465h-22.95v-61.064h22.95c11.33 0 21.688 6.31 27.033 16.466 1.297 2.464 3.853 4.007 6.637 4.007h202.642c5.537 0 10.041 4.513 10.041 10.06 0 5.548-4.504 10.061-10.041 10.061h-95.982c-4.142 0-7.5 3.357-7.5 7.5s3.358 7.5 7.5 7.5h95.982c13.808 0 25.041-11.242 25.041-25.061s-11.233-25.06-25.041-25.06h-198.378c-8.42-12.733-22.572-20.473-37.936-20.473h-22.95v-13.143c0-13.459-10.942-24.409-24.392-24.409-6.749 0-12.865 2.758-17.286 7.207-4.415-4.419-10.271-7.207-16.497-7.207-13.45 0-24.392 10.95-24.392 24.409v231.799c-.309.911-.605 1.835-.876 2.783-13.618 2.535-25.081 9.989-32.663 21.363-6.709 10.064-9.666 22.107-8.536 33.661h-16.267c-7.686.001-13.94 6.269-13.94 13.975v21.123c0 19.354 15.719 35.099 35.041 35.099h4.533v10.88c0 14.286 11.613 25.908 25.888 25.908h381.076c14.259 0 25.86-11.622 25.86-25.908v-10.88h4.533c19.337 0 35.069-15.745 35.069-35.099v-21.123c0-7.706-6.266-13.974-13.968-13.974zm-376.966-288.079v-1.527c0-5.188 4.213-9.409 9.391-9.409 5.179 0 9.392 4.221 9.392 9.409v122.892c0 5.188-4.213 9.41-9.392 9.41-5.178 0-9.391-4.222-9.391-9.41zm110.176 213.679c51.225-45.813 134.551-45.813 185.753.003 22.545 20.141 35.776 46.325 37.782 74.396h-27.741c-2.027-21.164-12.611-40.759-30.322-55.812-19.443-16.553-45.22-25.669-72.583-25.669s-53.14 9.116-72.578 25.665c-17.716 15.056-28.3 34.652-30.327 55.815h-9.477c1.332-11.619-1.391-23.584-7.882-33.432-.455-.691-.927-1.365-1.412-2.027 6.497-14.57 16.159-27.657 28.787-38.939zm133.412 47.55c-10.897-8.652-25.289-13.417-40.523-13.417s-29.625 4.765-40.519 13.414c-9.201 7.296-15.063 16.64-16.992 26.853h-30.306c2.004-16.716 10.684-32.259 24.957-44.39 34.661-29.51 91.058-29.51 125.724.004 14.269 12.127 22.948 27.67 24.952 44.386h-30.335c-1.925-10.205-7.775-19.548-16.958-26.85zm1.51 26.85h-84.092c1.752-5.613 5.457-10.815 10.864-15.102 17.202-13.658 45.19-13.657 62.387-.004 5.394 4.29 9.092 9.493 10.841 15.106zm-278.881-289.607c0-5.188 4.213-9.409 9.392-9.409 4.74 0 9.392 5.417 9.392 10.937v121.364 75.765c-6.683 2.023-13.154 5.448-18.783 10.362v-209.019zm-36.058 264.266c4.24-6.36 12.353-14.208 26.921-15.479 3.327-.29 6.062-2.745 6.707-6.021 4.585-23.266 22.517-31.412 36.424-31.35 13.799.079 31.422 8.314 35.673 31.266.614 3.314 3.365 5.813 6.723 6.105 11.875 1.035 21.701 6.591 27.668 15.644 4.874 7.393 6.718 16.494 5.276 25.176h-67.417v-39.101c0-4.143-3.358-7.5-7.5-7.5s-7.5 3.357-7.5 7.5v11.696l-11.452-5.159c-3.778-1.706-8.218-.02-9.919 3.758-1.701 3.776-.019 8.217 3.758 9.918l17.613 7.934v10.954h-68.885c-1.184-8.538.914-17.846 5.91-25.341zm445.775 60.438c0 11.082-9.003 20.099-20.069 20.099h-284.077c-4.142 0-7.5 3.357-7.5 7.5s3.358 7.5 7.5 7.5h264.543v10.88c0 6.015-4.872 10.908-10.86 10.908h-381.075c-6.004 0-10.888-4.894-10.888-10.908v-10.88h101.221c4.142 0 7.5-3.357 7.5-7.5s-3.358-7.5-7.5-7.5h-120.754c-11.05 0-20.041-9.017-20.041-20.099v-20.098h482z"/></g></svg>