<svg  viewBox="0 0 61 60"  xmlns="http://www.w3.org/2000/svg"><g id="020---Good-Sleep" fill="none"><g id="Icons" transform="translate(0 16)"><path id="Shape" d="m58.37 42.11c-1.28 1.43-3.6 1-5.2-.07-.7-.45-1.27-1.28-2.1-1.48-.8329437-.0569331-1.6671737.0906878-2.43.43-10.06 2.72-25.91 2.63-35.81.37-1.21-.28-2.95-1.2-4.16-.72-.76.3-1.32 1.1-2 1.52-2.97 1.78-5.67.52-5.67-1.83 0-1.9 1.44-2.64 2.22-4.1.67-1.24-.3-2.66-.68-3.85-2.25336463-7.3702083-2.03564042-15.275002.62-22.51.58-1.56 0-2.09-1-3.28-2.72-3.39-.46-6.82 3.63-5.17 1.51.62 2.43 2.31 4.18 2 1.4-.26 2.78-.77 4.19-1 9.0241933-1.59583314 18.236775-1.82842301 27.33-.69 2.91.37 5.64 1.16 8.49 1.73 1.76.35 2.68-1.36 4.19-2 4-1.62 6.62 1.75 3.32 5.53-1 1.18-1 1.9-.49 3.39 2.5367781 7.3129181 2.624531 15.2528013.25 22.62-.41 1.2-1.27 2.62-.09 3.69 1.36 1.31 2.69 3.75 1.21 5.42z" fill="#02a9f4"/><path id="Shape" d="m54.57 42.71c2.33-1.13 1.58-4.16-.41-6-1.18-1.07-.32-2.49.09-3.69 2.3872129-7.3857323 2.2994379-15.348684-.25-22.68-.55-1.49-.56-2.21.49-3.39 2.31-2.65 1.66-4.92.06-5.67 3.91-1.28 6.11 2.07 2.96 5.72-2.29 2.58.65 2.82 1.37 12.18.3747835 4.6691093-.1792158 9.3662073-1.63 13.82-.41 1.2-1.27 2.62-.09 3.69 3.47 3.23 1.69 7.49-2.59 6.02z" fill="#0377bc"/><g fill="#3f51b5"><path id="Shape" d="m8.91 25c-.59 9.27-3.22 9.38-3.82 0z"/><path id="Shape" d="m8.91 25h-3.82c-.12010819-1.9981968-.12010819-4.0018032 0-6h3.82c.12010819 1.9981968.12010819 4.0018032 0 6z"/><path id="Shape" d="m8.91 19h-3.82c.59-9.27 3.22-9.38 3.82 0z"/></g></g><g id="Layer_11" fill="#000"><path id="Shape" d="m2.4 25.08c-3.18542385 8.3188212-3.18542385 17.5211788 0 25.84.13360307.3491053.0426982.7443439-.23 1-3.64 3.35-2.44 8 1.67 8 1.85428189-.0738126 3.60596684-.8706857 4.88-2.22.25840135-.2678845.65052827-.3580737 1-.23 10.22 3.27 30.42 3.27 40.64 0 .3494717-.1280737.7415987-.0378845 1 .23 2.06 2.12 5.59 3.11 7.62 1.23s1.08-5.07-1.06-7c-.2584022-.2635068-.3506609-.647918-.24-1 3.2141652-8.3718825 3.1963409-17.6405416-.05-26-.1145516-.3400953.0024455-.7152926.29-.93 2.13-2 3-5.19 1.06-7s-5.62-.86-7.62 1.23c-.2655944.2548763-.6497411.3432301-1 .23-1.6817419-.5199948-3.3953071-.9308496-5.13-1.23-.5522847-.0994113-1.0805887.2677153-1.18.82s.2677153 1.0805887.82 1.18c1.6495516.2874763 3.279425.6782451 4.88 1.17 1.0594559.3410787 2.2206884.0546413 3-.74 2-2 5.28-2.25 5.28 0-.0945274 1.1406146-.6419544 2.1958522-1.52 2.93-.9165004.7824684-1.2270373 2.0649455-.77 3.18 3.0101367 7.8582688 3.0101367 16.5517312 0 24.41-.4741397 1.1391015-.1865858 2.4530633.72 3.29.877881.7196736 1.4322209 1.7599607 1.54 2.89 0 2.32-3.27 2.08-5.29 0-.7734379-.804605-1.9389171-1.0959748-3-.75-9.79 3.14-29.61 3.14-39.42 0-1.06108286-.3459748-2.22656211-.054605-3 .75-2 2-5.29 2.28-5.29 0 .09224288-1.1463477.64405857-2.2066995 1.53-2.94.90406296-.83456 1.18800099-2.1462737.71-3.28-2.98024918-7.8258677-2.98024918-16.4741323 0-24.3.47413975-1.1391015.18658579-2.4530633-.72-3.29-.87510534-.7279642-1.42247008-1.7758796-1.52-2.91 0-2.35 3.32-2 5.29 0 .77343789.804605 1.93891714 1.0959748 3 .75 6.34-2.06 15.91-2.67 22.71-2.39.5522847 0 1-.4477153 1-1s-.4477153-1-1-1c-7-.2-16.71.29-23.35 2.41-.34947173.1280737-.74159865.0378845-1-.23-1.99-2.08-5.53-3.06-7.55-1.18-1.59 1.47-1.63 4.56 1.06 7 .28999218.2789317.38456303.7045005.24 1.08z"/><path id="Shape" d="m10 52.89c.4890062.2484034 1.0868406.056561 1.34-.43 3.61-7.05 3.61-21.87 0-28.92-.2602914-.4740006-.8502415-.6552079-1.3317342-.4090516-.48149271.2461564-.68007171.8304882-.4482658 1.3190516 3.31 6.46 3.33 20.6 0 27.1-.2469243.4916536-.05031299 1.0904244.44 1.34z"/><path id="Shape" d="m7 49c3.17 0 3.1-10.75 2.91-14-.2-3.44-.86-8-2.91-8s-2.71 4.56-2.91 8c-.19 3.22-.26 14 2.91 14zm1-9h-1.95c-.07000274-1.3324145-.07000274-2.6675855 0-4h1.95c.07000274 1.3324145.07000274 2.6675855 0 4zm-1.82 2h1.64c-.09473807 1.5271102-.36998807 3.0376285-.82 4.5-.45001193-1.4623715-.72526193-2.9728898-.82-4.5zm1.64-8h-1.64c.09473807-1.5271102.36998807-3.0376285.82-4.5.45001193 1.4623715.72526193 2.9728898.82 4.5z"/><path id="Shape" d="m31 26c0-.5522847-.4477153-1-1-1h-1.59l2.3-2.29c.2884599-.2860905.3751619-.7182668.219371-1.0934815-.155791-.3752147-.5231059-.6188811-.929371-.6165185h-4c-.5522847 0-1 .4477153-1 1s.4477153 1 1 1h1.59l-2.3 2.29c-.2884599.2860905-.3751619.7182668-.219371 1.0934815.155791.3752147.5231059.6188811.929371.6165185h4c.5522847 0 1-.4477153 1-1z"/><path id="Shape" d="m43 21c0-.5522847-.4477153-1-1-1h-4.59l5.3-5.29c.2884599-.2860905.3751619-.7182668.219371-1.0934815-.155791-.3752147-.5231059-.6188811-.929371-.6165185h-7c-.5522847 0-1 .4477153-1 1s.4477153 1 1 1h4.59l-5.3 5.29c-.2884599.2860905-.3751619.7182668-.219371 1.0934815.155791.3752147.5231059.6188811.929371.6165185h7c.5522847 0 1-.4477153 1-1z"/><path id="Shape" d="m52 11c.5522847 0 1-.4477153 1-1 0-.55228475-.4477153-1-1-1h-6.59l7.3-7.29c.2884599-.28609046.3751619-.71826679.219371-1.09348151-.155791-.37521471-.5231059-.61888111-.929371-.61651849h-9c-.5522847 0-1 .44771525-1 1s.4477153 1 1 1h6.59l-7.3 7.29c-.2884599.28609046-.3751619.7182668-.219371 1.0934815.155791.3752147.5231059.6188811.929371.6165185z"/><path id="Shape" d="m25 34v1c0 .5522847.4477153 1 1 1s1-.4477153 1-1v-1c0-.5522847-.4477153-1-1-1s-1 .4477153-1 1z"/><path id="Shape" d="m39 34v1c0 .5522847.4477153 1 1 1s1-.4477153 1-1v-1c0-.5522847-.4477153-1-1-1s-1 .4477153-1 1z"/><path id="Shape" d="m33 44c2.7614237 0 5-2.2385763 5-5 0-.5522847-.4477153-1-1-1s-1 .4477153-1 1c0 1.6568542-1.3431458 3-3 3s-3-1.3431458-3-3c0-.5522847-.4477153-1-1-1s-1 .4477153-1 1c0 2.7614237 2.2385763 5 5 5z"/></g></g></svg>