<?xml version="1.0" encoding="iso-8859-1"?>
<!-- Generator: Adobe Illustrator 19.0.0, SVG Export Plug-In . SVG Version: 6.00 Build 0)  -->
<svg version="1.1" id="Capa_1" xmlns="http://www.w3.org/2000/svg" xmlns:xlink="http://www.w3.org/1999/xlink" x="0px" y="0px"
	 viewBox="0 0 491.312 491.312" style="enable-background:new 0 0 491.312 491.312;" xml:space="preserve">
<polygon style="fill:#ECECEC;" points="291.312,296 475.312,480 483.312,472 483.312,416 371.312,216 275.312,120 83.312,8 
	19.312,8 11.312,16 195.312,200 "/>
<path style="fill:#B6C1CE;" d="M371.312,216l-96-96l-21.432-12.504l-71.008,71.008c-1.504,1.504-2.92,3.112-4.4,4.648L195.312,200
	l96,96l16.84,16.84c1.536-1.48,3.144-2.888,4.648-4.4l70.688-70.688L371.312,216z"/>
<polygon style="fill:#FCD770;" points="11.312,16 195.312,200 291.312,296 475.312,480 483.312,472 483.312,448 315.312,280 
	211.312,176 43.312,8 19.312,8 "/>
<path style="fill:#FFC729;" d="M315.312,280l-104-104l-12.968-12.968l-15.48,15.48c-1.504,1.504-2.92,3.112-4.4,4.648L195.312,200
	l96,96l16.84,16.84c1.536-1.48,3.144-2.888,4.648-4.4l15.48-15.48L315.312,280z"/>
<path style="fill:#ECECEC;" d="M173.424,369.16L173.424,369.16c46.024-16.568,87.824-43.096,122.416-77.688l84.976-84.976
	c25.648-25.648,49.856-52.696,72.52-81.024l0,0c19.4-24.256,29.976-54.4,29.976-85.472l0,0c0-17.672-14.328-32-32-32l0,0
	c-31.072,0-61.216,10.576-85.48,29.984l0,0c-28.32,22.656-55.368,46.872-81.024,72.52l-84.968,84.968
	c-34.592,34.592-61.12,76.392-77.688,122.416l0,0c-7.168,19.92-10.84,40.936-10.84,62.112l0,0l0,0
	C132.488,380,153.496,376.336,173.424,369.16z"/>
<polygon style="fill:#39C3FC;" points="371.312,72 419.312,120 435.312,104 427.312,64 387.312,56 "/>
<polygon style="fill:#FCD770;" points="143.312,380 111.312,348 27.312,320 11.312,352 139.312,480 171.312,464 "/>
<path d="M443.992,106.632l-9.88-49.432l-49.424-9.888L360,72l59.312,59.312L443.992,106.632z M389.944,64.68l30.568,6.12
	l6.112,30.576l-7.312,7.312L382.624,72L389.944,64.68z"/>
<path d="M458.792,355.832l14.176-14.176l-11.312-11.312l-10.992,10.992l-17.792-31.768l0.088,0.088l16-16l-11.312-11.312
	l-12.832,12.832l-17.728-31.648l17.872-17.872l-11.312-11.312l-14.68,14.68l-17.728-31.648l5.216-5.216
	c25.752-25.752,50.344-53.232,73.104-81.68c20.48-25.584,31.752-57.72,31.752-90.48c0-22.056-17.944-40-40-40
	c-32.768,0-64.896,11.272-90.48,31.736c-28.448,22.76-55.928,47.352-81.68,73.104l-5.136,5.136l-31.184-18.192l14.136-14.136
	l-11.312-11.312l-17.112,17.112L197.36,65.256l11.608-11.608l-11.312-11.312l-14.584,14.592l-31.184-18.192l9.08-9.08
	l-11.312-11.312L137.6,30.4L85.48,0H16L0,16l184.288,184.288c-30.432,33.176-54.424,72.584-69.656,114.896
	c-2.752,7.64-4.832,15.432-6.576,23.296l-84.792-28.264l-21.68,43.36L64,416l-26.344,26.344l11.312,11.312l26.344-26.344
	l62.424,62.424l43.36-21.68l-28.264-84.792c7.864-1.752,15.664-3.832,23.296-6.576c42.312-15.232,81.72-39.224,114.896-69.656
	l184.288,184.28l16-16v-61.4L458.792,355.832z M40,16l61.656,61.656l11.312-11.312L62.624,16h18.52l181.168,105.68l-47,47.008
	l-86.344-86.344l-11.312,11.312L204,180l-8.688,8.688L22.624,16H40z M161.528,459.952l-20.64,10.32L86.624,416l10.344-10.344
	l-11.312-11.312l-10.344,10.344l-54.264-54.264l10.32-20.64l73.84,24.616c-0.992,7.328-1.608,14.704-1.744,22.144l-9.808,9.808
	l11.312,11.312l9.808-9.808c7.44-0.136,14.816-0.752,22.144-1.744L161.528,459.952z M170.712,361.632
	c-12.624,4.544-25.632,7.584-38.856,9.144l13.12-13.12l-11.312-11.312l-13.12,13.12c1.552-13.232,4.592-26.24,9.144-38.856
	c16.064-44.624,42.28-85.936,75.816-119.472l84.968-84.976c25.336-25.336,52.368-49.536,80.36-71.928
	C393.584,26.024,422.168,16,451.312,16c13.232,0,24,10.768,24,24c0,29.144-10.016,57.728-28.224,80.488
	c-22.392,27.992-46.592,55.024-71.928,80.36l-84.976,84.968C256.648,319.352,215.336,345.568,170.712,361.632z M302.624,296
	l8.688-8.688l86.344,86.344l11.312-11.312L322.624,276l46.872-46.872l105.816,188.96v10.6l-50.344-50.344l-11.312,11.312
	l61.656,61.656v17.376L302.624,296z"/>
<rect x="331.31" y="96" width="16" height="16"/>
<rect x="291.31" y="136" width="16" height="16"/>
<rect x="251.31" y="176" width="16" height="16"/>
<rect x="211.31" y="216" width="16" height="16"/>
<rect x="171.31" y="256" width="16" height="16"/>
<rect x="379.31" y="144" width="16" height="16"/>
<rect x="339.31" y="184" width="16" height="16"/>
<rect x="299.31" y="224" width="16" height="16"/>
<rect x="259.31" y="264" width="16" height="16"/>
<rect x="219.31" y="304" width="16" height="16"/>
<g>
</g>
<g>
</g>
<g>
</g>
<g>
</g>
<g>
</g>
<g>
</g>
<g>
</g>
<g>
</g>
<g>
</g>
<g>
</g>
<g>
</g>
<g>
</g>
<g>
</g>
<g>
</g>
<g>
</g>
</svg>
