<svg id="Layer_1" enable-background="new 0 0 511.757 511.757" height="512" viewBox="0 0 511.757 511.757" width="512" xmlns="http://www.w3.org/2000/svg"><g><g><g><path d="m378.046 105.519v-1.586c0-48.577-39.746-87.816-88.446-87.318l-69.598.712c-48.34.495-87.13 39.976-86.646 88.192v74.626c0 67.395 54.776 122.029 122.345 122.029 67.569 0 122.345-54.634 122.345-122.029z" fill="#f0b86c"/><path d="m289.6 16.615-22.667.232c45.294 3.278 81.113 40.972 81.113 87.086v1.586 74.626c0 62.329-46.852 113.738-107.345 121.115 4.916.599 9.921.914 15 .914 67.569 0 122.345-54.634 122.345-122.029v-74.626-1.586c0-48.577-39.746-87.816-88.446-87.318z" fill="#e8a54a"/><path d="m322.506 340.622h-133.254c-24.182 0-43.786-19.604-43.786-43.786 0-24.182 19.604-43.786 43.786-43.786h133.255c24.182 0 43.786 19.604 43.786 43.786-.001 24.182-19.604 43.786-43.787 43.786z" fill="#f0b86c"/><path d="m322.506 253.049h-30c24.182 0 43.786 19.604 43.786 43.786 0 24.182-19.604 43.786-43.786 43.786h30c24.182 0 43.786-19.604 43.786-43.786 0-24.182-19.604-43.786-43.786-43.786z" fill="#e8a54a"/><g><g><g><path d="m130.824 504.501v-111.467c0-35.149 28.631-63.642 63.949-63.642h122.852c35.318 0 63.949 28.494 63.949 63.642v111.467h-50.631l-75.065-28-75.065 28z" fill="#a0e2f7"/><path d="m130.824 504.501v-111.467c0-35.149 28.631-63.642 63.949-63.642h122.852c35.318 0 63.949 28.494 63.949 63.642v111.467" fill="none"/><path d="m255.879 378.319c-50.743 0-61.426-48.927-61.426-48.927h20.642c9.05-1.092 17.347-7.462 17.347-17.245v-38.893h46.874v38.893c0 9.691 8.345 16.081 17.347 17.245h20.642s-12.783 48.927-61.426 48.927z" fill="#ffe6d1"/></g><g><path d="m346.691 108.337v87.97c0 50.025-40.658 90.578-90.812 90.578-50.154 0-90.812-40.553-90.812-90.578v-87.97z" fill="#ffe6d1"/><path d="m316.691 108.337v87.97c0 44.928-32.797 82.209-75.812 89.341 4.88.809 9.89 1.237 15 1.237 50.154 0 90.812-40.553 90.812-90.578v-87.97z" fill="#ffdec2"/></g></g></g></g><path d="m321.588 75.692h-.441l-61.407-66.502c-2.081-2.254-5.641-2.254-7.722 0l-61.407 66.501h-.441l-49.059-18.278c-3.534-1.317-7.297 1.297-7.297 5.068v49.847c0 2.899 2.35 5.249 5.249 5.249h233.631c2.899 0 5.249-2.35 5.249-5.249v-49.847c0-3.771-3.763-6.385-7.297-5.068z" fill="#ffe600"/><g><path d="m370.647 57.413-22.703 8.459v46.457c0 2.899-2.35 5.249-5.249 5.249h30c2.899 0 5.249-2.35 5.249-5.249v-49.848c-.001-3.771-3.763-6.384-7.297-5.068z" fill="#f7df00"/></g><ellipse cx="255.879" cy="71.281" fill="#ff6a69" rx="14.533" ry="21.34"/><g><path d="m180.814 504.501v-105.762s46.369 1.571 74.89-20.42c0 0 30.971 22.339 75.24 20.42v105.763h-150.13z" fill="#3ac0ee"/></g><g><path d="m255.704 378.319 39.72 16.405s-37.319 47.582-77.69-1.745c0 0 38.145-14.66 37.97-14.66z" fill="#ffe600"/><path d="m256.054 378.319s44.882 36.27 129.574 10.171c5.248-1.617 8.333-7.005 7.126-12.35-3.927-17.389-17.585-52.824-63.89-55.918-4.835-.323-9.281 2.629-10.767 7.23-4.977 15.403-20.642 49.518-62.043 50.867z" fill="#ff6a69"/><path d="m392.754 376.141c-3.927-17.389-17.585-52.824-63.89-55.918-3.637-.243-7.053 1.368-9.156 4.14 29.796 10.478 39.786 37.34 43.046 51.778 1.207 5.344-1.878 10.732-7.126 12.349-15.927 4.908-30.445 7.609-43.522 8.762 19.582 1.835 44.157.287 73.522-8.762 5.247-1.617 8.332-7.005 7.126-12.349z" fill="#ff514f"/><path d="m255.704 378.319s-44.883 36.272-129.578 10.17c-5.245-1.617-8.329-7.002-7.123-12.344 3.926-17.388 17.582-52.828 63.891-55.922 4.835-.323 9.281 2.629 10.767 7.23 4.976 15.402 20.642 49.517 62.043 50.866z" fill="#ff6a69"/></g></g><g fill="#060606"><path d="m256.2 242.681c9.86 0 19.72-3.727 27.227-11.18 6.865-6.816-3.703-17.461-10.568-10.645-9.185 9.12-24.13 9.121-33.317 0-6.865-6.817-17.434 3.828-10.568 10.645 7.505 7.454 17.365 11.18 27.226 11.18z"/><path d="m255.879 100.122c12.355 0 22.033-12.668 22.033-28.84s-9.678-28.84-22.033-28.84-22.033 12.668-22.033 28.84 9.678 28.84 22.033 28.84zm0-42.681c2.868 0 7.033 5.392 7.033 13.84s-4.165 13.84-7.033 13.84-7.033-5.392-7.033-13.84 4.165-13.84 7.033-13.84z"/><path d="m400.069 374.489c-1.19-5.27-2.84-10.456-4.904-15.412-3.72-8.93-17.567-3.165-13.848 5.767 1.733 4.162 3.119 8.519 4.12 12.95.345 1.524-.542 3.074-2.019 3.529-33.382 10.288-71.068 13.616-104.275.77 0 0 16.235-6.591 24.499-15.575 9.77-10.622 17.182-23.111 21.591-36.76.42-1.303 1.713-2.145 3.13-2.051 12.033.804 22.489 4.076 31.077 9.726 3.459 2.275 8.111 1.318 10.388-2.144 2.276-3.46 1.317-8.111-2.144-10.388-.528-.348-1.066-.682-1.604-1.015 5.055-8.096 7.711-17.341 7.711-27.051 0-14.478-5.948-27.646-15.708-37.021 17.749-22.687 27.461-50.751 27.461-79.68l-.102-117.652c0-8.553-8.511-14.806-16.663-12.325-17.658-25.5-47.105-41.045-78.297-41.045-6.806 0-13.615.134-20.421.204-4.089-4.428-7.642-8.975-14.183-9.314-6.553 0-10.466 5.288-14.485 9.64-7.083-.483-14.37.115-21.469.188-30.863.316-59.227 15.315-76.835 40.363-8.176-2.572-16.775 3.693-16.775 12.291 0 0 .087 69.535-.207 80.588-.254 9.579 14.735 10.124 14.995.399.165-6.189.228-12.57.243-18.391h16.221v71.229c0 19.097 5.505 36.934 15.008 52.023-2.408.825-4.733 1.817-6.957 2.973-14.755-18.051-23.429-40.502-24.532-63.852-.456-9.667-15.44-8.955-14.983.708 1.241 26.27 10.893 51.548 27.34 71.963-9.585 9.361-15.476 22.411-15.476 36.714 0 9.627 2.703 18.97 7.712 27.037-22.988 14.251-31.209 38.302-33.99 50.62-2.013 8.912 3.082 17.976 11.637 20.949v109.06c0 9.674 15 9.674 15 0v-104.888c12.611 3.054 24.279 4.763 34.99 5.471v99.415c0 9.674 15 9.674 15 0v-98.333c6.602-.242 16.768-1.021 28.073-3.341 23.821 25.459 56.983 25.467 81.27.621 7.843 1.645 16.489 2.75 25.787 2.894v98.161c0 9.674 15 9.674 15 0v-99.416c10.893-.72 22.775-2.473 35.631-5.625v105.04c0 9.674 15 9.674 15 0v-109.294c8.166-3.196 12.956-12.032 10.993-20.72zm-160.127-62.342v-19.057c10.538 1.721 21.336 1.721 31.874 0v19.058c0 12.763 11.909 24.745 24.847 24.745h9.59c-13.708 28.144-36.779 33.461-50.337 33.927-.012 0-.024.001-.037.001-.012 0-.024-.001-.036-.001-13.558-.465-36.63-5.782-50.338-33.927h9.589c13.005-.001 24.848-11.913 24.848-24.746zm118.85-15.312c0 7.431-2.197 14.475-6.361 20.519-7.087-2.517-14.797-4.062-23.067-4.615-7.088-.471-13.626 3.185-16.97 9.152h-15.202c-5.079-.798-10.376-4.126-10.376-9.745v-22.742c16.637-5.516 31.312-15.355 42.685-28.176 17.035 3.311 29.291 18.112 29.291 35.607zm-12.954-45.72c-2.128-1.079-4.349-2.011-6.648-2.794 9.499-15.087 15.002-32.92 15.002-52.014v-71.229h16.272l.083 55.067c-.002 25.797-8.748 50.821-24.709 70.97zm-56.162-227c25.306-.247 49.272 11.617 64.482 31.438l-30.801 11.476-39.572-42.854zm25.961 56.664c2.119 2.294 5.67 3.022 8.569 1.94l46.238-17.226v44.584h-229.129v-44.584l46.237 17.226c2.899 1.081 6.451.355 8.57-1.94l59.757-64.715zm-95.559-55.952 7.362-.075-39.039 42.277-30.666-11.425c14.938-19.158 37.695-30.525 62.343-30.777zm-47.512 100.251h166.625v71.229c0 45.81-37.374 83.078-83.312 83.078s-83.313-37.269-83.313-83.078zm-19.601 171.757c0-17.479 12.414-32.323 29.292-35.606 11.373 12.821 26.047 22.659 42.685 28.176v22.742c0 5.69-5.285 9-10.342 9.745h-15.237c-3.346-5.966-9.888-9.618-16.968-9.152-8.697.581-16.33 2.225-23.067 4.612-4.124-6.009-6.363-13.145-6.363-20.517zm-26.646 80.961c3.961-17.547 16.644-47.389 57.076-50.09.073-.005.146-.007.218-.007 1.333 0 2.513.823 2.912 2.059 7.59 23.493 21.472 44.245 45.908 52.414-19.642 7.532-54.663 14.385-104.098-.85-1.474-.454-2.359-2.003-2.016-3.526zm131.044 30.06c-8.133.215-16.189-3.022-24.045-9.595 7.78-2.659 15.546-6.19 22.61-10.885 7.76 4.648 15.963 8.332 24.509 11.295-5.782 4.431-13.893 8.964-23.074 9.185z"/><path d="m222.283 463.493c-4.142 0-7.5 3.358-7.5 7.5v33.509c0 9.674 15 9.674 15 0v-33.509c0-4.142-3.358-7.5-7.5-7.5z"/><path d="m255.879 447.262c-4.142 0-7.5 3.358-7.5 7.5v49.74c0 9.674 15 9.674 15 0v-49.74c0-4.142-3.358-7.5-7.5-7.5z"/><path d="m289.474 463.493c-4.142 0-7.5 3.358-7.5 7.5v33.509c0 9.674 15 9.674 15 0v-33.509c0-4.142-3.358-7.5-7.5-7.5z"/></g></g></svg>