<svg id="Capa_1" enable-background="new 0 0 512.002 512.002"  viewBox="0 0 512.002 512.002"  xmlns="http://www.w3.org/2000/svg"><g><g><path d="m439.418 145.833c-4.16 0-8.222.406-12.165 1.152 9.365-14.199 14.822-31.204 14.822-49.486 0-49.706-40.294-90-90-90s-90 40.294-90 90 40.294 90 90 90c10.001 0 19.62-1.634 28.608-4.645-4.067 8.497-6.348 18.013-6.348 28.062 0 35.944 29.139 65.083 65.083 65.083s65.083-29.139 65.083-65.083-29.139-65.083-65.083-65.083z" fill="#7ee6ff"/></g><g><path d="m159.928 7.5c-49.706 0-90 40.294-90 90 0 18.282 5.456 35.287 14.821 49.486-3.943-.746-8.005-1.152-12.165-1.152-35.945 0-65.083 29.139-65.083 65.083 0 35.944 29.139 65.083 65.083 65.083 35.945 0 65.083-29.139 65.083-65.083 0-10.049-2.281-19.565-6.348-28.062 8.988 3.011 18.607 4.645 28.608 4.645 49.706 0 90-40.294 90-90s-40.294-90-89.999-90z" fill="#7ee6ff"/></g><g><path d="m428.361 270.633c4.321-9.094 6.745-19.262 6.745-30 0-38.66-31.34-70-70-70-3.516 0-6.969.266-10.345.767 1.092-6.9 1.488-14.032 1.086-21.328-2.932-53.238-46.528-94.43-99.847-94.43-55.228 0-100 44.771-100 100 0 5.362.427 10.624 1.24 15.758-3.377-.5-6.83-.767-10.346-.767-38.66 0-70 31.34-70 70 0 10.738 2.425 20.906 6.745 30h-56.14c-11.046 0-20 8.954-20 20 0 11.046 8.954 20 20 20h457c11.046 0 20-8.954 20-20 0-11.046-8.954-20-20-20z" fill="#ccf7ff"/></g><g><g><path d="m257.552 255.623c-.517.008-1.033.02-1.552.02-49.867 0-91.203-36.502-98.76-84.243v.001c-3.377-.5-6.83-.767-10.346-.767-38.66 0-70 31.34-70 70 0 10.738 2.425 20.906 6.745 30h-56.14c-11.046 0-20 8.954-20 20s8.954 20 20 20h298.137c-33.438-.001-61.362-23.577-68.084-55.011z" fill="#9ef5ff"/></g></g><g><path d="m489.344 263.569c14.19-13.505 22.657-32.479 22.657-52.652 0-39.62-31.907-71.927-71.375-72.574 5.884-12.732 8.948-26.62 8.948-40.843 0-53.762-43.738-97.5-97.5-97.5-35.089 0-67.037 18.578-84.455 48.772-3.818-.412-7.693-.63-11.618-.63-3.91 0-7.788.214-11.624.621-17.418-30.188-49.363-48.763-84.449-48.763-53.762 0-97.5 43.738-97.5 97.5 0 14.222 3.065 28.11 8.949 40.843-39.469.647-71.375 32.954-71.375 72.574 0 20.173 8.467 39.147 22.657 52.653-12.861 2.296-22.657 13.554-22.657 27.064 0 15.164 12.336 27.5 27.5 27.5h42.995l-51.717 184.34c-1.119 3.988 1.207 8.128 5.195 9.247.678.19 1.359.281 2.03.281 3.277 0 6.289-2.166 7.217-5.476l52.853-188.393h64.421l-51.716 184.341c-1.119 3.988 1.207 8.128 5.195 9.247.678.19 1.359.281 2.03.281 3.277 0 6.289-2.166 7.217-5.476l52.853-188.393h64.421l-51.716 184.341c-1.119 3.988 1.207 8.128 5.195 9.247.678.19 1.359.281 2.03.281 3.277 0 6.289-2.166 7.217-5.476l52.853-188.393h64.421l-51.717 184.341c-1.118 3.988 1.208 8.128 5.195 9.247.678.19 1.359.281 2.03.281 3.277 0 6.288-2.166 7.218-5.476l52.854-188.393h64.421l-18.046 64.32c-1.118 3.988 1.208 8.128 5.195 9.247.678.19 1.359.281 2.03.281 3.277 0 6.288-2.166 7.217-5.476l19.183-68.372h64.42l-51.717 184.341c-1.118 3.988 1.208 8.128 5.195 9.247.678.19 1.359.281 2.03.281 3.277 0 6.288-2.166 7.218-5.476l52.867-188.442c14.427-.826 25.911-12.821 25.911-27.451.001-13.51-9.795-24.768-22.656-27.064zm-137.27-248.569c45.49 0 82.5 37.009 82.5 82.5 0 16.201-4.696 31.884-13.582 45.356-1.658 2.515-1.651 5.778.018 8.285 1.668 2.507 4.671 3.776 7.637 3.213 3.585-.678 7.209-1.021 10.771-1.021 31.751 0 57.583 25.832 57.583 57.584 0 22.315-13.056 42.785-33.28 52.216h-24.43c2.203-7.248 3.315-14.779 3.315-22.5 0-42.733-34.767-77.5-77.5-77.5-.621 0-1.244.008-1.867.023.174-2.504.262-5.013.262-7.514 0-49.794-34.033-91.784-80.058-103.945 15.219-22.84 40.755-36.697 68.631-36.697zm132.427 288.133h-457c-6.893 0-12.5-5.607-12.5-12.5s5.607-12.5 12.5-12.5h56.14c2.573 0 4.966-1.318 6.34-3.493 1.375-2.175 1.539-4.902.435-7.226-3.995-8.406-6.02-17.417-6.02-26.781 0-34.462 28.038-62.5 62.5-62.5 3.063 0 6.174.231 9.247.686 2.36.352 4.749-.446 6.428-2.142 1.68-1.697 2.451-4.091 2.078-6.45-1.03-6.509-1.369-13.151-1.005-19.743.771-13.996 4.522-27.248 11.151-39.388 1.985-3.635.647-8.192-2.988-10.177-3.637-1.985-8.192-.647-10.177 2.988-7.708 14.115-12.069 29.508-12.963 45.751-.248 4.493-.214 9.006.098 13.497-.624-.015-1.247-.023-1.869-.023-42.733 0-77.5 34.767-77.5 77.5 0 7.722 1.112 15.252 3.316 22.5h-24.43c-20.223-9.431-33.28-29.901-33.28-52.217 0-31.751 25.832-57.583 57.583-57.583 3.562 0 7.186.344 10.771 1.022 2.961.561 5.967-.707 7.637-3.214s1.676-5.771.018-8.285c-8.886-13.471-13.583-29.155-13.583-45.355 0-45.491 37.009-82.5 82.5-82.5 27.857 0 53.375 13.838 68.598 36.648-17.688 4.609-33.951 13.665-47.336 26.599-2.979 2.878-3.061 7.626-.182 10.605 2.877 2.978 7.625 3.061 10.605.182 17.28-16.697 40.147-25.892 64.389-25.892 51.005 0 92.5 41.495 92.5 92.5 0 4.871-.386 9.777-1.147 14.584-.374 2.358.397 4.753 2.077 6.45 1.679 1.696 4.056 2.497 6.429 2.143 3.073-.455 6.185-.686 9.247-.686 34.463 0 62.5 28.038 62.5 62.5 0 9.364-2.025 18.375-6.02 26.781-1.104 2.324-.939 5.051.435 7.226s3.768 3.493 6.34 3.493h56.14c6.893 0 12.5 5.607 12.5 12.5s-5.609 12.5-12.502 12.5z"/><path d="m373.596 406.143c-3.989-1.118-8.128 1.207-9.248 5.195l-25.568 91.136c-1.118 3.988 1.208 8.128 5.195 9.247.678.19 1.359.281 2.03.281 3.277 0 6.288-2.166 7.218-5.476l25.568-91.136c1.118-3.989-1.208-8.129-5.195-9.247z"/></g><g><g><g><ellipse cx="182.745" cy="227.482" fill="#ffa5bb" rx="27.03" ry="21.525"/></g><g><ellipse cx="329.257" cy="227.482" fill="#ffa5bb" rx="27.03" ry="21.525"/></g></g><g><path d="m198.498 213.232c-7.513 0-14.657-3.254-19.601-8.927-2.721-3.123-2.396-7.86.727-10.582 3.122-2.721 7.86-2.396 10.582.727 2.094 2.403 5.116 3.781 8.292 3.781s6.198-1.378 8.292-3.781c2.721-3.124 7.458-3.448 10.582-.727 3.123 2.721 3.448 7.458.727 10.582-4.944 5.674-12.088 8.927-19.601 8.927z"/></g><g><path d="m313.504 213.232c-7.513 0-14.656-3.253-19.601-8.926-2.722-3.123-2.396-7.86.727-10.582 3.122-2.721 7.859-2.396 10.582.727 2.095 2.403 5.116 3.782 8.292 3.782s6.198-1.378 8.293-3.782c2.723-3.123 7.459-3.448 10.582-.727 3.122 2.722 3.448 7.459.727 10.582-4.945 5.673-12.089 8.926-19.602 8.926z"/></g><g><ellipse cx="256.001" cy="218.416" rx="10.783" ry="11.5"/></g></g></g></svg>