<svg id="_x33_0" enable-background="new 0 0 64 64"  viewBox="0 0 64 64"  xmlns="http://www.w3.org/2000/svg"><path d="m45 2-12 22h-2l-7.07-12.96-2.14-3.92-2.79-5.12-13 7 10.05 18.42c1.28 2.35 1.95 4.98 1.95 7.66v26.92h14 14v-26.92c0-2.68.67-5.31 1.95-7.66l10.05-18.42z" fill="#ffeaa7"/><path d="m36 28h-8c-1.1 0-2 .9-2 2v12c0 2.21 1.79 4 4 4h2 2c2.21 0 4-1.79 4-4v-12c0-1.1-.9-2-2-2z" fill="#5cd6b3"/><path d="m31 24h2c.55 0 1 .45 1 1v3 5c0 .55-.45 1-1 1h-2c-.55 0-1-.45-1-1v-5-3c0-.55.45-1 1-1z" fill="#fcd770"/><path d="m29 39h6v2h-6z"/><path d="m44.598.648-12.192 22.352h-.813l-12.191-22.352-14.761 7.949 10.528 19.3c1.198 2.197 1.831 4.681 1.831 7.183v27.92h30v-27.92c0-2.502.633-4.986 1.832-7.184l10.528-19.3zm-14.598 44.352c-1.654 0-3-1.346-3-3v-12c0-.552.449-1 1-1h1v4c0 1.103.897 2 2 2h2c1.103 0 2-.897 2-2v-4h1c.551 0 1 .448 1 1v12c0 1.654-1.346 3-3 3zm3.001-12h-2.001v-8h2zm-16.077-6.061-9.565-17.536 11.239-6.052 1.859 3.408-3.972 2.383 1.029 1.715 3.901-2.341 1.178 2.161-4.109 2.465 1.029 1.715 4.038-2.423 1.178 2.161-4.246 2.547 1.029 1.715 4.175-2.505 1.178 2.161-4.383 2.63 1.029 1.715 4.312-2.587 1.178 2.16-4.52 2.712 1.029 1.715 3.51-2.106c-.005.082-.02.163-.02.248v2h-1c-1.654 0-3 1.346-3 3v12c0 2.757 2.243 5 5 5h1v2h-4v2h4v2h-4v2h4v2h-4v2h4v2h-12v-25.92c0-2.836-.718-5.65-2.076-8.141zm30.152 0c-1.358 2.491-2.076 5.305-2.076 8.141v25.92h-12v-4h4v-2h-4v-2h4v-2h-4v-2h4v-2h-3c2.757 0 5-2.243 5-5v-12c0-1.654-1.346-3-3-3h-1v-2c0-.567-.24-1.077-.62-1.441l1.383-2.535 4.723 2.834 1.029-1.715-4.794-2.876 1.178-2.161 4.586 2.752 1.029-1.715-4.657-2.794 1.178-2.161 4.449 2.669 1.029-1.715-4.52-2.712 1.178-2.161 4.312 2.587 1.029-1.715-4.383-2.63 2.27-4.161 11.239 6.052z"/></svg>