<svg  viewBox="0 0 128 128"  xmlns="http://www.w3.org/2000/svg"><g><g><path d="m116.27 114.98a19.99 19.99 0 0 1 -28.25 1.29l-27.23-24.85a19.982 19.982 0 0 1 -6.52-14.77c0-.55.02-1.1.07-1.65l4.67-56.54.99-11.96 39.86 3.29v.01l-.99 11.95-3.86 46.75 19.97 18.22a20 20 0 0 1 1.29 28.26z" fill="#a5cc2a"/><path d="m116.27 114.98a20 20 0 0 1 -25.91 3.13l26.68-29.2a20 20 0 0 1 -.77 26.07z" fill="#fd637b"/><path d="m73.435-5.873h12.001v39.996h-12.001z" fill="#da506a" transform="matrix(.082 -.997 .997 .082 58.805 92.124)"/><path d="m97.53 37.94-.49 5.98c-2.08 1.02-3.34 2.79-6.83 2.5-5.11-.42-4.78-4.41-9.89-4.83s-5.44 3.56-10.55 3.14-4.79-4.41-9.9-4.83a7.213 7.213 0 0 0 -2.65.23l.49-5.98a6.971 6.971 0 0 1 2.64-.23c5.11.42 4.78 4.41 9.89 4.83s5.44-3.56 10.55-3.14 4.78 4.41 9.89 4.83c3.5.29 4.76-1.49 6.85-2.5z" fill="#da506a"/><g fill="#fd637b"><path d="m97.04 43.92-.49 5.98c-2.08 1.01-3.34 2.79-6.83 2.5-5.11-.42-4.79-4.41-9.9-4.83s-5.44 3.56-10.55 3.14-4.78-4.41-9.89-4.83a7.008 7.008 0 0 0 -2.65.24l.49-5.99a7.213 7.213 0 0 1 2.65-.23c5.11.42 4.79 4.41 9.9 4.83s5.44-3.56 10.55-3.14 4.78 4.41 9.89 4.83c3.49.29 4.75-1.48 6.83-2.5z"/><path d="m68.95 82.05a19.028 19.028 0 0 1 -4.7 12.53l-3.46-3.16a19.982 19.982 0 0 1 -6.52-14.77c0-.55.02-1.1.07-1.65l.93-11.21a19.025 19.025 0 0 1 13.68 18.26z"/><path d="m71.315 12.429 1.489 3.916 4.07.993-3.265 2.626.313 4.178-3.506-2.293-3.877 1.589 1.098-4.044-2.709-3.196 4.184-.205z"/><path d="m88.982 14.145 1.488 3.916 4.07.994-3.264 2.626.313 4.178-3.506-2.293-3.877 1.588 1.097-4.043-2.708-3.196 4.184-.206z"/></g><path d="m68.5 114.98a19.99 19.99 0 0 1 -28.25 1.29l-27.23-24.85a19.982 19.982 0 0 1 -6.52-14.77c0-.55.02-1.1.07-1.65l4.67-56.54.99-11.96 39.86 3.29v.01l-.99 11.95-3.86 46.75 19.97 18.22a20 20 0 0 1 1.29 28.26z" fill="#bae543"/><path d="m68.5 114.98a20 20 0 0 1 -25.91 3.13l26.68-29.2a20 20 0 0 1 -.77 26.07z" fill="#fd637b"/><path d="m25.665-5.873h12.001v39.996h-12.001z" fill="#da506a" transform="matrix(.082 -.997 .997 .082 14.976 44.517)"/><path d="m49.76 37.94-.49 5.98c-2.08 1.02-3.34 2.79-6.83 2.5-5.11-.42-4.78-4.41-9.89-4.83s-5.44 3.56-10.55 3.14-4.79-4.41-9.9-4.83a7.213 7.213 0 0 0 -2.65.23l.49-5.98a6.971 6.971 0 0 1 2.64-.23c5.11.42 4.78 4.41 9.89 4.83s5.44-3.56 10.55-3.14 4.78 4.41 9.89 4.83c3.5.29 4.76-1.49 6.85-2.5z" fill="#da506a"/><path d="m49.27 43.92-.49 5.98c-2.08 1.01-3.34 2.79-6.83 2.5-5.11-.42-4.79-4.41-9.9-4.83s-5.44 3.56-10.55 3.14-4.78-4.41-9.89-4.83a7.008 7.008 0 0 0 -2.65.24l.49-5.99a7.213 7.213 0 0 1 2.65-.23c5.11.42 4.79 4.41 9.9 4.83s5.44-3.56 10.55-3.14 4.78 4.41 9.89 4.83c3.49.29 4.75-1.48 6.83-2.5z" fill="#fd637b"/><path d="m21.18 82.05a19.028 19.028 0 0 1 -4.7 12.53l-3.46-3.16a19.982 19.982 0 0 1 -6.52-14.77c0-.55.02-1.1.07-1.65l.93-11.21a19.025 19.025 0 0 1 13.68 18.26z" fill="#fd637b"/><path d="m23.545 12.429 1.488 3.916 4.07.993-3.264 2.626.313 4.178-3.506-2.293-3.877 1.589 1.097-4.044-2.708-3.196 4.184-.205z" fill="#fd637b"/><path d="m41.211 14.145 1.489 3.916 4.07.994-3.264 2.626.312 4.178-3.506-2.293-3.876 1.588 1.097-4.043-2.709-3.196 4.185-.206z" fill="#fd637b"/></g><g fill="#2c0d12"><path d="m116.16 85.427-19.335-17.64.249-3.017a1.75 1.75 0 0 0 -3.489-.288l-.319 3.874a1.752 1.752 0 0 0 .564 1.437l19.97 18.219c.311.284.592.588.879.888l-24.539 26.856c-.317-.253-.637-.5-.94-.778l-13.749-12.552c.026-.637.036-1.277.006-1.922a21.584 21.584 0 0 0 -5.4-13.369 20.691 20.691 0 0 0 -6.823-21.035 1.75 1.75 0 0 0 -2.242 2.687 17.233 17.233 0 0 1 6.208 13.263 16.873 16.873 0 0 1 -.145 2.159l-10.9-9.944 2.2-26.646a6.033 6.033 0 0 1 .88.005 5.684 5.684 0 0 1 3.9 1.957 9.3 9.3 0 0 0 12.365 1.019 5.86 5.86 0 0 1 8.082.668 9.127 9.127 0 0 0 5.991 2.873c.3.025.594.037.874.037a8.3 8.3 0 0 0 4.071-1.024l-.233 2.826a1.75 1.75 0 1 0 3.488.287l3.827-46.323c0-.048.006-.106.006-.154a1.749 1.749 0 0 0 -1.606-1.744l-39.86-3.29a1.75 1.75 0 0 0 -1.888 1.6l-5.367 64.93-3.834-3.5 4.783-57.842c0-.048.006-.106.006-.154a1.749 1.749 0 0 0 -1.606-1.744l-39.86-3.29a1.746 1.746 0 0 0 -1.888 1.6l-5.659 68.486c-.052.572-.077 1.163-.077 1.808a21.777 21.777 0 0 0 7.09 16.063l11.639 10.622a1.75 1.75 0 0 0 2.36-2.586l-6.971-6.362a20.811 20.811 0 0 0 4.062-12.337 20.882 20.882 0 0 0 -13.577-19.479l1.235-14.951a6.294 6.294 0 0 1 .878 0 5.68 5.68 0 0 1 3.9 1.957 9.306 9.306 0 0 0 12.367 1.023 5.859 5.859 0 0 1 8.081.668 9.132 9.132 0 0 0 5.992 2.873q.455.038.874.037a8.3 8.3 0 0 0 4.072-1.025l-1.252 15.203a1.753 1.753 0 0 0 .565 1.437l19.965 18.219c.31.283.593.586.88.886l-24.54 26.858c-.317-.253-.638-.5-.94-.778l-3.274-2.989a1.751 1.751 0 0 0 -2.36 2.586l3.273 2.988a21.568 21.568 0 0 0 14.631 5.687c.338 0 .676-.008 1.016-.023a21.759 21.759 0 0 0 20.148-16.6l11.974 10.933a21.564 21.564 0 0 0 14.632 5.688q.507 0 1.016-.023a21.754 21.754 0 0 0 13.673-37.8zm-47.6-67.656.643-.031a1.751 1.751 0 0 0 1.4-.828l.338-.547.229.6a1.752 1.752 0 0 0 1.221 1.078l.625.152-.5.405a1.747 1.747 0 0 0 -.648 1.494l.048.641-.538-.352a1.754 1.754 0 0 0 -1.621-.155l-.6.245.169-.621a1.752 1.752 0 0 0 -.354-1.591l-.188-.222-.019-.022zm-3.1 2.98-.605 2.228a1.75 1.75 0 0 0 2.345 2.078l3.026-1.24 2.736 1.79a1.75 1.75 0 0 0 2.7-1.595l-.182-2.439 7.707.635-.67 2.492a1.75 1.75 0 0 0 2.353 2.077l3.025-1.24 2.736 1.79a1.75 1.75 0 0 0 2.7-1.595l-.2-2.693 3.852.316-1.115 13.502c-.3.182-.59.368-.87.551a5.857 5.857 0 0 1 -8.076-.67 9.307 9.307 0 0 0 -12.365-1.022 5.852 5.852 0 0 1 -8.075-.667 9.113 9.113 0 0 0 -5.982-2.872c-.3-.027-.583-.036-.863-.036l.974-11.792zm24.724-.434a1.75 1.75 0 0 0 -.648 1.5l.048.641-.538-.352a1.748 1.748 0 0 0 -1.622-.155l-.595.244.168-.621a1.749 1.749 0 0 0 -.354-1.59l-.416-.491.643-.031a1.752 1.752 0 0 0 1.4-.828l.338-.547.228.6a1.754 1.754 0 0 0 1.221 1.078l.625.152zm4.348 23.067a5.849 5.849 0 0 1 -8.075-.665 9.111 9.111 0 0 0 -5.988-2.873c-.3-.025-.593-.036-.872-.036-.046 0-.087 0-.132.006-.142 0-.276.012-.412.02-.193.012-.384.024-.565.046-.132.016-.259.037-.385.059-.169.028-.335.059-.494.1-.122.029-.24.059-.356.092-.15.042-.3.087-.436.136-.111.038-.221.076-.327.118-.135.053-.265.109-.392.166-.1.045-.2.088-.3.135-.125.062-.245.126-.364.191-.087.047-.176.093-.259.141-.126.073-.246.147-.366.22-.068.043-.139.084-.206.127-.178.112-.35.224-.516.333a5.859 5.859 0 0 1 -8.081-.668 9.135 9.135 0 0 0 -5.988-2.872c-.278-.023-.549-.034-.816-.035h-.06l.2-2.475a6.47 6.47 0 0 1 .86.021 5.68 5.68 0 0 1 3.9 1.957 9.306 9.306 0 0 0 12.364 1.024 5.85 5.85 0 0 1 8.076.667 9.116 9.116 0 0 0 5.986 2.872 8.5 8.5 0 0 0 4.973-.99l-.135 1.649-.014.009c-.282.169-.552.348-.825.525zm-.5 5.984a5.847 5.847 0 0 1 -8.068-.67 9.137 9.137 0 0 0 -5.992-2.872c-.3-.024-.593-.036-.872-.036a9.246 9.246 0 0 0 -5.5 1.886 5.852 5.852 0 0 1 -8.075-.667 9.114 9.114 0 0 0 -5.984-2.873 8.061 8.061 0 0 0 -.877-.037l.2-2.459a6.41 6.41 0 0 1 .875.005 5.705 5.705 0 0 1 3.896 1.955 9.311 9.311 0 0 0 12.365 1.024 5.852 5.852 0 0 1 8.075.667 9.119 9.119 0 0 0 5.986 2.873c.3.025.583.035.857.036h.022.077c.27 0 .528-.015.777-.038.065-.006.127-.013.19-.021q.334-.038.643-.1l.148-.028a8.2 8.2 0 0 0 1.366-.42l.147-.063c.156-.068.307-.137.454-.21l.149-.074c.039-.021.081-.04.12-.06l-.136 1.638c-.293.176-.575.362-.851.544zm3.948-37.977-.7 8.472-1.15-.094a1.732 1.732 0 0 0 .127-1.094 1.752 1.752 0 0 0 -1.293-1.321l-3.177-.775-1.162-3.056a1.749 1.749 0 0 0 -3.124-.3l-1.719 2.781-3.265.16a1.733 1.733 0 0 0 -1.546 2.346l-2.64-.21a1.741 1.741 0 0 0 -1.042-2.657l-3.176-.776-1.162-3.056a1.751 1.751 0 0 0 -3.125-.3l-1.719 2.78-3.265.161a1.733 1.733 0 0 0 -1.413 2.621l-2.53-.21.7-8.473zm-51.224 31.993a5.848 5.848 0 0 1 -8.074-.665 9.118 9.118 0 0 0 -5.989-2.873c-.3-.025-.593-.036-.872-.036-.046 0-.086 0-.132.006-.142 0-.276.012-.412.02-.193.012-.384.024-.564.046-.133.016-.26.037-.386.059-.169.028-.334.059-.493.1-.122.029-.241.059-.357.092-.149.042-.294.087-.435.136-.111.038-.222.076-.328.118-.134.053-.263.108-.39.165-.1.046-.2.089-.3.137-.125.061-.244.125-.362.189-.088.048-.177.094-.261.143-.125.072-.243.144-.361.217-.07.043-.143.086-.212.129-.177.113-.348.224-.515.333a5.859 5.859 0 0 1 -8.081-.668 9.13 9.13 0 0 0 -5.987-2.872c-.3-.025-.589-.038-.875-.038l.205-2.475a6.624 6.624 0 0 1 .859.021 5.679 5.679 0 0 1 3.9 1.957 9.307 9.307 0 0 0 12.366 1.02 5.849 5.849 0 0 1 8.075.667 9.122 9.122 0 0 0 5.987 2.872 8.532 8.532 0 0 0 4.972-.99l-.134 1.649-.015.009c-.285.176-.56.355-.829.532zm-25.971-25.613.643-.031a1.752 1.752 0 0 0 1.4-.828l.338-.548.229.6a1.752 1.752 0 0 0 1.221 1.078l.625.152-.5.405a1.747 1.747 0 0 0 -.648 1.494l.048.641-.538-.352a1.756 1.756 0 0 0 -1.622-.155l-.595.245.168-.622a1.748 1.748 0 0 0 -.354-1.59l-.185-.218-.024-.029zm-3.1 2.98-.605 2.228a1.75 1.75 0 0 0 2.353 2.078l3.025-1.24 2.736 1.79a1.75 1.75 0 0 0 2.7-1.595l-.182-2.439 7.707.635-.672 2.492a1.749 1.749 0 0 0 2.353 2.073l3.026-1.24 2.735 1.79a1.75 1.75 0 0 0 2.7-1.595l-.2-2.693 3.852.316-1.113 13.505c-.3.183-.59.369-.871.552a5.857 5.857 0 0 1 -8.076-.67 9.306 9.306 0 0 0 -12.364-1.022 5.853 5.853 0 0 1 -8.076-.667 9.108 9.108 0 0 0 -5.982-2.872c-.3-.027-.581-.036-.862-.036l.974-11.792zm24.724-.434a1.75 1.75 0 0 0 -.648 1.5l.048.641-.538-.352a1.748 1.748 0 0 0 -1.622-.155l-.6.244.169-.621a1.752 1.752 0 0 0 -.354-1.59l-.417-.491.644-.031a1.752 1.752 0 0 0 1.4-.828l.337-.547.229.6a1.754 1.754 0 0 0 1.221 1.078l.625.152zm7.791-8.926-.7 8.472-1.15-.094a1.731 1.731 0 0 0 .126-1.094 1.752 1.752 0 0 0 -1.293-1.321l-3.176-.775-1.162-3.056a1.749 1.749 0 0 0 -3.124-.3l-1.721 2.783-3.266.161a1.733 1.733 0 0 0 -1.545 2.346l-2.628-.213a1.741 1.741 0 0 0 -1.042-2.657l-3.177-.776-1.162-3.06a1.749 1.749 0 0 0 -1.47-1.12 1.769 1.769 0 0 0 -1.654.822l-1.719 2.781-3.265.16a1.733 1.733 0 0 0 -1.413 2.621l-2.529-.21.7-8.473zm-30.77 70.659a17.3 17.3 0 0 1 -3.167 9.96l-2.063-1.884a18.264 18.264 0 0 1 -5.95-13.476c0-.539.021-1.027.064-1.505l.736-8.913a17.357 17.357 0 0 1 10.38 15.818zm26.824-32.682a5.847 5.847 0 0 1 -8.068-.67 9.137 9.137 0 0 0 -5.993-2.872c-.3-.024-.593-.036-.872-.036a9.243 9.243 0 0 0 -5.5 1.886 5.852 5.852 0 0 1 -8.075-.667 9.121 9.121 0 0 0 -5.984-2.873 7.728 7.728 0 0 0 -.877-.037l.2-2.459a6.411 6.411 0 0 1 .875.005 5.707 5.707 0 0 1 3.905 1.955 9.31 9.31 0 0 0 12.368 1.021 5.853 5.853 0 0 1 8.076.667 9.11 9.11 0 0 0 5.991 2.876c.292.024.571.035.841.036h.038c.049 0 .091-.006.139-.007.236 0 .465-.014.685-.034.089-.008.175-.018.261-.028q.285-.034.552-.084c.075-.014.15-.027.223-.043.236-.051.465-.109.682-.176h.009c.224-.07.434-.149.639-.232l.175-.074c.148-.064.293-.131.432-.2.052-.025.105-.051.155-.077s.081-.039.119-.059l-.135 1.637c-.303.177-.584.363-.861.545zm20.954 64.432a18.21 18.21 0 0 1 -21.866 3.892l23.763-26.006a18.215 18.215 0 0 1 -1.9 22.115zm47.77 0a18.206 18.206 0 0 1 -21.865 3.891l23.757-26a18.269 18.269 0 0 1 -1.892 22.109z"/><path d="m30.3 104.816a1.75 1.75 0 0 0 -2.359 2.586l3.018 2.754a1.75 1.75 0 0 0 2.359-2.586z"/><path d="m52.479 83.152a1.75 1.75 0 0 0 1.18-3.043l-4.033-3.679a1.75 1.75 0 0 0 -2.359 2.586l4.033 3.684a1.746 1.746 0 0 0 1.179.452z"/></g></g></svg>