<svg height="512pt" viewBox="-33 0 511 512" width="512pt" xmlns="http://www.w3.org/2000/svg"><path d="m156.359375 107.964844h-91.363281c-16.964844 0-30.71875-13.757813-30.71875-30.726563v-50.730469h152.804687v50.730469c0 16.96875-13.753906 30.726563-30.722656 30.726563zm0 0" fill="#b0f0ef"/><path d="m419.777344 45.511719h-392.769532c-10.496093 0-19.007812-8.507813-19.007812-19.003907 0-10.496093 8.511719-19.007812 19.007812-19.007812h392.769532c10.496094 0 19.003906 8.511719 19.003906 19.007812 0 10.496094-8.507812 19.003907-19.003906 19.003907zm0 0" fill="#ffd4a3"/><path d="m72.023438 26.507812c0-10.496093 8.507812-19.007812 19.003906-19.007812h-64.019532c-10.496093 0-19.007812 8.511719-19.007812 19.007812 0 10.496094 8.511719 19.003907 19.007812 19.003907h64.019532c-10.496094 0-19.003906-8.507813-19.003906-19.003907zm0 0" fill="#ffbe73"/><path d="m420.949219 269.851562c-2.511719-56.6875-48.269531-102.683593-104.941407-105.460937-24.902343-1.222656-48.101562 5.804687-67.117187 18.582031-15.421875 10.363282-35.574219 10.363282-51 0-19.015625-12.777344-42.210937-19.804687-67.113281-18.582031-56.671875 2.777344-102.429688 48.773437-104.945313 105.460937-.996093 22.519532 4.761719 43.625 15.394531 61.492188l-.011718.003906s.019531.023438.035156.039063c5.117188 8.589843 66.996094 83.867187 83.257812 145.957031 4.191407 16.007812 18.664063 27.15625 35.214844 27.15625 18.832032 0 34.324219-14.378906 36.265625-33.109375 1.730469-16.660156 8.242188-33.363281 27.402344-33.363281 19.164063 0 25.675781 16.703125 27.402344 33.363281 1.945312 18.730469 17.4375 33.109375 36.269531 33.109375 16.546875 0 31.023438-11.148438 35.214844-27.15625 16.257812-62.09375 78.136718-137.367188 83.253906-145.957031.015625-.015625.039062-.039063.039062-.039063l-.011718-.003906c10.628906-17.867188 16.390625-38.972656 15.390625-61.492188zm0 0" fill="#c2eafb"/><path d="m197.894531 182.972656c-19.015625-12.777344-42.214843-19.804687-67.117187-18.582031-56.671875 2.777344-102.429688 48.773437-104.941406 105.460937-1 22.519532 4.757812 43.625 15.390624 61.492188h-.011718s.023437.027344.039062.042969c5.113282 8.589843 66.992188 83.863281 83.253906 145.957031 4.191407 16.007812 18.664063 27.15625 35.214844 27.15625 18.832032 0 34.324219-14.378906 36.269532-33.109375 1.011718-9.757813 3.664062-19.527344 9.539062-25.953125-25.566406-88.015625-104.480469-137.09375-88.613281-200.507812 18.316406-73.191407 80.976562-61.957032 80.976562-61.957032zm0 0" fill="#91d4f2"/><path d="m223.390625 331.699219c-15.519531 0-28.097656-12.582031-28.097656-28.101563v-20.429687c0-4.234375 3.433593-7.671875 7.671875-7.671875h40.855468c4.238282 0 7.671876 3.4375 7.671876 7.671875v20.429687c0 15.519532-12.582032 28.101563-28.101563 28.101563zm0 0" fill="#454545"/><path d="m159.367188 304.523438c0-13.179688-13.417969-23.867188-29.972657-23.867188-16.550781 0-29.972656 10.6875-29.972656 23.867188 0 13.183593 13.421875 23.871093 29.972656 23.871093 16.554688 0 29.972657-10.6875 29.972657-23.871093zm0 0" fill="#ff899f"/><path d="m347.359375 304.523438c0-13.179688-13.417969-23.867188-29.972656-23.867188-16.550781 0-29.972657 10.6875-29.972657 23.867188 0 13.183593 13.421876 23.871093 29.972657 23.871093 16.554687 0 29.972656-10.6875 29.972656-23.871093zm0 0" fill="#ff899f"/><path d="m311.550781 282.996094v-12.449219c0-4.144531-3.359375-7.5-7.5-7.5-4.144531 0-7.5 3.355469-7.5 7.5v12.449219c0 4.140625 3.355469 7.5 7.5 7.5 4.140625 0 7.5-3.359375 7.5-7.5zm0 0"/><path d="m150.234375 282.996094v-12.449219c0-4.144531-3.355469-7.5-7.5-7.5-4.140625 0-7.5 3.355469-7.5 7.5v12.449219c0 4.140625 3.359375 7.5 7.5 7.5 4.144531 0 7.5-3.359375 7.5-7.5zm0 0"/><path d="m419.777344 0h-46.800782c-4.140624 0-7.5 3.355469-7.5 7.5s3.359376 7.5 7.5 7.5h46.800782c6.34375 0 11.507812 5.160156 11.507812 11.507812 0 6.34375-5.164062 11.503907-11.507812 11.503907h-392.769532c-6.347656 0-11.507812-5.160157-11.507812-11.503907 0-6.347656 5.160156-11.507812 11.507812-11.507812h313.089844c4.140625 0 7.5-3.355469 7.5-7.5s-3.359375-7.5-7.5-7.5h-313.089844c-14.617187 0-26.507812 11.890625-26.507812 26.507812 0 14.535157 11.765625 26.371094 26.273438 26.496094v24.234375c0 21.078125 17.148437 38.226563 38.222656 38.226563h91.363281c21.074219 0 38.222656-17.148438 38.222656-38.226563v-24.226562h225.195313c14.613281 0 26.503906-11.890625 26.503906-26.503907.003906-14.617187-11.886719-26.507812-26.503906-26.507812zm-240.195313 77.238281c0 12.808594-10.417969 23.226563-23.222656 23.226563h-91.363281c-12.804688 0-23.222656-10.417969-23.222656-23.226563v-24.226562h23.734374v27.476562c0 4.144531 3.355469 7.5 7.5 7.5 4.140626 0 7.5-3.355469 7.5-7.5v-27.476562h22.671876v27.476562c0 4.144531 3.355468 7.5 7.5 7.5 4.140624 0 7.5-3.355469 7.5-7.5v-27.476562h22.671874v27.476562c0 4.144531 3.355469 7.5 7.5 7.5 4.140626 0 7.5-3.355469 7.5-7.5v-27.476562h23.730469zm0 0"/><path d="m394.105469 191.613281c-20.847657-20.949219-48.453125-33.277343-77.730469-34.714843-25.679688-1.261719-50.464844 5.601562-71.664062 19.847656-12.949219 8.699218-29.6875 8.699218-42.636719 0-21.199219-14.242188-45.988281-21.105469-71.664063-19.847656-23.679687 1.160156-46.234375 9.386718-65.230468 23.789062-18.636719 14.132812-32.570313 33.179688-40.296876 55.085938-1.375 3.90625.675782 8.191406 4.582032 9.566406 3.90625 1.378906 8.1875-.671875 9.566406-4.578125 6.742188-19.128907 18.921875-35.769531 35.210938-48.121094 16.578124-12.570313 36.253906-19.746094 56.902343-20.761719 22.429688-1.105468 44.066407 4.890625 62.566407 17.316406 18.03125 12.113282 41.332031 12.113282 59.363281 0 18.5-12.429687 40.136719-18.414062 62.566406-17.316406 25.535156 1.253906 49.625 12.019532 67.832031 30.316406 18.203125 18.292969 28.851563 42.4375 29.984375 67.984376.898438 20.222656-2.902343 43.246093-20.980469 66.515624-17.921874 23.066407-63.59375 85.8125-77.457031 138.746094-3.320312 12.695313-14.816406 21.558594-27.957031 21.558594-14.863281 0-27.246094-11.34375-28.808594-26.382812-3.621094-34.882813-23.398437-40.089844-34.863281-40.089844s-31.238281 5.207031-34.859375 40.089844c-1.5625 15.039062-13.949219 26.382812-28.8125 26.382812-13.136719 0-24.632812-8.863281-27.957031-21.558594-13.863281-52.933594-60.03125-115.300781-77.453125-138.746094-15.789063-21.246093-21.878906-46.292968-20.984375-66.515624.1875-4.136719-3.019531-7.640626-7.160157-7.824219-4.140624-.226563-7.640624 3.023437-7.820312 7.160156-1.023438 23.003906 3.511719 47.980469 23.914062 76.109375 16.683594 23.007812 61.867188 83.484375 74.996094 133.617188 5.046875 19.289062 22.511719 32.757812 42.46875 32.757812 22.570313 0 41.371094-17.125 43.726563-39.835938 2.765625-26.636718 15.695312-26.636718 19.941406-26.636718 4.25 0 17.179687 0 19.945313 26.636718 2.355468 22.710938 21.152343 39.835938 43.726562 39.835938 19.957031 0 37.417969-13.46875 42.46875-32.757812 13.128906-50.132813 58.335938-110.589844 74.996094-133.613282 20.855468-28.832031 24.9375-53.105468 23.914062-76.109375-1.296875-29.289062-13.492187-56.957031-34.335937-77.90625zm0 0"/><path d="m223.390625 339.199219c19.628906 0 35.601563-15.96875 35.601563-35.601563v-20.429687c0-8.363281-6.804688-15.171875-15.171876-15.171875h-40.859374c-8.363282 0-15.171876 6.808594-15.171876 15.171875v20.429687c0 19.628906 15.972657 35.601563 35.601563 35.601563zm-20.601563-56.03125c0-.09375 41.203126-.09375 41.203126 0v20.429687c0 11.359375-9.242188 20.601563-20.601563 20.601563s-20.601563-9.238281-20.601563-20.601563zm0 0"/></svg>