<svg viewBox="-38 1 511 511.99818" xmlns="http://www.w3.org/2000/svg"><path d="m23.304688 345.015625c7.539062-8.160156 20.265624-8.667969 28.425781-1.128906 5.253906 4.851562 12.167969 7.242187 19.78125 7.683593.027343-14.925781 10.882812-28.039062 26.097656-30.433593 9.863281-1.550781 19.367187 1.75 26.09375 8.132812.085937-.089843.175781-.179687.261719-.269531 7.644531-8.058594 20.375-8.398438 28.4375-.753906 8.0625 7.644531 8.398437 20.375.757812 28.4375-20.25 21.355468-50.414062 35.285156-79.027344 35.285156-18.167968 0-35.71875-5.621094-49.695312-18.53125-8.164062-7.535156-8.667969-20.261719-1.132812-28.421875zm0 0" fill="#f5ebcd"/><path d="m293.226562 356.457031c27.496094-1.894531 50.394532 19.847657 50.394532 46.941407 0 9.390624 7.359375 14.589843 15.917968 17.050781 7.480469 2.152343 8.5625 12.234375 1.808594 16.105469-22.816406 13.070312-46.359375 13.898437-64.785156 13.898437-27.089844 0-48.835938-22.894531-46.9375-50.390625 1.597656-23.207031 20.398438-42.003906 43.601562-43.605469zm0 0" fill="#7f9ae6"/><path d="m242.21875 489.574219c-2.847656-10.648438-11.359375-68.300781 2.148438-90.992188 5.679687-9.546875 18.027343-12.679687 27.570312-7 9.445312 5.621094 12.613281 17.761719 7.179688 27.265625-3.703126 8.996094-1.378907 47.8125 1.96875 60.339844 2.867187 10.730469-3.507813 21.757812-14.242188 24.625-1.738281.464844-3.484375.6875-5.207031.6875-8.886719 0-17.015625-5.933594-19.417969-14.925781zm36.71875-70.417969c0-.003906 0-.007812.003906-.007812-.003906.003906-.003906.003906-.003906.007812zm0 0" fill="#f9f1da"/><path d="m242.21875 489.574219c2.402344 8.992187 10.535156 14.925781 19.417969 14.925781 1.722656 0 3.46875-.222656 5.207031-.6875 10.734375-2.867188 17.109375-13.894531 14.238281-24.625-.554687-2.082031-1.082031-4.894531-1.558593-8.167969l-39.5625 6.589844c.832031 5.519531 1.667968 9.753906 2.257812 11.964844zm0 0" fill="#495059"/><path d="m166.765625 498.082031c3.164063 0 6.371094-.746093 9.359375-2.320312 9.828125-5.179688 13.597656-17.347657 8.421875-27.175781-4.757813-9.027344-4.851563-17.378907-.289063-26.273438 4.019532-7.839844 10.910157-14.175781 14.558594-16.523438 9.34375-6.011718 12.046875-18.457031 6.039063-27.800781-6.007813-9.34375-18.453125-12.046875-27.796875-6.039062-8.789063 5.652343-20.921875 17.03125-28.601563 32.007812-10.617187 20.703125-10.445312 42.621094.496094 63.382813 3.605469 6.839844 10.585937 10.742187 17.8125 10.742187zm0 0" fill="#f9f1da"/><path d="m176.128906 495.761719c9.824219-5.179688 13.597656-17.347657 8.417969-27.175781-1.058594-2.003907-1.871094-3.976563-2.46875-5.929688l-38.464844 11.863281c1.335938 4.308594 3.113281 8.589844 5.339844 12.820313 3.605469 6.839844 10.589844 10.742187 17.816406 10.742187 3.160157 0 6.367188-.746093 9.359375-2.320312zm0 0" fill="#495059"/><path d="m271.667969 47.007812c57.453125 0 94.824219 39.453126 94.824219 88.117188 0 3.398438-.214844 6.753906-.625 10.050781-.78125 6.300781 1.734374 12.515625 6.410156 16.804688 13.753906 12.609375 22.136718 29.324219 22.136718 47.671875 0 21.9375 9.355469 42.511718 27.242188 49.460937 7.429688 2.886719 9.117188 12.714844 3.226562 18.082031-37.953124 34.570313-177.722656 64.285157-220.707031-25.429687 0 0-27.332031-35.058594-27.332031-116.640625 0-48.664062 29.867188-88.117188 94.824219-88.117188zm0 0" fill="#7f9ae6"/><path d="m167.257812 115.960938c11.417969 19.773437 3.152344 30.917968-10.445312 38.769531-13.597656 7.847656-27.378906 9.433593-38.796875-10.34375-11.417969-19.773438-15.394531-52.121094-1.796875-59.972657 13.597656-7.851562 39.621094 11.769532 51.039062 31.546876zm0 0" fill="#f0e4c0"/><path d="m117.902344 344.605469c0 49.601562 31.957031 89.816406 103.050781 89.816406 71.097656 0 103.054687-40.214844 103.054687-89.816406 0-49.605469-46.136718-89.816407-103.054687-89.816407-56.914063 0-103.050781 40.210938-103.050781 89.816407zm0 0" fill="#f9f1da"/><path d="m220.953125 434.421875c-20.855469 0-38.320313-3.484375-52.621094-9.628906 138.679688-8.304688 109.9375-139.101563 59.824219-169.785157 53.554688 3.222657 95.851562 42.101563 95.851562 89.597657 0 49.601562-31.957031 89.816406-103.054687 89.816406zm0 0" fill="#f0e4c0"/><path d="m31.632812 162.203125c39.0625-39.058594 117.597657-62.027344 206.589844-62.027344 58.261719 0 105.488282 47.230469 105.488282 105.492188s-47.226563 105.488281-105.488282 105.488281c-64.371094 0-160.574218 11.269531-206.589844-34.746094-31.5351558-31.539062-31.5351558-82.671875 0-114.207031zm0 0" fill="#f9f1da"/><path d="m295.785156 117.257812c28.851563 18.824219 47.925782 51.386719 47.925782 88.410157 0 58.257812-47.226563 105.488281-105.488282 105.488281-43.398437 0-101.261718 5.117188-148.460937-5.644531 232.742187 16.359375 236.054687-123.199219 206.023437-188.253907zm0 0" fill="#f5ebcd"/><path d="m292.050781 186.175781c0-9.742187-13.613281-17.640625-30.398437-17.640625-16.789063 0-30.398438 7.898438-30.398438 17.640625 0 9.742188 13.609375 17.640625 30.398438 17.640625 16.785156 0 30.398437-7.898437 30.398437-17.640625zm0 0" fill="#e88c98"/><path d="m127.277344 186.175781c0-9.742187-13.609375-17.640625-30.398438-17.640625-16.789062 0-30.398437 7.898438-30.398437 17.640625 0 9.742188 13.609375 17.640625 30.398437 17.640625 16.789063 0 30.398438-7.898437 30.398438-17.640625zm0 0" fill="#e88c98"/><path d="m161.96875 143.53125c20.917969 5.171875 42.886719-2.824219 55.582031-20.230469 4.207031-5.769531 4.542969-13.496093.851563-19.605469l-53.003906-87.703124c-4.347657-7.199219-13.179688-10.3125-21.082032-7.4375s-12.667968 10.941406-11.371094 19.25l15.773438 101.253906c1.097656 7.050781 6.320312 12.757812 13.25 14.472656zm0 0" fill="#f8e47c"/><path d="m144.316406 8.554688c7.902344-2.875 16.734375.238281 21.082032 7.4375l22.539062 37.296874c-13.058594 1.566407-30.324219.695313-52.15625-7.277343l-2.835938-18.207031c-1.296874-8.308594 3.46875-16.375 11.371094-19.25zm0 0" fill="#e88c98"/><path d="m148.71875 129.058594-5.222656-33.519532c35.441406 16.085938 60.328125 14.101563 75.898437 10.070313 2.578125 5.75 1.933594 12.507813-1.84375 17.6875-12.695312 17.410156-34.664062 25.40625-55.582031 20.230469-6.929688-1.710938-12.152344-7.417969-13.25-14.46875zm0 0" fill="#72cda2"/><path d="m275.277344 115.960938c-11.417969 19.773437-3.152344 30.917968 10.445312 38.769531 13.597656 7.847656 27.378906 9.433593 38.796875-10.34375 11.417969-19.773438 15.394531-52.121094 1.796875-59.972657-13.59375-7.851562-39.621094 11.769532-51.039062 31.546876zm0 0" fill="#f0e4c0"/><path d="m283.324219 340.921875c1.0625-11.058594 10.910156-19.15625 21.945312-18.101563.125.011719.25.015626.375.027344.882813-9.226562 5.882813-17.957031 14.34375-23.265625 13.046875-8.179687 29.847657-5.417969 39.664063 5.820313 5.453125-5.328125 9.097656-11.671875 9.875-18.78125 1.207031-11.042969 11.132812-19.011719 22.183594-17.808594 11.042968 1.207031 19.015624 11.136719 17.808593 22.183594-4.9375 45.1875-52.546875 72.367187-97.664062 72.367187-3.496094 0-6.984375-.164062-10.429688-.496093-11.058593-1.0625-19.160156-10.886719-18.101562-21.945313zm0 0" fill="#f9f1da"/><path d="m391.710938 268.8125c-11.054688-1.203125-20.976563 6.765625-22.183594 17.808594-.382813 3.496094-1.460938 6.800781-3.101563 9.898437l39.136719 11.0625c1.964844-5.21875 3.320312-10.75 3.957031-16.589843 1.207031-11.042969-6.765625-20.972657-17.808593-22.179688zm0 0" fill="#495059"/><path d="m41.707031 385.0625 19.117188-35.648438c-3.371094-1.261718-6.445313-3.082031-9.09375-5.527343-8.160157-7.539063-20.886719-7.03125-28.425781 1.128906-7.535157 8.160156-7.03125 20.886719 1.132812 28.425781 5.296875 4.890625 11.109375 8.730469 17.269531 11.621094zm0 0" fill="#495059"/><path d="m105.222656 263.320312c-2.878906 3.300782-7.03125 5.195313-11.394531 5.195313-4.367187 0-8.519531-1.894531-11.398437-5.195313-2.722657-3.125-7.460938-3.449218-10.582032-.726562-3.121094 2.71875-3.445312 7.457031-.726562 10.582031 5.726562 6.570313 14.003906 10.335938 22.707031 10.335938 8.699219 0 16.976563-3.765625 22.703125-10.335938 2.722656-3.125 2.394531-7.863281-.726562-10.582031-3.125-2.722656-7.863282-2.398438-10.582032.726562zm130.71875-93.542968c0-4.40625 3.585938-7.992188 7.992188-7.992188s7.992187 3.585938 7.992187 7.992188c0 4.140625 3.355469 7.5 7.5 7.5s7.5-3.359375 7.5-7.5c0-12.675782-10.3125-22.992188-22.992187-22.992188-12.675782 0-22.992188 10.316406-22.992188 22.992188 0 4.140625 3.359375 7.5 7.5 7.5 4.144532 0 7.5-3.359375 7.5-7.5zm199.675782 95.96875c-1.160157-6.246094-5.363282-11.339844-11.242188-13.625-13.644531-5.300782-22.460938-21.972656-22.460938-42.46875 0-19.78125-8.722656-38.675782-24.566406-53.199219-2.992187-2.746094-4.5-6.613281-4.035156-10.351563.449219-3.628906.679688-7.320312.679688-10.976562 0-26.136719-10-50.179688-28.160157-67.703125-18.652343-18-44.988281-27.914063-74.164062-27.914063-28.539063 0-52.574219 7.480469-70.164063 21.726563l-29.683594-49.121094c-6.183593-10.234375-18.828124-14.695312-30.070312-10.605469-11.234375 4.089844-18.054688 15.632813-16.214844 27.449219l7.449219 47.820313c-7.796875-2.476563-14.828125-2.140625-20.515625 1.140625-9.476562 5.472656-13.753906 18.640625-11.917969 35.835937-21.015625 7.328125-39.496093 16.386719-54.582031 26.875-3.402344 2.363282-4.242188 7.039063-1.878906 10.4375 1.457031 2.097656 3.792968 3.222656 6.164062 3.222656 1.476563 0 2.96875-.4375 4.273438-1.34375 21.550781-14.980468 50.789062-26.921874 84.910156-34.738281l1.871094 12.003907c1.566406 10.066406 8.96875 18.152343 18.859375 20.597656 4.882812 1.207031 9.796875 1.792968 14.65625 1.792968 19.027343 0 37.191406-8.984374 48.785156-24.882812 4.277344-5.863281 5.734375-13.101562 4.324219-19.933594 3.4375-.074218 6.875-.109375 10.289062-.109375 10.441406 0 20.628906 1.621094 30.402344 4.816407-4.78125 8.371093-6.785156 15.917968-6.113281 23.058593.390625 4.121094 4.050781 7.15625 8.171875 6.761719 4.125-.390625 7.152344-4.046875 6.765625-8.171875-.375-3.957031 1.082031-8.8125 4.324219-14.433594 5.078124-8.792969 13.644531-17.847656 22.355468-23.632812 7.738282-5.136719 14.976563-7.164063 18.441406-5.164063 3.460938 2 5.324219 9.28125 4.746094 18.550782-.65625 10.4375-4.214844 22.382812-9.292968 31.175781-.015626.027343-.03125.050781-.046876.078125-.027343.046875-.054687.097656-.085937.148437-3.765625 6.445313-7.839844 10.292969-12.113281 11.425781-4.007813 1.0625-6.390625 5.167969-5.332032 9.171876.890626 3.359374 3.925782 5.578124 7.246094 5.578124.636719 0 1.28125-.078124 1.925782-.25 5.191406-1.375 9.941406-4.332031 14.210937-8.828124 8.121094 14.523437 12.386719 30.820312 12.386719 47.703124 0 54.03125-43.960938 97.992188-97.992188 97.992188-10.222656 0-21.097656.277344-32.613281.570312-58.882813 1.507813-132.167969 3.378907-168.671875-33.125-26.082031-26.082031-28.695312-67.664062-6.074219-96.71875 2.542969-3.269531 1.957031-7.980468-1.3125-10.527343-3.269531-2.542969-7.980469-1.957031-10.523437 1.3125-27.261719 35.015625-24.117188 85.117187 7.304687 116.542969 17.503907 17.503906 41.515625 27.183593 68.089844 32.414062-14.828125 3.132812-26.128906 14.449219-29.425781 28.785156-3.207032-.957031-5.945313-2.476562-8.175782-4.535156-11.1875-10.328125-28.691406-9.632812-39.023437 1.550781-10.332031 11.1875-9.636719 28.691407 1.550781 39.023438 5.636719 5.203125 11.945313 9.445312 18.789063 12.703125.007812.007812.015625.011718.027343.019531.289063.15625.589844.289063.890626.402344 10.574218 4.863281 22.402343 7.394531 35.078124 7.394531 15.148438 0 30.84375-3.570312 45.835938-10.355469 4.40625 9.148438 10.277344 17.351563 17.597656 24.402344 1.730469 1.664063 3.539063 3.253906 5.417969 4.777344-.414063.75-.816406 1.496093-1.199219 2.242187-11.777344 22.972656-11.59375 47.28125.535156 70.296875 4.792969 9.097657 14.160157 14.75 24.449219 14.75 4.449219 0 8.894531-1.101562 12.855469-3.1875 6.523438-3.441406 11.320312-9.214843 13.503906-16.257812 2.183594-7.046875 1.492188-14.523438-1.945312-21.046875-.820313-1.558594-1.449219-3.0625-1.90625-4.535156-.011719-.035157-.019532-.074219-.03125-.109376-.015625-.054687-.039063-.101562-.054688-.15625-1.449218-4.902343-.867187-9.464843 1.742188-14.558593.984375-1.917969 2.277344-3.882813 3.800781-5.804688 8.265625 1.316407 17.023437 1.992188 26.222656 1.992188 2.894531 0 5.71875-.082031 8.515625-.210938.265625 21.289063 3.582032 42.625 5.5 49.800781 3.226563 12.0625 14.191406 20.492188 26.667969 20.492188 2.402344 0 4.808594-.320312 7.140625-.941406 7.128906-1.90625 13.085938-6.472656 16.777344-12.855469 3.691406-6.386719 4.679687-13.828125 2.773437-20.953125-.484375-1.8125-.941406-4.253906-1.363281-7.097656-.015625-.125-.023438-.246094-.042969-.367188-.011719-.0625-.027343-.117187-.039062-.175781-.535157-3.742187-1.003907-8.152344-1.363281-12.78125 3.605468.742187 7.292968 1.125 11.042968 1.125 8.796875 0 18.332032-.195313 28.484375-1.617187 4.101563-.574219 6.960938-4.363282 6.386719-8.464844-.574219-4.105469-4.378906-6.964844-8.464844-6.390625-9.242187 1.292969-18.152344 1.472656-26.40625 1.472656-4.054687 0-8.007812-.609375-11.808594-1.800781-.089843-5.085938.007813-9.820313.335938-13.585938 4.167969-2.28125 8.101562-4.828125 11.792969-7.648437 14.003906-10.707031 24.082031-25.175781 29.636719-42.320313 6.121093 7.085938 9.597656 16.175782 9.597656 25.800782 0 11.515624 7.78125 20.355468 21.347656 24.257812.230469.066406.765625.21875.859375 1.003906.070313.609375-.164063 1.074219-.703125 1.382813-1.390625.792969-2.816406 1.558593-4.230469 2.269531-3.703125 1.859375-5.199219 6.363281-3.34375 10.066406 1.316407 2.625 3.960938 4.140625 6.710938 4.140625 1.128906 0 2.277343-.257812 3.355469-.796875 1.664062-.835937 3.332031-1.730468 4.960937-2.664062 5.738281-3.285156 8.933594-9.640625 8.140625-16.191406-.792969-6.574219-5.238281-11.796876-11.601562-13.625-10.492188-3.019532-10.492188-8.15625-10.492188-9.84375 0-13.191407-4.734375-25.648438-13.070312-35.394532 15.230468-3.296875 29.765624-9.351562 41.941406-17.695312 15.261718-10.460938 26.328125-24.078125 32.3125-39.453125.191406-.390625.351562-.804688.472656-1.238281.007812-.023438.011719-.050782.019531-.074219 2.042969-5.554688 3.429688-11.324219 4.117188-17.257813 5.066406-3.085937 9.441406-6.289062 13.019531-9.546875 4.734375-4.3125 6.859375-10.667969 5.679688-16.992187zm-320.429688-156.703125c-.582031-10.152344 1.78125-16.398438 4.78125-18.132813 3.0625-1.765625 9.066406-.386718 15.761719 3.503906l1.390625 8.933594c-7.535156 1.707032-14.855469 3.605469-21.933594 5.695313zm-76.527344 265.828125c-3.246094-2.011719-6.300781-4.324219-9.136718-6.941406-5.109376-4.71875-5.425782-12.714844-.710938-17.824219 4.722656-5.109375 12.722656-5.425781 17.828125-.710938 1.246094 1.148438 2.578125 2.195313 3.992187 3.148438zm35.472656 9.597656c-7.722656 0-15.046874-1.121094-21.828124-3.304688l12.296874-22.933593c2.085938.414062 4.242188.699219 6.472657.828125 2.0625.117187 4.078125-.613282 5.578125-2.027344s2.351562-3.382812 2.355468-5.445312c.023438-11.550782 8.335938-21.242188 19.765626-23.039063 4.398437-.691406 8.820312-.113281 12.835937 1.617187-.800781 4.75-1.207031 9.570313-1.207031 14.441407 0 10.835937 1.425781 21.039062 4.1875 30.484375-13.296875 6.152344-27.167969 9.378906-40.457032 9.378906zm137.359376-265.589844c-10.953126 15.015625-29.6875 21.832032-47.722657 17.371094-4.007812-.992188-7.007812-4.269531-7.644531-8.347656l-15.769531-101.25c-.742188-4.757813 2.003906-9.402344 6.523437-11.050782 1.128906-.410156 2.289063-.605468 3.4375-.605468 3.460938 0 6.792969 1.78125 8.664063 4.875l51.109375 84.570312c.019531.039063.042968.074219.066406.113282l1.824219 3.019531c2.136719 3.53125 1.945312 7.96875-.488281 11.304687zm-56.359376 308.5c.105469-.203125.21875-.410156.328126-.617187 7.109374 4.015625 14.960937 7.257812 23.480468 9.695312-.480468.8125-.941406 1.625-1.355468 2.433594-3.199219 6.234375-4.566407 12.386719-4.105469 18.570313l-24.433594 7.535156c-2.210937-12.609375-.203125-25.355469 6.085937-37.617188zm23.667969 54.320313c-.996093 3.21875-3.1875 5.855469-6.167969 7.425781-1.839843.96875-3.8125 1.457031-5.863281 1.457031-4.707031 0-8.988281-2.582031-11.179687-6.738281-.785156-1.496094-1.488282-3-2.152344-4.507812l24.347656-7.507813c.042969.085937.082032.171875.125.253906 1.570313 2.984375 1.886719 6.398438.890625 9.617188zm65.652344-41.328125c9.058594-1.246094 17.496094-3.257813 25.308594-6.011719-.183594 9.453125.390625 20.796875 1.421875 30.445313l-24.835938 4.136718c-1.007812-8.378906-1.828125-18.472656-1.894531-28.570312zm28.117187 50.324218c-1.6875 2.914063-4.40625 5-7.664062 5.871094-1.074219.289063-2.171875.433594-3.269531.433594-5.695313 0-10.703125-3.851562-12.175781-9.363281-.246094-.929688-.539063-2.242188-.855469-3.863281l24.863281-4.144532c.121094.523438.242188 1.027344.367188 1.492188.871093 3.257812.421874 6.65625-1.265626 9.574218zm98.941407-152.757812c-16.621094 11.390625-38.367188 17.921875-59.660157 17.921875-2.480468 0-4.976562-.089844-7.421874-.265625-4.125-.292969-7.722657 2.804688-8.019532 6.9375-.300781 4.132812 2.804688 7.722656 6.9375 8.023438 2.800782.203124 5.664063.304687 8.503906.304687.351563 0 .699219-.015625 1.050782-.019531-4.46875 15.183594-13.03125 27.914062-25.128906 37.164062-3.90625 2.984375-8.167969 5.609375-12.75 7.894532-.21875.101562-.4375.210937-.648438.335937-10.820312 5.273437-23.480469 8.601563-37.863281 9.96875-.125.007813-.242188.027344-.363281.039063-4.867188.453124-9.933594.679687-15.191407.679687-9.726562 0-18.765625-.773437-27.121093-2.296875-.390626-.105469-.785157-.179688-1.183594-.222656-18.382813-3.535156-33.351563-10.78125-44.679688-21.691406-14.765625-14.21875-22.570312-34.3125-22.570312-58.105469 0-8.886719 1.648437-17.578125 4.867187-25.910157 12.386719.875 24.9375 1.175782 37.320313 1.175782 13.128906 0 26.070312-.328125 38.402344-.644532 11.417968-.292968 22.199218-.566406 32.230468-.566406 23.191406 0 44.769532-7.027344 62.726563-19.058594 1.214843 1.601563 2.363281 3.242188 3.445312 4.910157-2.226562 3.351562-3.917969 7.054687-5 10.992187-4.957031.710938-9.640625 2.769532-13.605469 6.035156-3.195312 2.632813-3.652343 7.359376-1.019531 10.558594 2.632813 3.199219 7.363281 3.652344 10.558594 1.019532 2.601563-2.144532 5.875-3.152344 9.238281-2.828126.132813.011719.265625.019532.402344.03125 4.125.378907 7.75-2.648437 8.144531-6.757812.476563-5.007812 2.488281-9.601562 5.703125-13.246094.105469-.109375.210938-.222656.308594-.335937 1.40625-1.535157 3.027344-2.898438 4.847656-4.039063 9.804688-6.148437 22.433594-4.296875 30.03125 4.398438 1.355469 1.554687 3.292969 2.480468 5.355469 2.558594 2.078125.089843 4.0625-.6875 5.535156-2.128907 1.800781-1.761719 3.414063-3.609375 4.832031-5.519531l25.429688 7.1875c-6.28125 11.648438-15.574219 19.96875-23.644531 25.5zm30.550781-47.761719c-.3125 2.863281-.8125 5.59375-1.460938 8.207031l-24.332031-6.875c.320313-1.34375.566407-2.703124.714844-4.070312.753906-6.910156 7.003906-11.929688 13.910156-11.171875 3.351563.367187 6.355469 2.015625 8.464844 4.644531 1.625 2.019532 2.558594 4.433594 2.742187 6.964844 0 .167969.007813.335938.019532.507812.015625.59375.007812 1.191407-.058594 1.792969zm17.769531-18.527343c-1.671875 1.523437-3.589843 3.042968-5.726562 4.558593-.847657-1.640625-1.863281-3.214843-3.046875-4.6875-4.621094-5.753906-11.199219-9.359375-18.535156-10.164062-15.144532-1.648438-28.796876 9.320312-30.449219 24.453125-.273438 2.476562-1.046875 4.894531-2.304688 7.25 0 .003906-.003906.007812-.003906.011718-.273437.511719-.5625 1.019532-.878906 1.527344-12.4375-9.039062-29.3125-9.875-42.882813-1.367187-.261718.164062-.519531.34375-.777344.511719-.773437-1.109376-1.570312-2.210938-2.394531-3.296876 23.519531-20.71875 38.382813-51.042968 38.382813-84.777343 0-21.980469-6.253906-43.101563-18.125-61.394531 5.105468-10.203126 8.488281-22.550782 9.199218-33.875.988282-15.824219-3.351562-27.355469-12.21875-32.476563-15.304687-8.835937-37.753906 5.007813-52.332031 21.863281-12.617187-4.71875-25.882812-7.109375-39.515625-7.109375-5.8125 0-11.691406.105469-17.53125.304688l-11.328125-18.742188c15.066407-13.082031 35.980469-19.726562 62.304688-19.726562 25.632812 0 47.675781 8.195312 63.746093 23.703125 15.203126 14.671875 23.574219 34.882812 23.574219 56.914062 0 3.035156-.1875 6.105469-.5625 9.125-1.066406 8.542969 2.21875 17.238282 8.785157 23.257813 12.707031 11.648437 19.703124 26.617187 19.703124 42.140625 0 27.144531 12.269532 48.777344 32.023438 56.453125 1.394531.542969 1.808594 1.726562 1.933594 2.386719.105468.566406.21875 2.011718-1.039063 3.15625zm-297.738281-103.054688v-10.734375c0-4.140625-3.355469-7.5-7.5-7.5-4.140625 0-7.5 3.359375-7.5 7.5v10.734375c0 4.144531 3.359375 7.5 7.5 7.5 4.144531 0 7.5-3.355469 7.5-7.5zm0 0"/></svg>