<svg height="383pt" viewBox="1 -33 383.999 383" width="383pt" xmlns="http://www.w3.org/2000/svg"><path d="m33.101562.5h105.933594l13.242188 26.484375 13.238281-26.484375h6.621094v72.828125h-139.035157zm0 0" fill="#394d5c"/><path d="m145.65625 53.464844h-52.96875v-39.722656c-15.226562 7.28125-25.820312 22.507812-26.480469 39.722656h-39.722656c-.664063-17.214844-11.257813-32.441406-26.484375-39.722656v185.378906h92.6875v-39.722656h39.726562v158.894531h39.722657v-92.6875h26.484375v92.6875h39.722656v-92.6875h52.964844v92.6875h39.726562v-264.828125zm0 0" fill="#f4f4e6"/><path d="m384 225.601562-26.484375-19.859374v19.859374h-26.480469v-172.136718c29.128906 0 52.964844 23.835937 52.964844 52.964844zm0 0" fill="#394d5c"/><path d="m6.621094 86.570312h13.242187v13.238282h-13.242187zm0 0" fill="#394d5c"/><path d="m72.828125 86.570312h13.238281v13.238282h-13.238281zm0 0" fill="#394d5c"/><path d="m92.6875 199.121094h-92.6875v-39.722656l46.34375-26.484376 46.34375 26.484376zm0 0" fill="#394d5c"/><path d="m26.484375 179.257812h13.238281v13.242188h-13.238281zm0 0" fill="#f4f4e6"/><path d="m52.964844 179.257812h13.242187v13.242188h-13.242187zm0 0" fill="#f4f4e6"/><g fill="#5a6470"><path d="m119.171875 53.464844h26.484375v66.207031h-26.484375zm0 0"/><path d="m172.136719 53.464844h26.484375v145.65625h-26.484375zm0 0"/><path d="m225.105469 53.464844h26.480469v145.65625h-26.480469zm0 0"/><path d="m278.070312 53.464844h26.480469v145.65625h-26.480469zm0 0"/><path d="m33.101562 53.464844h26.484376v39.726562h-26.484376zm0 0"/><path d="m132.414062 238.84375h39.722657v26.484375h-39.722657zm0 0"/><path d="m132.414062 291.808594h39.722657v26.484375h-39.722657zm0 0"/><path d="m198.621094 238.84375h39.722656v26.484375h-39.722656zm0 0"/><path d="m198.621094 291.808594h39.722656v26.484375h-39.722656zm0 0"/><path d="m291.3125 238.84375h39.722656v26.484375h-39.722656zm0 0"/><path d="m291.3125 291.808594h39.722656v26.484375h-39.722656zm0 0"/></g></svg>