<?xml version="1.0" encoding="iso-8859-1"?>
<!-- Generator: Adobe Illustrator 19.0.0, SVG Export Plug-In . SVG Version: 6.00 Build 0)  -->
<svg version="1.1" id="Capa_1" xmlns="http://www.w3.org/2000/svg" xmlns:xlink="http://www.w3.org/1999/xlink" x="0px" y="0px"
	 viewBox="0 0 512 512" style="enable-background:new 0 0 512 512;" xml:space="preserve">
<path style="fill:#E0230D;" d="M414.5,7.5h-30v497h30c49.5,0,90-40.5,90-90v-317C504.5,48,464,7.5,414.5,7.5z"/>
<path style="fill:#FF5440;" d="M474.5,97.5v317c0,49.5-40.5,90-90,90h-287c-49.5,0-90-40.5-90-90v-317c0-49.5,40.5-90,90-90h287
	C434,7.5,474.5,48,474.5,97.5z"/>
<path style="fill:#FFFFFF;" d="M256,67.5c-46.456,0-84.25,37.794-84.25,84.25v208.5c0,46.456,37.794,84.25,84.25,84.25
	s84.25-37.794,84.25-84.25v-208.5C340.25,105.294,302.456,67.5,256,67.5z M300.25,360.25c0,24.399-19.851,44.25-44.25,44.25
	s-44.25-19.851-44.25-44.25v-208.5c0-24.399,19.851-44.25,44.25-44.25s44.25,19.851,44.25,44.25V360.25z"/>
<path d="M414.5,0h-317C43.738,0,0,43.738,0,97.5v317C0,468.262,43.738,512,97.5,512h317c53.762,0,97.5-43.738,97.5-97.5v-317
	C512,43.738,468.262,0,414.5,0z M497,414.5c0,45.49-37.009,82.5-82.5,82.5h-317C52.009,497,15,459.99,15,414.5v-317
	C15,52.01,52.009,15,97.5,15h317c45.491,0,82.5,37.01,82.5,82.5V414.5z"/>
<path d="M256,60c-50.591,0-91.75,41.159-91.75,91.75v208.5c0,50.591,41.159,91.75,91.75,91.75s91.75-41.159,91.75-91.75v-208.5
	C347.75,101.159,306.591,60,256,60z M332.75,360.25c0,42.32-34.43,76.75-76.75,76.75s-76.75-34.43-76.75-76.75v-208.5
	C179.25,109.43,213.68,75,256,75s76.75,34.43,76.75,76.75V360.25z"/>
<path d="M256,100c-28.535,0-51.75,23.215-51.75,51.75V241c0,4.143,3.358,7.5,7.5,7.5s7.5-3.357,7.5-7.5v-89.25
	c0-20.264,16.486-36.75,36.75-36.75s36.75,16.486,36.75,36.75v208.5c0,20.264-16.486,36.75-36.75,36.75s-36.75-16.486-36.75-36.75
	V271c0-4.143-3.358-7.5-7.5-7.5s-7.5,3.357-7.5,7.5v89.25c0,28.535,23.215,51.75,51.75,51.75s51.75-23.215,51.75-51.75v-208.5
	C307.75,123.215,284.535,100,256,100z"/>
<g>
</g>
<g>
</g>
<g>
</g>
<g>
</g>
<g>
</g>
<g>
</g>
<g>
</g>
<g>
</g>
<g>
</g>
<g>
</g>
<g>
</g>
<g>
</g>
<g>
</g>
<g>
</g>
<g>
</g>
</svg>
